<svg xmlns="http://www.w3.org/2000/svg" width="304.64014mm" height="300mm" viewBox="0 0 304.64014 300"><defs><clipPath id="a" clipPathUnits="userSpaceOnUse"><path d="M0 841.89h595.276V0H0Z"/></clipPath><clipPath id="b" clipPathUnits="userSpaceOnUse"><path d="M204.186 496.81c-3.069 0-3.069-.768-6.127-.768-3.057 0-3.057.735-6.125.735-3.08 0-3.08-.441-6.183-.441-3.046 0-3.046.214-6.097.214-3.035 0-3.035-.354-6.08-.354-3.052 0-3.052-.139-6.12-.139-3.035 0-3.035.154-6.075.154-3.074 0-3.074-.403-6.154-.403-2.476 0-3.599 1.6-5.105.882-.109-.303-.32-.619-.668-.973-.364-.38-.695-.619-1.02-.753-.817-1.586.45-2.687.45-5.244 0-3.06.85-3.06.85-6.115 0-3.069-1.061-3.226-1.061-6.291 0-3.091-2.145-3.982-2.145-7.073 0-3.119 2.904-1.246 2.904-5.05 0-3.037-1.615-3.271-1.615-6.306 0-3.063 1.427-2.829 1.427-5.897 0-3.027-.349-3.027-.349-6.07 0-3.079.183-3.079.183-6.154 0-2.957-1.546-3.699-.126-6.291.371-.67 3.428.276 6.492.276 3.068 0 3.068.491 6.125.491 2.943 0 3.069-.034 5.79-.034h.335c2.979 0 3.098-.43 5.848-.465.102 0 .222-.009.336-.009.9 0 1.534.029 2.059.078 1.255.105 1.893.276 4.044.276 1.688 0 2.441-.08 3.297-.142.679-.06 1.432-.105 2.772-.105.468 0 .855-.016 1.192-.029 1.934-.089 2.338-.377 4.933-.377.531 0 .947-.003 1.335-.017 1.791-.037 2.23-.151 4.74-.151 2.224 0 2.846.123 4.175.185a42.26 42.26 0 0 0 1.99.046c.531 0 1.096.002 1.632.011 1.711.015 3.29.049 4.055.071.308.007.491.009.491.009.251.716-.183 3.325-.183 6.394 0 .331 0 .616.006.884.029 2.208.165 2.504.165 5.233 0 3.069-.154 3.069-.154 6.132 0 3.094-.325 3.094-.325 6.182 0 3.049.303 3.049.303 6.107 0 3.034-.6 3.034-.6 6.071 0 3.06.474 3.06.474 6.117 0 3.041-.029 3.041-.029 6.077 0 3.081-.245 3.066.48 6.061.793 3.297.039 5.419-.006 6.422-.041.83-.617 1.077-1.492 1.077-1.286 0-3.217-.534-5.044-.534"/></clipPath></defs><g clip-path="url(#a)" transform="matrix(2.15685 0 0 -2.15685 -172.433 1218.006)"><path d="M0 0c-3.376-10.116.143-27.977-.587-39.282-.993-15.38-1.985-43.505.496-62.998 1.414-11.116-2.31-26.437 3.109-28.47 8.042-3.02 47.974.739 65.341.687 15.435-.042 34.406-1.164 49.811-.687 15.959.493 15.133-2.43 18.6 3.522 4.603 7.874 2.55 36.268 1.01 54.81-1.22 14.779 3.069 33.285 1.015 48.009-.838 5.997 2.847 23.231-1.517 27.928-6.086 6.548-19.923 2.228-27.583 2.487-15.212.522-30.618.607-45.802-.653-16.13-1.335-43.285 3.693-57.356.174C6.537 5.527 1.5 4.526 0 0" style="fill:#231f20;fill-opacity:1;fill-rule:nonzero;stroke:none" transform="translate(81.595 557.549)"/><path d="M0 0s-.758-2.838 0-5.872c.759-3.035-2.652-13.453-.758-21.6 0 0 36.19-7.389 46.223-3.599 10.044 3.784 20.277 9.85 13.455 22.359C52.098 3.79 7.387 20.456 0 0" style="fill:#00a650;fill-opacity:1;fill-rule:nonzero;stroke:none" transform="translate(90.236 530.205)"/><path d="M0 0c9.765-9.465 22.433-1.974 23.112-1.557.564.416 9.291 6.679 16.244 2.806.034.451.068.873.097 1.395.017.41.046.895.046 1.508l-.508-.838C32.631 7.121 23.922.767 23.825.699l-.023-.014-.023-.009C23.642.587 10.353-7.429-.171 2.772c-9.006 8.718-19.792.958-21.634-.473-.006-.317-.023-.59-.034-.844-.012-.106-.017-.206-.023-.305-.012-.26-.034-.502-.051-.776C-19.643 2.068-9.371 9.081 0 0" style="fill:#00a650;fill-opacity:1;fill-rule:nonzero;stroke:none" transform="translate(110.872 509.08)"/><path d="M0 0c.017.194.034.394.051.622l-.216-.36c-6.36 3.813-15.069-2.547-15.167-2.609l-.022-.02-.023-.012c-.137-.088-14.111-8.484-24.635 1.709-9.36 9.071-19.638 1.191-20.847.205v-.014c.028-.226.057-.439.086-.67.068-.648.131-1.384.131-2.664 0-2.903-1.7-3.531.411-5.556 2.184-2.093 2.777-.173 5.817-.173 3.069 0 3.069.33 6.138.33 3.063 0 3.063-.904 6.131-.904 3.046 0 3.046.479 6.097.479 3.046 0 3.046.009 6.092.009 3.04 0 3.04-.311 6.069-.311 3.051 0 3.051-.091 6.097-.091 3.035 0 3.035.967 6.046.967 3.058 0 3.058-.608 6.115-.608 2.401 0 3.536-1.463 4.996-.847.154.311.405.642.759 1.001.336.348.644.576.941.716.61 1.563-1.312 2.661-1.312 5.185C-.245-1.723-.103-1.013 0 0" style="fill:#00a650;fill-opacity:1;fill-rule:nonzero;stroke:none" transform="translate(150.028 505.205)"/><path d="M0 0c9.765-9.468 22.433-1.968 23.112-1.557.564.419 9.211 6.611 16.136 2.872 0 .188.011.396.011.622v.299c0 .294.011.542.011.776.012.49.024.895.041 1.246l-.32-.53c-6.36 3.81-15.069-2.55-15.166-2.616l-.023-.014-.023-.014C23.642.998 9.668-7.4-.855 2.798c-9.32 9.026-19.673 1.198-20.973.148v-.091a33.705 33.705 0 0 1-.011-.83c0-.137.005-.268.005-.391.006-.325.012-.604.023-.864C-19.615 2.419-9.417 9.135 0 0" style="fill:#00a650;fill-opacity:1;fill-rule:nonzero;stroke:none" transform="translate(110.872 505.41)"/><path d="M0 0c9.765-9.465 22.433-1.968 23.112-1.557.57.419 9.422 6.767 16.392 2.729V1.38c0 3.02.245 3.02.245 6.029 0 3.017-.33 3.017-.33 6.029 0 3-.365 3-.365 6 0 3.012.148 3.012.148 6.043 0 2.978.513 2.978.513 5.973 0 3.02-.889 3.071-.211 6.025.696 3.109 2.162 3.973.058 5.992-2.185 2.09-3.189-.684-6.235-.684-3.063 0-3.063.117-6.126.117-3.068 0-3.068.476-6.142.476-3.041 0-3.041-.53-6.092-.53-3.052 0-3.052.829-6.092.829-3.034 0-3.034-.068-6.069-.068-3.051 0-3.051.191-6.103.191-3.023 0-3.023-.776-6.046-.776-3.051 0-3.051-.108-6.103-.108-2.943 0-5.983 1.235-6.257.75-1.448-2.644-.063-3.359-.063-6.368 0-3.029.389-3.029.389-6.06 0-3.038-.189-3.038-.189-6.075 0-3.014.103-3.014.103-6.026 0-1.882.177-2.593.32-3.594.262.237.53.449.832.708l1.859 1.585c1.603 1.441 3.491 3.055 5.567 3.879 2.944 1.163 5.231 1.067 6.999-.294.935-.727 1.774-1.531 2.561-2.315.61-.594 1.186-1.161 1.785-1.66l1.837-1.517a83.445 83.445 0 0 0 2.709-2.288c1.477-1.343 1.922-1.871 2.395-2.446.348-.411.691-.847 1.546-1.68l-.952-.956c-.901.893-1.295 1.372-1.643 1.794-.456.551-.838 1.027-2.253 2.299-.776.713-1.7 1.454-2.658 2.247l-1.854 1.532c-.638.53-1.254 1.14-1.853 1.725-.77.756-1.58 1.537-2.447 2.21-1.369 1.061-3.172 1.095-5.664.114-1.876-.744-3.65-2.264-5.173-3.639l-1.894-1.617c-.627-.513-1.038-.847-1.557-1.437.005-.211.005-.431.005-.676 0-3.003-.079-3.003-.079-6 0-3.018-.559-3.018-.559-6.032 0-.066-.011-.123-.011-.185C-19.136 2.727-9.194 8.918 0 0" style="fill:#00a650;fill-opacity:1;fill-rule:nonzero;stroke:none" transform="translate(110.872 512.338)"/><path d="M0 0c10.523-10.195 23.482-1.942 23.619-1.856 0 0 9.292 6.453 15.651 2.64l.508.83c0 .097.006.188.006.285C32.813 5.935 23.528-.408 22.957-.83 22.273-1.244 10.632-8.593.873.87-8.333 9.791-18.36 3.904-20.864 2.073c0-.578-.217-1.203-.234-1.6C-19.251 1.911-8.995 8.721 0 0" style="fill:#fff;fill-opacity:1;fill-rule:nonzero;stroke:none" transform="translate(110.593 513.128)"/><path d="M0 0c10.523-10.195 23.482-1.942 23.619-1.856 0 0 9.292 6.453 15.651 2.64l.508.83c0 .097.006.188.006.285C32.813 5.935 23.528-.408 22.957-.83 22.273-1.244 10.632-8.593.873.87-8.333 9.791-18.36 3.904-20.864 2.073c0-.578-.217-1.203-.234-1.6C-19.251 1.911-8.995 8.721 0 0Z" style="fill:none;stroke:#fff;stroke-width:.2;stroke-linecap:butt;stroke-linejoin:miter;stroke-miterlimit:4;stroke-dasharray:none;stroke-opacity:1" transform="translate(110.593 513.128)"/><path d="M0 0c10.643-10.064 24.497-1.796 24.635-1.714l.022.017.023.014c.097.066 8.807 6.426 15.167 2.616l.319.53c.011.166.017.337.034.488 0 .06.005.117.011.171-6.952 3.87-15.679-2.39-16.244-2.804C23.288-1.098 10.621-8.59.855.876c-9.371 9.083-19.29 2.452-21.554.761a37.1 37.1 0 0 1-.063-1.526C-19.462 1.164-9.4 8.887 0 0" style="fill:#fff;fill-opacity:1;fill-rule:nonzero;stroke:none" transform="translate(110.017 509.723)"/><path d="M0 0c10.643-10.064 24.497-1.796 24.635-1.714l.022.017.023.014c.097.066 8.807 6.426 15.167 2.616l.319.53c.011.166.017.337.034.488 0 .06.005.117.011.171-6.952 3.87-15.679-2.39-16.244-2.804C23.288-1.098 10.621-8.59.855.876c-9.371 9.083-19.29 2.452-21.554.761a37.1 37.1 0 0 1-.063-1.526C-19.462 1.164-9.4 8.887 0 0Z" style="fill:none;stroke:#fff;stroke-width:.2;stroke-linecap:butt;stroke-linejoin:miter;stroke-miterlimit:4;stroke-dasharray:none;stroke-opacity:1" transform="translate(110.017 509.723)"/><path d="M0 0c10.433-10.284 25.08-1.799 25.217-1.705l.022.008.023.017c.097.066 8.807 6.423 15.167 2.616l.216.353c.017.266.029.559.04.896-6.924 3.747-15.571-2.45-16.136-2.87C23.871-1.098 10.501-8.724.867.873c-9.805 9.762-18.953 2.016-21.149.368.017-.585.062-1.03.114-1.44C-18.965.793-9.479 9.352 0 0" style="fill:#fff;fill-opacity:1;fill-rule:nonzero;stroke:none" transform="translate(109.434 506.052)"/><path d="M0 0c10.433-10.284 25.08-1.799 25.217-1.705l.022.008.023.017c.097.066 8.807 6.423 15.167 2.616l.216.353c.017.266.029.559.04.896-6.924 3.747-15.571-2.45-16.136-2.87C23.871-1.098 10.501-8.724.867.873c-9.805 9.762-18.953 2.016-21.149.368.017-.585.062-1.03.114-1.44C-18.965.793-9.479 9.352 0 0Z" style="fill:none;stroke:#fff;stroke-width:.2;stroke-linecap:butt;stroke-linejoin:miter;stroke-miterlimit:4;stroke-dasharray:none;stroke-opacity:1" transform="translate(109.434 506.052)"/><path d="m0 0 1.894 1.623c1.523 1.366 3.296 2.889 5.173 3.63 2.492.987 4.295.95 5.663-.114.868-.67 1.678-1.451 2.448-2.204.598-.588 1.215-1.193 1.853-1.729l1.854-1.525c.958-.793 1.882-1.543 2.658-2.251 1.415-1.277 1.797-1.751 2.253-2.298.348-.425.742-.91 1.643-1.791l.952.95c-.855.832-1.198 1.269-1.546 1.682-.473.568-.918 1.104-2.395 2.447A82.23 82.23 0 0 1 19.741.707l-1.837 1.515c-.599.504-1.175 1.066-1.785 1.659-.788.788-1.626 1.589-2.561 2.313-1.768 1.364-4.056 1.466-6.999.291-2.076-.816-3.964-2.43-5.567-3.87L-.867 1.026c-.302-.253-.439-.279-.696-.519.068-.464.251-1.069.274-1.825C-.77-.722-.628-.514 0 0" style="fill:#fff;fill-opacity:1;fill-rule:nonzero;stroke:none" transform="translate(91.428 529.078)"/><path d="m0 0 1.894 1.623c1.523 1.366 3.296 2.889 5.173 3.63 2.492.987 4.295.95 5.663-.114.868-.67 1.678-1.451 2.448-2.204.598-.588 1.215-1.193 1.853-1.729l1.854-1.525c.958-.793 1.882-1.543 2.658-2.251 1.415-1.277 1.797-1.751 2.253-2.298.348-.425.742-.91 1.643-1.791l.952.95c-.855.832-1.198 1.269-1.546 1.682-.473.568-.918 1.104-2.395 2.447A82.23 82.23 0 0 1 19.741.707l-1.837 1.515c-.599.504-1.175 1.066-1.785 1.659-.788.788-1.626 1.589-2.561 2.313-1.768 1.364-4.056 1.466-6.999.291-2.076-.816-3.964-2.43-5.567-3.87L-.867 1.026c-.302-.253-.439-.279-.696-.519.068-.464.251-1.069.274-1.825C-.77-.722-.628-.514 0 0Z" style="fill:none;stroke:#fff;stroke-width:.2;stroke-linecap:butt;stroke-linejoin:miter;stroke-miterlimit:4;stroke-dasharray:none;stroke-opacity:1" transform="translate(91.428 529.078)"/><path d="M0 0c-.919-.462-1.751-1.112-2.635-1.802L-4.74-3.337-6.583-4.44l-3.079-1.906-4.683-3.274c-1.591-1.157-2.128-1.622-2.681-2.121l-1.842-1.532.832-1.055 1.917 1.591c.553.497 1.033.924 2.573 2.039l4.648 3.252 3.006 1.856 1.876 1.127 2.219 1.614C-.964-2.205-.183-1.591.61-1.184 2.903-.026 4.745.382 5.692.382c1.341 0 2.983-.696 5.031-2.131 1.254-.88 2.413-2.061 3.645-3.302l.615-.63 1.883-1.754c.912-.815 1.768-1.583 2.435-2.384l1.712-1.982c.604-.682.952-1.055 1.945-2.487l1.117.759c-1.049 1.497-1.426 1.922-2.053 2.612l-1.683 1.948c-.724.872-1.619 1.674-2.561 2.521L15.942-4.74l-.616.619c-1.209 1.232-2.47 2.507-3.816 3.462C9.194.961 7.352 1.72 5.692 1.72 4.261 1.72 2.127 1.075 0 0" style="fill:#fff;fill-opacity:1;fill-rule:nonzero;stroke:none" transform="translate(126.523 529.452)"/><path d="M0 0c-.919-.462-1.751-1.112-2.635-1.802L-4.74-3.337-6.583-4.44l-3.079-1.906-4.683-3.274c-1.591-1.157-2.128-1.622-2.681-2.121l-1.842-1.532.832-1.055 1.917 1.591c.553.497 1.033.924 2.573 2.039l4.648 3.252 3.006 1.856 1.876 1.127 2.219 1.614C-.964-2.205-.183-1.591.61-1.184 2.903-.026 4.745.382 5.692.382c1.341 0 2.983-.696 5.031-2.131 1.254-.88 2.413-2.061 3.645-3.302l.615-.63 1.883-1.754c.912-.815 1.768-1.583 2.435-2.384l1.712-1.982c.604-.682.952-1.055 1.945-2.487l1.117.759c-1.049 1.497-1.426 1.922-2.053 2.612l-1.683 1.948c-.724.872-1.619 1.674-2.561 2.521L15.942-4.74l-.616.619c-1.209 1.232-2.47 2.507-3.816 3.462C9.194.961 7.352 1.72 5.692 1.72 4.261 1.72 2.127 1.075 0 0Z" style="fill:none;stroke:#fff;stroke-width:.2;stroke-linecap:butt;stroke-linejoin:miter;stroke-miterlimit:4;stroke-dasharray:none;stroke-opacity:1" transform="translate(126.523 529.452)"/><path d="m0 0 .758-.844c.725.642 1.649.987 2.482.913l.096 1.123C2.185 1.292.97.856 0 0" style="fill:#fff;fill-opacity:1;fill-rule:nonzero;stroke:none" transform="translate(131.389 546.552)"/><path d="m0 0 .758-.844c.725.642 1.649.987 2.482.913l.096 1.123C2.185 1.292.97.856 0 0Z" style="fill:none;stroke:#fff;stroke-width:.169;stroke-linecap:butt;stroke-linejoin:miter;stroke-miterlimit:4;stroke-dasharray:none;stroke-opacity:1" transform="translate(131.389 546.552)"/><path d="m0 0 .045-.964c1.455.06 2.704-.39 3.52-1.28C4.38-3.146 4.814-4.503 4.7-5.88c-.097-1.269-.679-2.567-1.609-3.574-.696-.764-1.78-1.163-3.388-1.26-1.591-.095-2.834.068-3.804.499-1.215.536-2.276 1.457-2.835 2.481-.576 1.061-.456 2.184.376 3.34.502.704 1.615 1.234 3.149 1.488 1.426.237 2.686.095 3.565-.391.719-.405 1.483-1.097.81-2.831C.679-6.87.302-7.341-.16-7.521c-.49-.185-1.009-.019-1.363.158-.867.413-1.466 1.277-1.437 1.765.017.091.022.288.405.413l-.32.919c-.645-.22-1.021-.67-1.055-1.269-.074-1.05.947-2.199 1.973-2.701.753-.374 1.506-.436 2.157-.185.73.285 1.294.941 1.682 1.95.867 2.262-.211 3.431-1.249 4.016-1.072.596-2.572.775-4.204.504-1.266-.211-2.954-.71-3.787-1.882-1.323-1.848-.964-3.391-.434-4.363.662-1.215 1.866-2.276 3.297-2.909 1.118-.494 2.51-.676 4.255-.573 1.854.105 3.177.618 4.061 1.574 1.078 1.178 1.734 2.647 1.86 4.149.125 1.638-.394 3.266-1.392 4.364C3.268-.493 1.751.074 0 0" style="fill:#fff;fill-opacity:1;fill-rule:nonzero;stroke:none" transform="translate(123.569 547.895)"/><path d="m0 0 .045-.964c1.455.06 2.704-.39 3.52-1.28C4.38-3.146 4.814-4.503 4.7-5.88c-.097-1.269-.679-2.567-1.609-3.574-.696-.764-1.78-1.163-3.388-1.26-1.591-.095-2.834.068-3.804.499-1.215.536-2.276 1.457-2.835 2.481-.576 1.061-.456 2.184.376 3.34.502.704 1.615 1.234 3.149 1.488 1.426.237 2.686.095 3.565-.391.719-.405 1.483-1.097.81-2.831C.679-6.87.302-7.341-.16-7.521c-.49-.185-1.009-.019-1.363.158-.867.413-1.466 1.277-1.437 1.765.017.091.022.288.405.413l-.32.919c-.645-.22-1.021-.67-1.055-1.269-.074-1.05.947-2.199 1.973-2.701.753-.374 1.506-.436 2.157-.185.73.285 1.294.941 1.682 1.95.867 2.262-.211 3.431-1.249 4.016-1.072.596-2.572.775-4.204.504-1.266-.211-2.954-.71-3.787-1.882-1.323-1.848-.964-3.391-.434-4.363.662-1.215 1.866-2.276 3.297-2.909 1.118-.494 2.51-.676 4.255-.573 1.854.105 3.177.618 4.061 1.574 1.078 1.178 1.734 2.647 1.86 4.149.125 1.638-.394 3.266-1.392 4.364C3.268-.493 1.751.074 0 0Z" style="fill:none;stroke:#fff;stroke-width:.072;stroke-linecap:butt;stroke-linejoin:miter;stroke-miterlimit:4;stroke-dasharray:none;stroke-opacity:1" transform="translate(123.569 547.895)"/><path d="M0 0c.451-.391.742-.996 1.038-1.637l.417-.827 1.004.536-.377.77C1.734-.44 1.38.308.748.85Z" style="fill:#fff;fill-opacity:1;fill-rule:nonzero;stroke:none" transform="translate(116.844 550.75)"/><path d="M0 0c.451-.391.742-.996 1.038-1.637l.417-.827 1.004.536-.377.77C1.734-.44 1.38.308.748.85Z" style="fill:none;stroke:#fff;stroke-width:.169;stroke-linecap:butt;stroke-linejoin:miter;stroke-miterlimit:4;stroke-dasharray:none;stroke-opacity:1" transform="translate(116.844 550.75)"/><path d="m0 0 .137-1.118c.844.102 1.848-.051 2.344-.259l.451 1.04C2.185-.02.952.12 0 0" style="fill:#fff;fill-opacity:1;fill-rule:nonzero;stroke:none" transform="translate(109.988 543.035)"/><path d="m0 0 .137-1.118c.844.102 1.848-.051 2.344-.259l.451 1.04C2.185-.02.952.12 0 0Z" style="fill:none;stroke:#fff;stroke-width:.169;stroke-linecap:butt;stroke-linejoin:miter;stroke-miterlimit:4;stroke-dasharray:none;stroke-opacity:1" transform="translate(109.988 543.035)"/><path d="m0 0 .73-.87C1.426-.297 2.07.339 2.544.915l-.895.705C1.238 1.101.65.522 0 0" style="fill:#fff;fill-opacity:1;fill-rule:nonzero;stroke:none" transform="translate(115.047 533.662)"/><path d="m0 0 .73-.87C1.426-.297 2.07.339 2.544.915l-.895.705C1.238 1.101.65.522 0 0Z" style="fill:none;stroke:#fff;stroke-width:.169;stroke-linecap:butt;stroke-linejoin:miter;stroke-miterlimit:4;stroke-dasharray:none;stroke-opacity:1" transform="translate(115.047 533.662)"/><path d="M0 0c.616-.665 1.392-1.101 2.162-1.238l.199 1.112C1.831-.035 1.284.29.844.767Z" style="fill:#fff;fill-opacity:1;fill-rule:nonzero;stroke:none" transform="translate(129.5 536.063)"/><path d="M0 0c.616-.665 1.392-1.101 2.162-1.238l.199 1.112C1.831-.035 1.284.29.844.767Z" style="fill:none;stroke:#fff;stroke-width:.169;stroke-linecap:butt;stroke-linejoin:miter;stroke-miterlimit:4;stroke-dasharray:none;stroke-opacity:1" transform="translate(129.5 536.063)"/><path d="m0 0 .895-1.003C1.745-.239 2.84.165 3.81.083l.114 1.337C2.572 1.535 1.141 1.018 0 0" style="fill:#fff;fill-opacity:1;fill-rule:nonzero;stroke:none" transform="translate(156.263 548.163)"/><path d="M0 0c-.285-.14-.599-.365-.936-.719-.347-.362-.592-.693-.752-1.007.325.134.656.374 1.021.753.348.354.559.67.667.973" style="fill:#1969bc;fill-opacity:1;fill-rule:nonzero;stroke:none" transform="translate(150.12 496.69)"/><path d="M0 0c2.105 2.15-.045 3.1-.045 6.12 0 3.04.176 3.04.176 6.089 0 3.049-.695 3.049-.695 6.101 0 3.025.701 3.025.701 6.054 0 3.029-.468 3.029-.468 6.057 0 3.012-.222 3.012-.222 6.02 0 3.032.24 3.032.24 6.075 0 2.995-.2 2.995-.2 5.998 0 3.037.987 3.037.987 6.071 0 2.92-.257 4.826-.628 5.778-.28.704-3.006-.427-6.075-.427-3.068 0-3.068 1.001-6.125 1.001-3.058 0-3.058-.454-6.126-.454-3.08 0-3.08-.282-6.183-.282-3.046 0-3.046.099-6.097.099-3.035 0-3.035-.445-6.08-.445-3.052 0-3.052.93-6.12.93-3.035 0-3.035-.168-6.075-.168-3.074 0-3.074-.402-6.154-.402-2.961 0-3.412 1.599-6.109.402-.445-.194-.251-3.208-.251-6.231 0-3.038-.097-3.038-.097-6.083 0-3.052-.012-3.052-.012-6.104 0-3.025.12-3.025.12-6.057 0-3.023-.074-3.023-.074-6.055 0-3.017.24-3.017.24-6.025 0-3.026-.166-3.026-.166-6.055 0-3.006-.473-3.006-.473-6.012 0-3.034.074-3.034.074-6.074 0-2.915-1.095-3.625 1.027-5.641 2.219-2.11 2.874-.394 5.937-.394 3.069 0 3.069.308 6.126.308 3.069 0 3.069-.573 6.126-.573 3.091 0 3.091.744 6.183.744 3.051 0 3.051-.684 6.103-.684 3.034 0 3.034.211 6.069.211 3.068 0 3.068.031 6.125.031 3.035 0 3.035-.319 6.075-.319 3.074 0 3.234 1.5 6.24.853C-2.789-.231-2.076-2.113 0 0" style="fill:#ed1c24;fill-opacity:1;fill-rule:nonzero;stroke:none" transform="translate(210.414 495.777)"/><path d="M0 0c-.103 2.05-3.468.542-6.537.542-3.068 0-3.068-.767-6.126-.767-3.057 0-3.057.735-6.125.735-3.08 0-3.08-.442-6.183-.442-3.046 0-3.046.214-6.097.214-3.035 0-3.035-.353-6.08-.353-3.052 0-3.052-.14-6.121-.14-3.034 0-3.034.154-6.074.154-3.074 0-3.074-.402-6.154-.402-2.476 0-3.6 1.6-5.106.881-.108-.302-.319-.619-.667-.972-.365-.38-.696-.619-1.02-.753-.816-1.586.45-2.687.45-5.245 0-3.06.85-3.06.85-6.115 0-3.068-1.061-3.225-1.061-6.291 0-3.091-2.145-3.981-2.145-7.072 0-3.12 2.904-1.246 2.904-5.051 0-3.037-1.615-3.271-1.615-6.305 0-3.063 1.426-2.829 1.426-5.898 0-3.026-.348-3.026-.348-6.069 0-3.08.183-3.08.183-6.154 0-2.957-1.546-3.699-.126-6.291.371-.671 3.428.276 6.491.276 3.069 0 3.069.491 6.126.491 2.943 0 3.069-.035 5.789-.035h.337c2.977 0 3.097-.43 5.846-.464.103 0 .223-.009.337-.009.901 0 1.534.029 2.059.077 1.255.105 1.893.277 4.044.277 1.688 0 2.441-.08 3.297-.143.678-.06 1.431-.105 2.772-.105.468 0 .855-.015 1.192-.029 1.933-.088 2.338-.376 4.933-.376.531 0 .947-.003 1.335-.018 1.791-.037 2.23-.15 4.74-.15 2.225 0 2.846.122 4.175.185a42.26 42.26 0 0 0 1.99.046c.531 0 1.096.002 1.632.011 1.711.014 3.291.048 4.055.071l.491.009c.251.716-.183 3.325-.183 6.393 0 .331 0 .617.006.885.029 2.207.165 2.504.165 5.233 0 3.068-.153 3.068-.153 6.131 0 3.095-.326 3.095-.326 6.183 0 3.049.303 3.049.303 6.106 0 3.035-.599 3.035-.599 6.072 0 3.06.473 3.06.473 6.117 0 3.04-.029 3.04-.029 6.077 0 3.08-.245 3.066.48 6.061C.798-3.125.045-1.004 0 0" style="fill:#fddd04;fill-opacity:1;fill-rule:nonzero;stroke:none" transform="translate(210.722 496.267)"/><path d="M0 0c.086-.496.302-4.035.302-7.101 0-3.06.251-3.06.251-6.115 0-3.068.24-3.068.24-6.131 0-3.091-.628-3.091-.628-6.18 0-3.052-.302-3.052-.302-6.103 0-3.037.479-3.037.479-6.077 0-3.058-.04-3.058-.04-6.126 0-3.026.222-3.026.222-6.069 0-3.08-.285-3.08-.285-6.155 0-2.957.183-5.033.468-5.512 1.529-2.598 2.612-.876 5.635-.876 3.046 0 3.046.089 6.097.089 3.046 0 3.046-.066 6.092-.066 3.029 0 3.029.348 6.058.348 3.028 0 3.028.334 6.057.334 3.012 0 3.012-.793 6.029-.793 3.029 0 3.029.559 6.057.559 3.012 0 3.012.556 6.006.556 3.035 0 3.035-1.115 6.075-1.115 2.92 0 3.753-1.488 5.772.627 0 0 .068 2.998.068 6.066 0 3.063.086 3.063.086 6.117 0 3.069.314 3.069.314 6.132 0 3.094-.713 3.094-.713 6.183 0 3.049.405 3.049.405 6.106 0 3.034-.582 3.034-.582 6.072 0 3.06.513 3.06.513 6.117 0 3.04.348 3.04.348 6.077 0 3.08-.239 3.08-.239 6.16 0 2.961.188 6.246.188 6.246-.741.413-3.08.205-6.097.205-3.052 0-3.098.034-6.138.034s-3.262.716-6.308.716c-3.029 0-3.029-.576-6.057-.576-3.035 0-3.035.807-6.058.807-3.017 0-3.017.011-6.023.011-3.034 0-3.034-.045-6.063-.045-3.006 0-3.006-.693-6.006-.693-3.04 0-3.211-.924-6.183-.251C2.903.294-.137.793 0 0" style="fill:#1e4584;fill-opacity:1;fill-rule:nonzero;stroke:none" transform="translate(88.656 496.82)"/></g><g clip-path="url(#b)" transform="matrix(2.15685 0 0 -2.15685 -172.433 1218.006)"><path d="M0 0c14.761-12.243 15.731-44.381 15.731-44.688a.329.329 0 0 0-.331-.351.342.342 0 0 0-.354.331c-.005.305-2.412 31.564-16.934 43.616-4.996 4.144-12.383 5.801-16.626 3.693-.177-.076-.371.1-.388.288-.046.186.222.802.393.879C-12.908 6.295-5.168 4.287 0 0" style="fill:#fff;fill-opacity:1;fill-rule:nonzero;stroke:none" transform="translate(211.811 466.747)"/><path d="M0 0c18.377-13.923 19.067-48.89 19.079-49.24.011-.214-.183-.391-.416-.403-.234-.006-.428.163-.434.38-.006.347-1.717 33.943-19.792 47.637-6.229 4.715-12.343 6.098-21.013 5.955-.234 0-1.22-.048-1.266.163-.034.211-.097.741.137.79C-14.607 7.013-6.422 4.862 0 0" style="fill:#fff;fill-opacity:1;fill-rule:nonzero;stroke:none" transform="translate(208.042 478.101)"/><path d="M0 0c.628-.511 1.899.051 2.869 1.237.953 1.19 1.227 2.564.599 3.063-.622.508-1.905-.048-2.869-1.237C-.359 1.876-.627.502 0 0" style="fill:#fff;fill-opacity:1;fill-rule:nonzero;stroke:none" transform="translate(188.397 464.689)"/><path d="M0 0c.748-.294 1.808.622 2.367 2.05.554 1.421.4 2.809-.347 3.106-.753.288-1.808-.627-2.368-2.053C-.907 1.683-.741.294 0 0" style="fill:#fff;fill-opacity:1;fill-rule:nonzero;stroke:none" transform="translate(176.334 452.514)"/><path d="M0 0c.627-.505 1.911.051 2.869 1.241.964 1.18 1.232 2.561.61 3.063-.633.504-1.911-.052-2.874-1.238C-.354 1.876-.622.508 0 0" style="fill:#fff;fill-opacity:1;fill-rule:nonzero;stroke:none" transform="translate(180.44 456.25)"/><path d="M0 0c.724-.351 1.842.487 2.498 1.865.673 1.377.61 2.778-.114 3.125C1.66 5.335.53 4.497-.12 3.122-.787 1.742-.73.339 0 0" style="fill:#fff;fill-opacity:1;fill-rule:nonzero;stroke:none" transform="translate(183.698 461.863)"/><path d="M0 0c.725-.351 1.848.488 2.504 1.868.65 1.375.605 2.778-.125 3.123-.719.344-1.843-.494-2.505-1.869C-.781 1.742-.73.345 0 0" style="fill:#fff;fill-opacity:1;fill-rule:nonzero;stroke:none" transform="translate(174.258 459.98)"/><path d="M0 0c.719-.354 1.842.479 2.498 1.868.656 1.378.61 2.77-.12 3.114C1.654 5.331.53 4.497-.12 3.123-.781 1.749-.73.345 0 0" style="fill:#fff;fill-opacity:1;fill-rule:nonzero;stroke:none" transform="translate(173.032 453.934)"/><path d="M0 0c.764-.274 1.797.676 2.31 2.116.507 1.437.308 2.826-.451 3.097C1.1 5.481.068 4.532-.439 3.091-.953 1.651-.747.268 0 0" style="fill:#fff;fill-opacity:1;fill-rule:nonzero;stroke:none" transform="translate(172.621 447.737)"/><path d="M0 0c.73-.345 1.854.49 2.509 1.868.656 1.38.599 2.78-.114 3.126-.73.345-1.853-.491-2.521-1.871C-.77 1.745-.725.348 0 0" style="fill:#fff;fill-opacity:1;fill-rule:nonzero;stroke:none" transform="translate(185.94 458.346)"/><path d="M0 0c.588-.554 1.911-.1 2.961 1.021 1.043 1.106 1.42 2.456.838 3-.588.559-1.917.1-2.96-1.012C-.211 1.899-.581.547 0 0" style="fill:#fff;fill-opacity:1;fill-rule:nonzero;stroke:none" transform="translate(177.498 459.533)"/><path d="M0 0c.331-.733 1.728-.81 3.131-.183C4.517.451 5.367 1.56 5.036 2.296c-.336.73-1.722.807-3.119.177C.525 1.836-.325.733 0 0" style="fill:#fff;fill-opacity:1;fill-rule:nonzero;stroke:none" transform="translate(184.542 468.798)"/><path d="M0 0c.325-.733 1.722-.81 3.114-.182C4.506.451 5.367 1.557 5.031 2.29c-.331.727-1.735.81-3.12.177C.519 1.837-.337.73 0 0" style="fill:#fff;fill-opacity:1;fill-rule:nonzero;stroke:none" transform="translate(178.479 465.91)"/><path d="M0 0c.673-.724 2.338-.265 3.702 1.021C5.07 2.313 5.635 3.936 4.951 4.663c-.673.713-2.327.259-3.696-1.03C-.12 2.342-.684.713 0 0" style="fill:#fff;fill-opacity:1;fill-rule:nonzero;stroke:none" transform="translate(180.926 476.487)"/><path d="M0 0c.861-.479 2.304.462 3.217 2.105.912 1.645.958 3.362.091 3.847-.861.479-2.304-.459-3.222-2.105C-.822 2.205-.867.485 0 0" style="fill:#fff;fill-opacity:1;fill-rule:nonzero;stroke:none" transform="translate(164.197 463.66)"/><path d="M0 0c.673-.722 2.339-.265 3.702 1.027 1.375 1.289 1.934 2.917 1.255 3.638-.673.725-2.339.254-3.707-1.026C-.12 2.35-.679.716 0 0" style="fill:#fff;fill-opacity:1;fill-rule:nonzero;stroke:none" transform="translate(169.82 467.526)"/><path d="M0 0c.821-.544 2.333.285 3.359 1.856 1.039 1.569 1.204 3.28.383 3.83-.833.543-2.339-.29-3.371-1.859C-.662 2.253-.833.539 0 0" style="fill:#fff;fill-opacity:1;fill-rule:nonzero;stroke:none" transform="translate(174.731 473.826)"/><path d="M0 0c.827-.547 2.333.282 3.371 1.856 1.026 1.566 1.198 3.277.377 3.825-.828.545-2.339-.285-3.366-1.857C-.662 2.25-.821.542 0 0" style="fill:#fff;fill-opacity:1;fill-rule:nonzero;stroke:none" transform="translate(162.902 473.11)"/><path d="M0 0c.833-.539 2.333.291 3.371 1.859 1.032 1.572 1.204 3.286.377 3.827-.827.551-2.339-.279-3.366-1.856C-.65 2.262-.827.55 0 0" style="fill:#fff;fill-opacity:1;fill-rule:nonzero;stroke:none" transform="translate(160.392 465.938)"/><path d="M0 0c.878-.451 2.287.539 3.154 2.199.873 1.671.856 3.397-.023 3.844C2.253 6.5.838 5.519-.028 3.856-.896 2.182-.878.462 0 0" style="fill:#fff;fill-opacity:1;fill-rule:nonzero;stroke:none" transform="translate(158.875 458.452)"/><path d="M0 0c.827-.545 2.344.285 3.371 1.859 1.032 1.569 1.198 3.28.371 3.822-.822.55-2.333-.283-3.366-1.854C-.656 2.258-.821.542 0 0" style="fill:#fff;fill-opacity:1;fill-rule:nonzero;stroke:none" transform="translate(176.87 469.166)"/><path d="M0 0c.628-.77 2.316-.436 3.776.744 1.46 1.181 2.144 2.761 1.529 3.534-.622.767-2.316.431-3.776-.748C.063 2.353-.622.767 0 0" style="fill:#fff;fill-opacity:1;fill-rule:nonzero;stroke:none" transform="translate(166.78 472.02)"/><path d="M0 0c.279-.949 1.968-1.283 3.77-.735 1.802.533 3.029 1.739 2.744 2.683-.274.952-1.968 1.283-3.765.741C.952 2.153-.285.947 0 0" style="fill:#fff;fill-opacity:1;fill-rule:nonzero;stroke:none" transform="translate(176.922 482.139)"/><path d="M0 0c.285-.952 1.98-1.283 3.776-.738 1.803.533 3.035 1.739 2.744 2.692-.28.944-1.974 1.274-3.765.732C.947 2.15-.279.95 0 0" style="fill:#fff;fill-opacity:1;fill-rule:nonzero;stroke:none" transform="translate(169.033 479.632)"/><path d="M0 0s-24.361 50.11-51.288 12.471c0 0 10.135 25.485 30.823 20.44C.223 27.872 6.667-2.05 6.667-2.05Z" style="fill:#fff;fill-opacity:1;fill-rule:nonzero;stroke:none" transform="translate(225.826 424.962)"/></g><path d="M0 0c-6.354-1.919-16.176 2.159-16.176 2.159s-3.359 1.794-5.515 1.677c-2.162-.123-6.235 1.075-6.714 1.314-.473.24-1.437.719-2.521.6-1.072-.121-2.994.239-2.994.239s-2.516-.479-3.115-.36c-.598.121 3.714 1.68 3.714 1.68 1.323 1.078 2.755.12 2.755.12s5.515-2.398 8.51-1.679c3 .718 5.401 2.039 5.761 2.039 0 0 .479 5.389-2.282 7.434-2.755 2.036-1.677 5.513-1.677 5.513s-2.042 5.872-.599 11.618c0 0 .838 1.324 1.557-1.554 0 0 .519 4.21 1.962 4.09 1.432-.12 1.877-8.282 1.877-8.282s1.363 7.817 2.994 6.111c1.01-1.057-.239-7.668-.239-7.668s3.24 7.286 4.078 5.15c.313-.812.473-3.593-1.443-5.755 0 0 6.856 2.339 5.27-.239-.456-.745-.479-1.195-.479-1.195s2.521-1.56 1.078-1.8c0 0 1.563-1.554.485-2.036 0 0 3.336-4.882 2.857-6.083 0 0 3.851.451 3.611.085-.234-.353-1.072-.838-1.072-.838s2.509-1.078 1.671-1.557c-.833-.479-.114-1.315-.114-1.315s-.126-3.599-1.084-5.036c0 0 9.537-4.067 10.86-4.187 0 0 3.873.476 3.873.12 0-.36-.365-.599-.365-.599l.964-.359-1.078-.123.593-.719s-2.749 0-4.797.842c-2.031.838-7.894 2.27-7.894 2.27s.24-1.078-1.791-.24c0 0 1.312-1.317-1.563-.239L1.683.12Z" style="fill:#fff;fill-opacity:1;fill-rule:nonzero;stroke:none" transform="matrix(2.15685 0 0 -2.15685 233.655 111.186)"/><path d="M0 0c-1.266-1.543-2.127-2.375-3.439-2.817-1.244-.426-2.367-1.001-3.879-2.208-.981-.782-2.498-1.936-3.787-3.388-1.295-1.438-2.784-2.63-3.748-3.417-1.151-.949-2.954-2.731-4.603-4.317-1.705-1.623-2.777-3.16-1.619-5.125 1.146-1.968 4.489-2.048 5.92-3.77 1.164-1.403 1.243-.976-.547-2.635-1.261-1.167-4.398-4.398-.582-4.529-.291-1.258-1.66-2.593-2.601-4.067-1.05-1.634-1.603-3.368-.747-4.58 1.044-1.495 2.852-1.851 4.671-1.506 1.882.357 3.679 1.52 4.712 1.976 1.226.559 3.827 1.538 5.589 3.189 1.78 1.668 2.51 3.773 1.5 5.652-.507.944-.262 2.022-.804 2.995-.41.713-.85 1.659-.918 2.475-.063.753.582 1.48.387 2.233-.319 1.295-1.585 3.42-1.568 4.766.04 1.512 1.192 3.516 2.401 5.547 1.084 1.834 2.288 3.664 3.326 4.976 1.95 2.453 4.209 3.397 3.946 6.588C3.143-.12 1.837 1.378 1.58.562" style="fill:#fff;fill-opacity:1;fill-rule:nonzero;stroke:none" transform="matrix(2.15685 0 0 -2.15685 106.5 170.68)"/><path d="M0 0s-.194.861-.582.767C-.969.668-1.26.382-1.26.382L-1.557 0l-.485-.382s-.484-.288-.484-.579c0-.288.387-.958.387-.958s.451-.077.553-.365c.092-.291.634-.474.868-.391C-.222-2.515.291-1.343 0 0" style="fill:#1e4584;fill-opacity:1;fill-rule:nonzero;stroke:none" transform="matrix(2.15685 0 0 -2.15685 88.23 219.857)"/><path d="m0 0-.052-1.515s-3.69.303-4.716-.604c-1.021-.904-5.978-4.05-.479-7.19 5.498-3.139 9.97.548 10.386 2.419C5.567-5.017 4.78.12 0 0" style="fill:#fff;fill-opacity:1;fill-rule:nonzero;stroke:none" transform="matrix(2.15685 0 0 -2.15685 93.976 37.576)"/></svg>