<svg xmlns="http://www.w3.org/2000/svg" width="784.58" height="659.95" overflow="hidden" viewBox="0 0 784.58 659.95"><linearGradient id="a" x1="1078.1" x2="1236.02" y1="653.084" y2="770.539" gradientTransform="translate(-3613.98 -2031.86) scale(3.4202)" gradientUnits="userSpaceOnUse"><stop offset="0" stop-color="#8FC31F"/><stop offset="0.0888" stop-color="#75BB2A"/><stop offset="0.2791" stop-color="#33AD37"/><stop offset="0.4682" stop-color="#00A33E"/><stop offset="0.6534" stop-color="#009D42"/><stop offset="0.8328" stop-color="#009A43"/><stop offset="1" stop-color="#094"/></linearGradient><linearGradient id="b" x1="522.191" x2="307.559" y1="147.249" y2="281.366" gradientUnits="userSpaceOnUse"><stop offset="0" stop-color="#F8B500"/><stop offset="1" stop-color="#E60020"/></linearGradient><path fill="url(#a)" d="M722.09 477.66c-7.49 2.65-10.52 9.78-18.83 7.98-7.06 6.11-18.37 4.56-26.01 11.62-4.47-1.52-6.95 3.9-11.43 2.4l.38-2.43c15.77-3.81 34.91-15.38 51.51-23.28l-22.81 8.23-.41 1.16-2.22.09c-1.52.41-1.23 1.87-2.08 2.54-19.27 4.05-37.34 11.79-56.57 15.85l.11-.96c1.21-1.37 2.73-1.77 4.41-1.41l.33-2.41c1.54-2.07 3.41-1.46 5.36-1.33 11.49-7.99 27.31-8.84 38.5-16.6-1.65-.36-4.58-2.26-3.87-2l.08 2.96-4.83.88-3.91 1.93c-2.86.99-9.05-.4-7.38-.04l-.45 1.19c-5.08-.59-6.02-2.35-11.59.43l.2 1.97c-3.83.95-6.39 1.75-10.19.98.21-1.44 1.12-2.56 1.72-3.54l-18.69 7.03c-6.74-.97-14.7 8.01-19.03.87 9.71-1.05 33.63-10.23 41.5-13.59-5.35-2.04-26.97 8.25-32.4 8.37l53.39-27.44 38.53-21.37-30.83 5.51 10.98-4.36c13.81-3.89 12.5-8.63 25.8-13.8l1.76-3.55c18.84-9.66 38.72-19.75 56.6-29.49l-4.38-.31c4.38-4.82 13.17-7.63 19.25-12.56-8.78 5.02-19.41 3.78-28.42 9.73l.7-4.8c.18-.96-7.2 2.44-4.89-3.27 3.75-.47 6.11-4.94 9.65-5.67 3.27-2.21 8.65-10.3 13.06-11.67l-2.07-2.61-10.61 5.06-3.01.28c-13.96 3.2-25.23 11.43-40.31 17.2l1.76-3.52c-4.33.91-8.94 3.74-13 3.23 1.04-.43 3.18-3.42 5.35-3.03 7.38-8.51 19.93-2.07 26.75-13.51l22.17-8.19-5.8-1.18c-10.29 1.49-20.67 3.46-29.53 5.51-2.64 1.27-6.18 2.04-3.84 6.08-2.16-2.09-6.25-4.3-8.62.16-6.48-1.19-12.58 7.15-16.96 5.14.12.77 0 1.72-.77 1.91-1.19-.34-3.19.01-4.03-1-.48-1.71 2.17-1.35 3.41-1.46-2.88-3.56-7.35 1.14-9.15 1.61l1.49.28c.73.31.36.99.49 1.74-.85 2.39-1.65 3.04-3.9 3.12-3.24-1.19-5.61-3.52-8.12-1.49l-5.28 4.27c-1.95-3.57-6.4-1.67-8.85-.13l4.4.28.06 1.22c-2.94-.2-2.49 2.04-4.93 1.85.67-1.42-.97-1.74-1.55-3.02l-3.33 2.7c-3.82 2.68-13.13 2.5-15.28 5.53-3.35 1-3.81 2.66-6.68.25-1.82 4.03-6.39.06-9.33 3.29.71.28.36 1 .49 1.72-3.39-.24-5.01-2.79-8.25-.57l3.97.99-.11.95c-6.62 1.54-8.12-1.51-15.48.17-10.73 5.44-23.19 5.55-34.46 7.3l-.06-.45c-21.42 3.78-41.41 6.58-60.23 8.63-.79-.19-1.63-.34-2.47-.46.05.34-.02.52-.07.73-.93.1-1.92.19-2.86.29-.46-.21-.67-.28-.39.02-43.4 4.4-79.98 4.51-110.71 1.99 2.17 6.89 3.74 15.16 4.07 25.07 0 0-77.06-8.21-96.69-44.2l-1.08.03c5.51 22.5 20.5 103.49-29.38 167.4l-49.18-8.16c71.11-59.47 60.73-165.34 60.73-165.34-13.72 41.17-99.42 50.26-99.42 50.26 1.41-40.85 23.42-54.36 23.42-54.36-66.61-2.55-125.36-69.46-125.36-69.46 120.6-49.17 159.98 3.43 159.98 3.43-80.83-117.42 48.9-251.97 48.9-251.97C130.32 69.15 0 200.63 0 361.31c0 157.13 124.51 285.74 281.25 293.62 149.11 17.55 256.68-15.1 312.1-33.97l-.35-3.32 14.52-4.59c12.32-1.86 59.5-19.97 72.13-23.74l-25.33 6.5-21.71 7.24c-4.72-3-12.99 2.81-16.72-.16 4.7 1.31 7.25-7.55 10.37-1.96 5.2-3.77 10.98-6.33 17.16-4.93l.27-1.9 1.24-.18-1.11-4.19c12.52.11 16.14-6.22 27.12-7.4 14.14-5.87 31.93-15.12 45.07-19.34-20.32 4.45-39 14.85-58.94 20.31.41.53 1.3 1.06.86 2.26-1.24.16-1.58-.86-2-1.33-3.05.73-7.16.22-8.33 3.3-8.34-1.79-16.09 9.12-22.25 2.6 24.61-10.45 50.67-14.06 74.79-26.29l-8.06 1.4c2.47-4.94 8.57-4.76 13.12-8.84 8.68-4.03 24.3-6.86 28.9-13.1l-1.46-1.82c3.97-3.61 10.91-5.83 12.85-7.41-4.43 1.88-8.19 2.35-12.56 2.06-18.77 7.5-38.6 18.8-56.25 21.97-11.48 4.58-19.48 8.93-31.71 10.28 3.07-2.47 7.34-6.33 12.1-5.54 10.17-5.64 22.32-9.92 32.06-12.66 21.91-10.44 47.9-16.94 69.27-35.46-6.06 1.11-14.52.24-17.32 5.88-1.87-.57-5.69.39-5.61-1.8 5.98-5.69 13.36-7.41 19.28-12.58l-8.64.13c-15.22 8.45-31.7 11.97-46.17 21.94-12.43-.62-22.53 9.66-33.84 9.85 24.95-11.22 56.57-22.67 80.3-37.11-2.22-1.64-5.07-.62-7.24.7.41.52 1.34 1.1.91 2.28-3.54-.98-7.29 1.2-11.05 1.67l2.1 2.56-.56.44c-1.04-1.27-4.68-.04-3.92-1.95 0 1.71-3.02.77-1.92 3.3l-1.95-.16c-20.32 7.85-39.16 15.82-60.05 22.9 12.09-7.19 23.56-13.45 37.86-17.38 9.04-3.01 17.19-10.01 26.38-12.31 8.2-5.75 9.58-5.18 18.4-8.46-1.17-.31-3.18-1.66-2.68-5.05 2.09-2.54 4.8-2.58 7.06-4.9l-1.85-2.3c4.59-7.95 14.24-8.5 19.7-13.75-12.39 5.69-26.2 9.66-38.71 9.53l-6.79-.49Z"/><path fill="url(#b)" d="M609.8 345.22c-22.14-43.01-78.17-156.2-93.48-185.98h-.04c-6.05-11.99-16.6-10.54-16.6-10.54-9.15.58-13.41 10.22-13.41 10.22l-7.51 19.48c-1.01 1.72-2.18 1.39-2.18 1.39-.98 0-1.55-.56-1.84-.95L439.17 93.5c-5.44-10.53-14.21-9.61-14.21-9.61-9.74-.34-14.69 9.26-14.69 9.26l-6.85 19.19c-1.27 2.15-2.23 2.91-4.04 2.91-1.83 0-2.77-1.83-2.8-1.9L351.67 9.99C345.25-1.99 334.81.15 334.81.15c-11.55.89-15.99 12.88-15.99 12.88l-29.76 58.03c.43.52 2.22 2.27 4.38 4.4 14.85 16.7 105.46 124.53 55.81 226.95 0 0-1.72 3.15-.31 5.7 1.51 2.74 5.51.84 5.51.84 19.87-11.09 59.82-21.51 130.27 6.22 0 0 5.21 1.61 5.45 4.37 0 0 .54 1.97-1.63 5.79-7.48 13.91-27.67 31.98-27.67 31.98s-1.44 1.29-1.44 2.81c0 1.2 1.01 2.44 1.04 2.47 2.21 2.12 7.01 11.73 41.63 13.23 0 0 86.87 3.85 108.23-18.1 2.3-2.72 1.32-7.73-.53-12.5Z"/></svg>