<svg xmlns="http://www.w3.org/2000/svg" width="515.42163pt" height="300pt" fill-rule="evenodd" viewBox="0 0 515.42163 299.99999"><path d="m298.31 539.544 4.233-2.17c1.278-.652 3.363-.652 4.638 0l4.235 2.17c1.274.65 3.358.65 4.636 0l4.23-2.17c1.277-.652 3.363-.652 4.639 0l4.231 2.17c1.275.65 3.364.65 4.638 0l4.233-2.17c1.278-.652 3.363-.652 4.64 0l4.23 2.17c.203.103.434.184.674.256 4.882-4.376 7.828-10.046 7.828-16.245 0-13.839-14.682-25.063-32.794-25.063-18.112 0-32.793 11.224-32.793 25.063 0 6.199 2.956 11.869 7.833 16.245.238-.072.467-.153.669-.256z" style="fill:#e21c2a;stroke:none" transform="matrix(5.44613 0 0 5.44613 -1499.232 -2714.852)"/><path d="M369.924 553.577s-21.189-9.041-47.323-9.041c-26.13 0-47.317 9.041-47.317 9.041z" style="fill:#006eb5;stroke:none" transform="matrix(5.44613 0 0 5.44613 -1499.232 -2714.852)"/><path d="M465.054 206.684h.025l4.392 13.93 5.226.006-5.46-16.17s-.28-2.291-2.539-2.42h-3.264c-2.259.129-2.537 2.42-2.537 2.42l-5.461 16.17 5.226-.006zM480.767 229.211h4.66v-27.218h-4.66zM447.95 229.237v-24.82s-.016-.853-.752-1.597c-.867-.878-1.67-.791-1.67-.791h-5.884c-2.26.128-2.539 2.418-2.539 2.418v24.79l4.364-.004v-22.552h2.405v22.552zM428.98 200.853h-4.657v2.489h-6.412v4.116h3.092a7.31 7.31 0 0 0-1.376 4.287c0 3.972 3.124 7.192 6.979 7.192 3.854 0 6.979-3.22 6.979-7.192a7.296 7.296 0 0 0-1.376-4.287h3.02v-4.116h-6.249zm.802 10.894c0 1.827-1.437 3.309-3.212 3.309-1.773 0-3.211-1.482-3.211-3.309 0-1.829 1.438-3.311 3.211-3.311 1.775 0 3.212 1.482 3.212 3.311zM397.973 212.976h10.364l-.006-4.072h-20.813v-2.948h20.813l.006-4.071H385.25s-.855.018-1.599.751c-.881.867-.791 1.667-.791 1.667v6.139c.126 2.255 2.422 2.534 2.422 2.534h8.033v1.671h-12.69v4.115h8.974a7.264 7.264 0 0 0-1.355 4.227c0 4.04 3.28 7.316 7.325 7.316 4.049 0 7.328-3.276 7.328-7.316a7.255 7.255 0 0 0-1.353-4.227h8.974v-4.115h-12.545zm-2.404 13.36a3.348 3.348 0 0 1-3.35-3.345 3.348 3.348 0 0 1 3.35-3.346 3.348 3.348 0 0 1 3.353 3.346c0 1.847-1.5 3.345-3.353 3.345z" style="fill:#2c2c2b;stroke:none" transform="translate(-275.284 -498.492)"/><path d="M105.175-250.528v-10.469h3.57c1.564 0 2.848.498 3.854 1.495.988.989 1.482 2.25 1.482 3.786a5.28 5.28 0 0 1-.566 2.425 4.947 4.947 0 0 1-1.563 1.833 5.08 5.08 0 0 1-1.738.754c-.503.117-1.123.176-1.859.176zm3.512-2.063c1.007 0 1.78-.273 2.319-.821.54-.538.81-1.296.81-2.274 0-1.04-.284-1.834-.85-2.381-.576-.547-1.421-.821-2.536-.821h-1.052v6.297zM115.626-257.883a5.403 5.403 0 0 1 1.212-1.778 5.337 5.337 0 0 1 1.725-1.117 5.415 5.415 0 0 1 2.047-.391c.727 0 1.415.13 2.061.391.647.251 1.23.628 1.751 1.131.521.521.92 1.104 1.199 1.751.287.655.431 1.351.431 2.087 0 .71-.126 1.387-.377 2.034a5.484 5.484 0 0 1-1.024 1.697 6.137 6.137 0 0 1-1.845 1.279 5.481 5.481 0 0 1-2.209.458 5.28 5.28 0 0 1-2.21-.471 5.489 5.489 0 0 1-1.832-1.32 5.591 5.591 0 0 1-.996-1.684 5.733 5.733 0 0 1-.351-1.993c0-.718.14-1.409.418-2.074zm2.095 3.368c.143.403.363.754.66 1.049.305.314.646.552 1.024.713.376.17.772.256 1.185.256.916 0 1.67-.314 2.263-.942.601-.618.902-1.412.902-2.381 0-.413-.072-.794-.216-1.144a3.373 3.373 0 0 0-.659-.995c-.333-.377-.679-.641-1.037-.794-.351-.152-.769-.229-1.253-.229-.432 0-.817.068-1.158.202-.36.144-.683.368-.971.673a3.2 3.2 0 0 0-.726 1.062c-.154.395-.23.812-.23 1.252 0 .466.072.892.216 1.278zM127.416-250.531v-10.466h2.085l4.306 6.25v-6.25h2.234v10.466h-2.017l-4.358-6.398v6.398zM148.194-256.216c-.081 1.782-.637 3.213-1.67 4.293-1.006 1.044-2.263 1.566-3.772 1.566a5.268 5.268 0 0 1-2.209-.472 5.298 5.298 0 0 1-1.829-1.308 5.75 5.75 0 0 1-.994-1.699 5.737 5.737 0 0 1-.35-1.983c0-.728.139-1.425.417-2.09a5.262 5.262 0 0 1 1.208-1.767 5.018 5.018 0 0 1 1.723-1.147 5.827 5.827 0 0 1 2.128-.377c1.078 0 2.03.275 2.856.823.862.585 1.553 1.453 2.074 2.603h-2.586c-.35-.448-.723-.772-1.118-.969-.368-.18-.808-.27-1.32-.27-.432 0-.817.068-1.158.203a2.702 2.702 0 0 0-.971.674 2.956 2.956 0 0 0-.726 1.065 3.36 3.36 0 0 0-.23 1.254c0 .468.072.899.216 1.295.143.395.363.746.66 1.052.305.305.647.544 1.024.714.377.163.772.243 1.185.243.611 0 1.141-.136 1.589-.408a2.576 2.576 0 0 0 1.038-1.17h-3.126v-2.125zM149.535-250.516v-10.466h2.25v3.961h3.172v-3.961h2.235v10.466h-2.235v-4.365h-3.172v4.365zM160.373-250.531h-2.371l4.136-10.466h1.953l4.136 10.466h-2.452l-1.078-2.802h-3.219zm2.735-7.095-.809 2.168h1.603zM169.096-250.513v-10.484h5.954v2.078h-3.704v2.125h3.704v2.031h-3.704v2.141h3.704v2.109zM188.303-251.145c-.835.556-1.787.835-2.856.835a5.283 5.283 0 0 1-2.209-.471 5.867 5.867 0 0 1-1.842-1.32 5.569 5.569 0 0 1-.995-1.698 5.719 5.719 0 0 1-.349-1.98c0-.727.139-1.418.417-2.074a5.499 5.499 0 0 1 1.222-1.779 5.245 5.245 0 0 1 1.709-1.13 5.453 5.453 0 0 1 2.061-.391c1.086 0 2.047.283 2.883.85.88.586 1.58 1.462 2.1 2.63h-2.491c-.35-.467-.727-.804-1.132-1.01-.386-.189-.844-.283-1.374-.283-.431 0-.822.067-1.171.202-.36.143-.678.368-.957.672a2.927 2.927 0 0 0-.727 1.078 3.257 3.257 0 0 0-.243 1.251c0 .466.072.893.216 1.278.152.404.377.754.673 1.05.305.314.647.551 1.024.714.377.17.772.255 1.185.255.512 0 .961-.099 1.347-.296.387-.198.741-.512 1.065-.943h2.613c-.584 1.15-1.307 2.003-2.169 2.56zM191.768-250.531v-10.466h2.25v10.466zM197.023-250.525v-8.378h-1.954v-2.094h6.141v2.094h-1.953v8.378zM206.991-250.531h-2.25v-3.853l-3.246-6.613h2.506l1.886 4.081 1.858-4.081h2.506l-3.26 6.695z" style="fill:#2c2c2b;stroke:none"/><path d="m298.31 234.044 4.233-2.17c1.278-.652 3.363-.652 4.638 0l4.235 2.17c1.274.65 3.358.65 4.636 0l4.23-2.17c1.277-.652 3.363-.652 4.639 0l4.231 2.17c1.275.65 3.364.65 4.638 0l4.233-2.17c1.278-.652 3.363-.652 4.64 0l4.23 2.17c.203.103.434.184.674.256 4.882-4.376 7.828-10.046 7.828-16.245 0-13.84-14.682-25.063-32.794-25.063-18.112 0-32.793 11.223-32.793 25.063 0 6.199 2.956 11.869 7.833 16.245.238-.072.467-.153.669-.256z" style="fill:#e21c2a;stroke:none" transform="translate(-275.284 -498.492)"/><path d="M369.924 248.077s-21.189-9.041-47.323-9.041c-26.13 0-47.317 9.041-47.317 9.041z" style="fill:#006eb5;stroke:none" transform="translate(-275.284 -498.492)"/><path d="M317.216 342.008h-595.275v-841.89h595.275Z" style="fill:none;stroke:none"/></svg>