<svg xmlns="http://www.w3.org/2000/svg" xmlns:xlink="http://www.w3.org/1999/xlink" width="536.78485pt" height="525pt" viewBox="0 0 536.78484 525.00001"><defs><radialGradient xlink:href="#a" id="d" cx="-116.93253" cy="1983.8046" r="156.18507" fx="-116.93253" fy="1983.8046" gradientTransform="matrix(-1.03928 .62724 -.6011 -.99595 955.295 3965.71)" gradientUnits="userSpaceOnUse"/><linearGradient id="a"><stop offset="0" style="stop-color:#fff;stop-opacity:1"/><stop offset="0.20270406" style="stop-color:#fff;stop-opacity:1"/><stop offset="0.35806602" style="stop-color:#e4f0fa;stop-opacity:1"/><stop offset="0.58009338" style="stop-color:#a4d1f0;stop-opacity:1"/><stop offset="0.79561859" style="stop-color:#71bae6;stop-opacity:1"/><stop offset="1" style="stop-color:#4595d1;stop-opacity:1"/></linearGradient><clipPath id="b"><path d="m569.412 1054.843 2.593-3.557 3.745 2.73-2.593 3.557"/></clipPath></defs><path fill="#fff200" d="m10.655 1264.953-28.09 38.794 93.382-32.627" style="stroke-width:39.7883" transform="translate(286.817 -1086.32)"/><path fill="#ed1b2e" d="m-17.356 1304.502 45.438 18.62h.127l48.104-51.447" style="stroke-width:39.7883" transform="translate(286.817 -1086.32)"/><path fill="#fff200" d="M27.963 1323.878h-.16l-45.199-18.54 57.693 85.347-12.254-66.807h-.096" style="stroke-width:39.7883" transform="translate(286.817 -1086.32)"/><path fill="#ed1b2e" d="M-18.033 1305.693v54.19l57.773 31.275" style="stroke-width:39.7883" transform="translate(286.817 -1086.32)"/><path fill="#fff200" d="m-76.561 1391.161 57.772-31.274v-54.19" style="stroke-width:39.7883" transform="translate(286.817 -1086.32)"/><path fill="#ed1b2e" d="m-64.864 1323.917-12.254 66.723 57.693-85.344" style="stroke-width:39.7883" transform="translate(286.817 -1086.32)"/><path fill="#fff200" d="m-113.127 1271.796 48.064 51.406 45.598-18.7" style="stroke-width:39.7883" transform="translate(286.817 -1086.32)"/><path fill="#ed1b2e" d="m-47.476 1264.953-65.293 6.167 93.384 32.627" style="stroke-width:39.7883" transform="translate(286.817 -1086.32)"/><path fill="#fff200" d="M-18.789 1303.35v-105.6l-28.13 66.765" style="stroke-width:39.7883" transform="translate(286.817 -1086.32)"/><path fill="#ed1b2e" d="M-18.033 1197.75v105.6l28.13-38.835" style="stroke-width:39.7883" transform="translate(286.817 -1086.32)"/><path fill="#b2b4b6" d="M200.564 1277.566H72.924l5.013-5.332 2.07-2.222-3.023-.318-50.292-4.776 8.355-7.084c4.775-4.058 10.584-6.684 16.711-7.678l3.78-.413c15.04-.317 30.2 0 45.24 0h139.696c-5.769 19.735-17.626 27.851-39.907 27.851m-26.897 35.291H39.94l26.022-27.85h143.556c-2.747 17.984-15.319 27.85-35.85 27.85m-35.371 35.294H34.013l-4.457-24.193 3.422-3.658h143.437c-4.058 19.218-15.955 27.851-38.117 27.851m-77.309 36.047 13.807 6.684c-6.764 9.59-26.857 31.195-58.41 38.555l-3.54-51.167 26.896 14.562 2.747 1.524-.559-3.08-6.565-35.691h66.725zm29.96 6.287-1.51 3.62c-17.945 42.814-38.357 54.47-61.991 68l-3.302 1.874c-20.65 11.895-36.407 27.213-42.574 33.62-6.167-6.407-21.963-21.763-42.534-33.62l-3.302-1.874c-23.635-13.53-44.046-25.186-61.99-68l-1.512-3.62-9.947 4.855 1.632-28.69 23.595 16.395-9.55 4.656 1.792 3.381c4.098 7.878 28.05 38.835 70.027 46.592l4.098.762 4.496-64.498 23.236-12.57 23.476 12.732 4.456 64.298 4.138-.794c41.818-7.798 65.651-38.672 69.75-46.512l1.79-3.382-9.549-4.655 23.595-16.395 1.632 28.69zm-182.707-34.894h19.575l-6.565 35.691-.555 3.08 2.746-1.524 27.176-14.68-3.581 51.327c-31.672-7.281-51.844-28.966-58.648-38.596l13.806-6.685-41.101-28.606zm-83.357-7.44c-22.162 0-34.059-8.633-38.117-27.85h143.437l3.422 3.657-4.456 24.193h-12.136zm-71.221-63.145h143.556l26.022 27.851h-133.729c-20.53 0-33.104-9.866-35.85-27.85m-30.954-35.292h183.185c8.157 0 16.035 2.89 22.242 8.154l8.355 7.085-50.292 4.775-3.023.318 2.07 2.223 5.014 5.331h-127.641c-22.282 0-34.139-8.116-39.908-27.85m229.34 15.276h.476l28.051 38.752-93.344-32.586zm29.165 40.705v54.19h-.318l-57.454 31.116zm-46.513 17.23-47.825-51.13 93.661 32.706-45.597 18.7zm.397 1.301.032-.317 45.438-18.62-57.693 85.343zm18.183-60.16 27.932-66.327v105.558l-28.09-38.793zm-20.73-87.694c-4.416 0-8.037-3.62-8.037-8.075 0-4.417 3.621-8.037 8.038-8.037H31.588c3.979.476 7.082 3.858 7.082 7.957l-.031.413-1.353 4.18-3.263 2.73-3.382.762h-39.27l3.302 47.668-11.698-27.771-1.353-3.265-1.394 3.265-11.38 26.974 3.263-46.871zm19.537-53.076c0-16.274 13.21-29.525 29.523-29.525 16.273 0 29.483 13.25 29.483 29.525l-.397 4.693-2.985-3.54-3.501-2.731c-.835-11.778-10.624-21.13-22.6-21.13-12.533 0-22.72 10.187-22.72 22.72 0 12.492 10.187 22.679 22.72 22.679 4.695 0 9.072-1.429 12.692-3.9l4.417 5.214c-4.854 3.462-10.743 5.49-17.11 5.49-16.312 0-29.522-13.209-29.522-29.483m37.64 12.851-8.117 2.381c-8.435 0-15.279-6.842-15.279-15.238 0-8.437 6.844-15.239 15.279-15.239 7.6 0 13.926 5.611 15.04 12.93l-4.178 2.16-3.78 7.36 1.035 5.65m25.027 8.157 2.309 2.73 2.546 3.017 2.309 2.7h-8.793c-5.292-6.247-10.584-12.534-15.876-18.78l-.359-.444-.797-2.414 1.194-2.318 2.15-.762h.476l2.109 1.112 1.073 1.301 4.934 5.811 2.588 3.112 2.546 3.017zm25.624 9.628 15.199 17.985c2.864 3.423 4.258 7.757 3.86 12.215l-.254 1.842-.19-.35-6.367-4.972-1.83-3.302-4.973-5.887.318-3.144c0-8.475-6.884-15.4-15.319-15.48l-1.908-3.261-1.273-1.524c4.735 0 9.43 2 12.732 5.887m-1.473 27.495 3.262-2.794 2.388 2.826-.317.318-2.985 2.54zm1.352 15 1.75 2.954h-.597c-4.456-.35-8.475-2.477-11.38-5.89l-8.156-9.628h9.271l5.013 5.928 2.706 2.191 1.394 4.497m-57.654 107.266 28.051-38.752h.476l64.816 6.129zm45.598 19.538h-.127l-45.439-18.62 93.662-32.706-47.825 51.13zm-46.234-19.934V1197.88l27.931 66.327.159.444zm57.772 87.852-57.454-31.115h-.317v-54.19zm-57.136-85.862 45.2 18.541h.19l.096.413 12.215 66.407zm63.86-71.54 2.985 9.272c-7.042 1.365-13.687 4.496-19.217 9.151l-13.887 11.815-5.093-.476-7.639-18.264-4.297-61.393h12.812l12.215 14.445c4.178 4.931 9.987 7.957 16.433 8.475h2.07l3.342-.318 3.462 6.008-1.67 2.7c-2.944 5.766-3.462 12.291-1.512 18.42m18.064 8.516h-7.48l-3.462-10.784c-1.273-3.861-.994-7.84.397-11.339l2.747 4.734 3.342 3.582zm-1.75-35.215 1.909 3.344 3.143 5.49 1.153 1.937.438 1.588-1.67 2.984-2.547.318c-3.302-.953-15.238-25.943-18.541-30.16l1.273-4.455 1.67-.444h.877l1.273.667.756.92 2.667 4.576 1.95 3.423 1.911 3.223 1.87 3.261zm8.714 21.805.835-.571 4.496 13.968H72.33l-3.939-12.257 3.103-1.143m5.61-17.347a16.59 16.59 0 0 1 8.276 9.748l6.764 21.009h-7.48l-6.366-19.856-1.433-2.699-1.432-5.61-2.308-4.018 3.979 1.43M99.9 1242.24l-.254-.826-7.201-22.44c-1.95-6.125-6.208-11.14-11.937-14.083a23.88 23.88 0 0 0-11.936-2.667l-4.616-7.958c4.655-8.513 3.9-19.338-2.705-27.136l-15.2-18.023c-6.087-7.202-15.517-9.908-24.151-7.837l-5.292-6.288c1.235-3.66 1.95-7.598 1.95-11.697 0-20.412-16.592-36.965-36.964-36.965-20.411 0-37.003 16.553-37.003 36.965 0 12.015 5.81 22.757 14.762 29.483h-26.818c-8.554 0-15.517 6.963-15.517 15.518 0 8.592 6.963 15.556 15.517 15.556h31.592l-4.217 60.636-8.038 19.02-5.053.477-13.886-11.815c-7.56-6.367-17.149-9.908-27.056-9.908h-192.695l1.073 4.576c4.695 20.45 14.682 32.11 31.672 36.326 1.99 20.173 13.807 32.983 33.104 36.247 4.257 24.31 19.217 36.167 45.836 36.167h32.189l-2.944 52.003 14.284-6.963c18.542 42.137 39.51 54.152 63.622 67.959l3.262 1.873c25.027 14.404 43.33 34.856 43.49 35.094l2.825 3.144 2.785-3.185c.159-.317 18.263-20.57 43.489-35.053l3.262-1.873c24.112-13.807 45.08-25.822 63.622-67.96l14.284 6.964-2.944-52.003h32.189c26.618 0 41.579-11.856 45.796-36.167 19.338-3.264 31.155-16.074 33.144-36.247 16.99-4.216 26.977-15.876 31.672-36.326l1.073-4.575" style="stroke-width:39.7883" transform="translate(286.817 -1086.32)"/><path fill="#fff" d="M30.787 1152.828c8.475 0 15.319 7.002 15.319 15.518l-.318 3.112 5.014 5.928 1.83 3.303 6.325 4.934.19.35.287-1.842c.358-4.455-.994-8.793-3.9-12.175l-15.199-18.023c-3.262-3.861-7.997-5.89-12.732-5.89l1.315 1.524 1.87 3.261M36.159 1189.754l-5.013-5.928h-9.27l8.157 9.666c2.864 3.423 6.923 5.493 11.38 5.849h.555l-1.712-2.985-1.394-4.496-2.705-2.191" style="stroke-width:39.7883" transform="translate(286.817 -1086.32)"/><path fill="#fff" d="m-31.163 1223.254 11.38-26.978 1.352-3.26 1.394 3.26 11.658 27.775-3.302-47.668h39.27l3.383-.762 3.302-2.731 1.353-4.179.032-.413c0-4.099-3.102-7.48-7.122-7.957h-98.994c-4.456 0-8.076 3.623-8.076 8.04 0 4.455 3.62 8.075 8.077 8.075h39.55M-18.43 1152.828c6.405 0 12.294-2.064 17.108-5.531l-4.376-5.211a22.559 22.559 0 0 1-12.733 3.937c-12.533 0-22.679-10.183-22.679-22.72 0-12.491 10.146-22.678 22.68-22.678 11.976 0 21.803 9.351 22.599 21.129l3.502 2.699 2.984 3.54.439-4.696c0-16.27-13.25-29.521-29.523-29.521-16.274 0-29.523 13.25-29.523 29.521 0 16.274 13.25 29.525 29.523 29.525" style="stroke-width:39.7883" transform="translate(286.817 -1086.32)"/><path fill="#fff" d="m8.029 1136.357-4.934-5.848-1.073-1.27-2.07-1.112h-.477l-2.188.794-1.153 2.318.756 2.413.359.445 2.467 2.89c4.496 5.292 8.953 10.624 13.448 15.876h8.754l-2.308-2.7-2.547-3.016-2.309-2.73-1.552-1.842-2.547-3.017M44.236 1181.676l.318-.317-2.388-2.858-3.263 2.794 2.347 2.794 2.984-2.54M72.327 1242.268h4.496l-4.496-13.965-.877.54-3.064 1.143M76.863 1219.752l1.432 2.7 6.366 19.855h7.48l-6.764-21.009a16.47 16.47 0 0 0-8.276-9.748l-3.979-1.429 2.308 4.017 1.433 5.61M57.127 1197.353l-1.95-3.423-2.667-4.576-.797-.92-1.235-.636h-.876l-1.67.445-1.274 4.496h.032c5.093 8.793 10.146 17.585 15.239 26.381l1.194 2.096.914 1.048 1.153.571 2.547-.35 1.632-2.952-.439-1.62-1.114-1.937-3.183-5.49-1.909-3.302-1.87-3.264-1.87-3.223M56.73 1224.925l-2.747-4.735a16.745 16.745 0 0 0-.397 11.34l3.461 10.783h7.48l-4.456-13.806-3.342-3.582M-109.745 1277.566l-4.973-5.332-2.07-2.222 2.984-.318 50.293-4.776-8.356-7.084a34.443 34.443 0 0 0-22.242-8.154h-183.185c5.809 19.735 17.666 27.85 39.908 27.85M65.96 1285.047l-26.02 27.851h133.728c20.53 0 33.104-9.866 35.85-27.851h-8.954M93.335 1249.75H55.536l-3.78.412a34.209 34.209 0 0 0-16.711 7.681l-8.356 7.082 50.293 4.775 2.984.318-2.07 2.19-4.973 5.37h127.64c22.242 0 34.1-8.154 39.908-27.85H97.393M32.976 1320.3l-3.422 3.66 4.456 24.19h104.325c22.123 0 34.06-8.633 38.078-27.85h-2.705M-76.76 1312.857l-26.022-27.851h-143.556c2.746 18.023 15.318 27.85 35.81 27.85M-77.198 1348.148h6.366l4.457-24.19-3.422-3.662h-143.437c4.058 19.218 15.955 27.852 38.117 27.852h92.15M75.669 1383.045l9.55 4.655-1.792 3.382c-4.098 7.84-27.97 38.675-69.788 46.512l-4.099.794-4.456-64.298-23.515-12.733-23.196 12.574-4.497 64.495-4.098-.762c-41.976-7.757-65.93-38.714-70.027-46.592l-1.791-3.382 9.51-4.655-23.555-16.432-1.632 28.686 9.907-4.814 1.552 3.62c17.945 42.814 38.357 54.47 61.99 68l3.263 1.874c20.571 11.857 36.407 27.213 42.574 33.62 6.167-6.407 21.923-21.725 42.573-33.62l3.303-1.874c23.634-13.53 44.045-25.225 61.99-68l1.512-3.62 9.946 4.814-1.632-28.686" style="stroke-width:39.7883" transform="translate(286.817 -1086.32)"/><g clip-path="url(#b)" transform="matrix(39.78834 0 0 39.78834 -22628.451 -41565.15)"><clipPath id="c"><path d="M570.736 1054.768c.03.54.77.887 1.818 1.013l-.086-.165c-.05-.385.768-.854 1.995-1.207l-.16-.098-.082-.047c-.493-.283-.932-.534-1.33-1.187-1.345.404-2.192 1.019-2.155 1.691"/></clipPath><g clip-path="url(#c)"><path d="M-272.969 1896.762c-47.033 9.437-41.492 65.304-41.582 100.402 18.173 48.26 85.704 53.716 130.488 52.89 86.766-41.096 127.052 25.535 105.87-34.847-11.638-10.704 96.431-105.235 72.337-123.46-66.263-50.125-238.04 5.285-267.113 5.015z" style="fill:url(#d);fill-opacity:1;stroke-width:53.0511" transform="matrix(.01885 0 0 .01885 575.93 1017.354)"/></g></g><path fill="#2d3982" d="M-130.713 1566.27c3.421 8.316 4.376 9.748 8.037 18.502 12.613 3.42 26.022 5.929 40.584 6.923-2.07-10.066-2.546-11.46-4.496-21.726-16.274.317-30.279-1.27-44.125-3.7" style="stroke-width:39.7883" transform="translate(286.817 -1086.32)"/><path fill="#325c8e" d="M-71.349 1569.254c1.432 10.584 1.473 12.654 2.985 23.038 9.151 0 17.069 0 27.295-1.08-.439-13.05-.718-17.15-1.036-25.705-10.543 1.937-19.257 2.858-29.244 3.74" style="stroke-width:39.7883" transform="translate(286.817 -1086.32)"/><path fill="#007994" d="M-26.11 1589.427c7.321-.984 13.687-2.35 22.282-4.178 0 0 2.864-17.865 5.133-30.874a404.335 404.335 0 0 1-25.226 7.28c-.915 12.296-2.188 27.772-2.188 27.772" style="stroke-width:39.7883" transform="translate(286.817 -1086.32)"/><path fill="#009897" d="M18.772 1548.046c-2.906 13.368-4.417 20.173-7.162 33.224 12.175-3.461 19.774-6.325 19.774-6.325s9.828-28.89 12.613-37.8c-6.286 3.048-18.78 8.513-25.225 10.901" style="stroke-width:39.7883" transform="translate(286.817 -1086.32)"/><path fill="#71b75b" d="M50.84 1567.346c1.792-.794 14.563-6.446 21.248-10.028 6.127-15.597 9.867-26.857 15.597-42.293a451.452 451.452 0 0 1-21.804 11.657c-5.292 14.96-9.59 25.784-15.04 40.664" style="stroke-width:39.7883" transform="translate(286.817 -1086.32)"/><path fill="#99ca3c" d="M93.215 1545.458c3.223-1.873 9.59-6.049 13.926-8.913 7.72-17.188 13.29-30.08 20.531-46.872-5.332 3.703-10.504 7.202-15.597 10.505-6.684 16.156-11.738 28.806-18.86 45.28" style="stroke-width:39.7883" transform="translate(286.817 -1086.32)"/><path fill="#b3d334" d="M145.458 1506.785c12.175-19.776 32.348-55.981 32.348-55.981l-12.017 10.425s-19.177 32.109-30.676 54.428l10.345-8.872" style="stroke-width:39.7883" transform="translate(286.817 -1086.32)"/><path fill="#2d3982" d="M-151.92 1535.275c3.859 9.948 7.679 19.258 11.618 28.886.031 0 18.979 5.014 43.488 5.69a2472.464 2472.464 0 0 1-7.28-32.309c-16.832.89-32.906 0-47.827-2.255" style="stroke-width:39.7883" transform="translate(286.817 -1086.32)"/><path fill="#515799" d="M-88.737 1536.31c1.87 11.54 3.7 22.36 5.65 33.541 9.39-.413 19.178-.92 29.125-2.477a4441.173 4441.173 0 0 1-1.908-36.484c-11.18 2.413-22.162 4.258-32.865 5.41" style="stroke-width:39.7883" transform="translate(286.817 -1086.32)"/><path fill="#7b619d" d="M-36.495 1527.994c-.19 12.892-1.511 24.272-1.632 36.764 7.4-1.588 14.96-3.112 22.6-5.293 1.59-13.29 3.979-26.02 5.53-39.826a375.586 375.586 0 0 1-26.499 8.355" style="stroke-width:39.7883" transform="translate(286.817 -1086.32)"/><path fill="#b5689d" d="M10.416 1511.237c-2.747 14.683-6.525 28.928-9.111 43.131 7.36-2.508 14.443-5.014 22.002-8.078 4.059-15.477 9.709-31.274 13.886-47.268-.597.317-18.501 8.754-26.777 12.215" style="stroke-width:39.7883" transform="translate(286.817 -1086.32)"/><path fill="#dd7790" d="M62.42 1484.345c-5.69 17.627-12.335 34.894-18.065 51.765l5.85-2.763c5.53-2.667 10.901-5.449 16.233-8.313 6.525-18.064 15.876-38.634 22.4-57.534-7.957 5.131-18.103 12.095-26.419 16.83" style="stroke-width:39.7883" transform="translate(286.817 -1086.32)"/><path fill="#2d3982" d="m-113.047 1587.16 5.61 12.972a153.127 153.127 0 0 0 13.767 4.534 371.845 371.845 0 0 0 16.472 3.702l8.992 1.398c-.517-1.779-3.262-12.613-4.178-17.548-15.517-.507-27.612-2.317-40.663-5.051" style="stroke-width:39.7883" transform="translate(286.817 -1086.32)"/><path fill="#2a4e91" d="M-57.145 1592.212c.915 3.74 2.547 12.095 3.86 18.859 8.316.412 16.79.317 25.464-.318-.438-6.643-1.073-13.686-1.59-20.929-8.515 1.366-18.263 1.906-27.733 2.318" style="stroke-width:39.7883" transform="translate(286.817 -1086.32)"/><path fill="#145b9d" d="M-12.383 1587.04c-.438 8.513-.597 15.12-.914 22.36a248.463 248.463 0 0 0 19.973-3.34c1.394-6.208 3.502-17.191 4.934-24.79-4.894 1.365-15.796 4.258-23.992 5.77" style="stroke-width:39.7883" transform="translate(286.817 -1086.32)"/><path fill="#1e68a0" d="M31.384 1574.945c-1.632 5.77-5.49 16.87-8.713 27.295a285.916 285.916 0 0 0 17.308-5.332c3.74-11.1 7.918-21.763 10.862-29.562-4.178 1.937-15.597 6.205-19.457 7.599" style="stroke-width:39.7883" transform="translate(286.817 -1086.32)"/><path fill="#2f3a79" d="m-139.984 1579.003 3.66 5.97c6.207 4.296 12.852 8.074 19.855 11.339l-4.655-11.143c-5.451-1.143-18.86-6.166-18.86-6.166" style="stroke-width:39.7883" transform="translate(286.817 -1086.32)"/><path fill="#f79552" d="M113.826 1449.09c-7.997 20.887-17.07 43.089-25.027 62.944a443.075 443.075 0 0 0 14.841-10.066c8.833-20.97 21.804-47.865 30.757-69.988-5.69 4.655-14.603 12.654-20.571 17.11" style="stroke-width:39.7883" transform="translate(286.817 -1086.32)"/><path fill="#fdb932" d="M173.429 1399.636s-24.032 53.752-36.605 80.016c3.899-3.344 11.976-10.466 11.976-10.466l42.295-89.485" style="stroke-width:39.7883" transform="translate(286.817 -1086.32)"/><path fill="#3183b1" d="M71.73 1558.55c-4.377 10.784-8.952 20.77-13.767 31.512a306.153 306.153 0 0 0 19.337-8.871c5.133-11.581 15.319-33.542 15.319-33.542s-4.576 2.7-20.89 10.901" style="stroke-width:39.7883" transform="translate(286.817 -1086.32)"/><path fill="#0097c5" d="M96.399 1570.766s9.31-5.69 13.886-8.713c5.928-10.028 14.761-25.981 21.008-38.397-4.894 3.382-14.761 9.79-14.761 9.79" style="stroke-width:39.7883" transform="translate(286.817 -1086.32)"/><path fill="#58b6dd" d="m162.566 1500.143-33.86 48.7 12.096-9.866 34.536-49.697" style="stroke-width:39.7883" transform="translate(286.817 -1086.32)"/><path fill="#2f3a79" d="M-140.302 1564.161a142.52 142.52 0 0 1-10.504-3.08 196.61 196.61 0 0 1-11.778-4.258l-7.878-3.42 12.295 17.147c9.708 5.69 25.703 11.1 25.703 11.1s-4.337-8.792-7.838-17.505" style="stroke-width:39.7883" transform="translate(286.817 -1086.32)"/><path fill="#2f3a79" d="M-151.005 1560.7c-4.099-9.193-7.878-17.985-11.977-27.492-9.589-2.033-29.682-8.237-45.478-22.282l26.22 36.803s4.815 2.572 11.778 5.728l7.878 3.423c3.62 1.429 7.56 2.858 11.778 4.258l-.19-.444" style="stroke-width:39.7883" transform="translate(286.817 -1086.32)"/></svg>