<svg xmlns="http://www.w3.org/2000/svg" xml:space="preserve" id="레이어_1" x="0px" y="0px" style="enable-background:new 0 0 1840 418.5" version="1.1" viewBox="0 0 1840 418.5"><style>.st0{fill:#00524c}</style><path d="M179.6 180.3h-55.1v101.5H0v55.1h332.9v-55.1H179.6zM240.2 145.3c0 14-5.3 28.1-16 38.8l38.9 38.9c21.5-21.5 32.2-49.6 32.2-77.7V32H37.6v55h202.7v58.3zM1784.9 10.1h55.1v372.3h-55.1zM1658.8 156.6c-10-10-16.2-23.8-16.2-39v-75h-55.1v75c0 15.2-6.2 29-16.2 39l-85.5 79.6 39 39 85.5-79.6c1.6-1.6 3.2-3.4 4.7-5.2 1.5 1.8 3.1 3.5 4.7 5.2l85.5 79.6 39-39-85.4-79.6zM557.8 103.4c0-54.1-45-98-100.6-98-55.6 0-100.6 43.9-100.6 98s45.1 98 100.6 98c55.6 0 100.6-43.8 100.6-98zm-100.6 43.8c-24.2 0-43.8-19.6-43.8-43.8 0-24.2 19.6-43.8 43.8-43.8 24.2 0 43.8 19.6 43.8 43.8 0 24.2-19.6 43.8-43.8 43.8z" class="st0"/><path d="M651.6 5.3h-55.1v210.8c-12.5-5.9-26.5-9.4-41.2-9.4-53.2 0-96.3 43.1-96.3 96.3s43.1 96.3 96.3 96.3c51.1 0 92.9-39.9 96-90.3h.3V174.6H724v-55.1h-72.5V92.7H724v-55h-72.5V5.3zm-96.4 339c-22.8 0-41.2-18.5-41.2-41.2 0-22.8 18.5-41.2 41.2-41.2s41.2 18.5 41.2 41.2c.1 22.7-18.4 41.2-41.2 41.2zM744.5 191.4h357v55.1h-357zM802.2 270v52.4h186.3v18.4h.1c0 14-5.4 28.1-16.1 38.8l38.9 38.9c21.5-21.5 32.2-49.6 32.2-77.7V270H802.2zM1039.4 120.9H862.5v-16.7H1032V60.7H862.5V43.1h176.9V0H806.5v168.3h232.9zM1405.8 10.3h55.1v372.1h-55.1zM1338.1 84.1h-46.4v55.1h46.4V166h-46.4v55h46.4v138.3h52.5V18.2h-52.5zM1190.3 245v-49.9h80.8V52.4h-135.9v51h80.8v40.7h-80.8v156s106.4 4.6 161-13.5l-8.9-50.8c0-.1-41.4 9.2-97 9.2z" class="st0"/></svg>