<svg xmlns="http://www.w3.org/2000/svg" width="758" height="472" overflow="hidden"><defs><clipPath id="a"><path d="M-1 142h758v472H-1z"/></clipPath></defs><g fill-rule="evenodd" clip-path="url(#a)" transform="translate(1 -142)"><path fill="#004998" d="M247.433 198.135C138.939 132.539 16.485 168.148.416 271.34c0 0-15.385 64.176 55.273 103.249l8.376 3.464s57.894 28.737 140.689-33.451c0 0 110.146-63.437 95.901 110.916 0 0-1.938 11.358-1.938 11.472 0 .795-.741 2.158.798 2.84 1.538.738 2.336-1.136 2.564-1.534l12.593-23.228c49.632-88.596 16.753-195.309-67.239-246.933Z"/><path fill="#009475" d="M526 143.167c-6.769-.455-13.823.114-20.763.569-75.148 5.002-134.708 62.47-144.208 134.32-6.087 80.718-3.697 123.066-49.434 189.914l-1.308 1.762c-.683 1.136-.114 2.558 1.365 2.217.739-.171 2.048-1.251 2.048-1.251C415.925 389.753 495.793 272.599 526 143.167Z"/><path fill="#009475" d="m402.505 502.711-4.206-3.519s-24.498-25.034-85.145-2.782c0 0-69.741 21.004-36.888-77.996 0 0 .739-1.817.795-2.328.171-1.589-1.08-2.27-2.33-2.043-.568.056-1.876 1.419-2.274 1.873l-6.081 6.641c-41.209 43.256-39.788 108.765 0 150.601 51.666 54.382 126.353 52.963 151.476-3.462-.057-.114 18.813-34.287-15.347-66.985Z"/><path fill="#FACE00" d="M693.604 146c-73.715 0-148.568 54.192-183.719 115.201-70.416 107.247-100.505 158.258-185.141 210.008 0 0-1.195.738-1.536 1.079-.569.682.114 1.818 1.024 1.704.17 0 .967-.284.967-.284C497.769 409.575 645.825 298.749 756 155.373c-19.282-6.419-40.953-9.373-62.396-9.373Z"/></g></svg>