<svg xmlns="http://www.w3.org/2000/svg" xml:space="preserve" width="424.99026" height="372.1828" viewBox="0 0 424.99026 372.18279"><path d="M1491.963 2329.12c.382 11.745-3.262 21.066-2.88 32.069.059 1.484-9.622 12.413-13.624 12.56-1.375.037-13.84-1.748-15.425-1.726-3.725.096-20.456 1.763-30.02 1.741-4.407 0-15.651.88-22.446 1.454-1.183.125-18.877-2.034-20.324-1.96-10.341.36-24.576 1.997-28.61 2.467-3.804.44-30.613-3.077-36.666-3.415-6.904-.382-12.325.888-18.862 1.894-7.213 1.08-58.724-3.415-60.083-3.415-1.6 0-5.685-1.88-5.604-3.533.11-2.365-3.415-13.956-2.181-16.762 3.093-7.08 2.96-21.366 2.747-28.851-.278-9.504 1.197-18.267 2.68-28.859.728-5.104.78-18.325 1.558-24.855.448-3.665.051-9.85.037-13.472-.06-14.307 1.381-25.648 2.886-40.11.8-8.05 3.944-36.549 4.113-44.798.037-1.505.272-2.52.61-3.306l1.25-6.697s-2.138-2.564 1.703-8.117c0 0 1.293-5.09 8.095-6.375l3.827 1.285 7.13-.543 3.1-.742 2.072.47c9.086-.661 23.71-2.483 26.391-2.483 3.129.015 16.107 1.366 19.413 1.366 3.128 0 25.817-.779 29.145-.8 3.167-.037 15.917.595 19.105.573 3.297-.023 48.623-1.447 51.745-1.5 3.291-.058 29.256.17 32.075.118 2.58-.044 9.91 3.468 14.64 3.548-.029.809 6.765 11.09 6.882 12.142 1.388 10.885-.55 8.064.925 16.445 2.337 13.207-1.99 29.638 1.103 40.765.8 2.857 6.507 49.462 6.816 52.231 1.63 15.123 4.208 18.061 4.076 33.17 0 1.61-.44 12.296-.397 14.073.06 1.888 2.923 12.076 2.997 13.948z" style="fill:#1959a6;fill-opacity:1;fill-rule:nonzero;stroke:none" transform="matrix(1.33333 0 0 -1.33333 -1564.33 3167.684)"/><path d="M1311.51 2343.56c-2.99.625-5.987 1.25-8.984 1.867.11-3.401.206-6.802.22-10.218 2.828-.125 5.641-.315 8.455-.55.125 2.982.242 5.906.308 8.902zM1256.678 2353.3c.721-4.171 1.425-8.329 2.108-12.471 3.585.271 7.117.514 10.68.69-.756 4.099-1.484 8.249-2.218 12.398-3.527-.22-7.051-.396-10.57-.617zM1281.005 2317.317c.382-3.107.792-6.162 1.154-9.232 2.944.058 5.883.095 8.805.11-.431 3.055-.851 6.11-1.285 9.166-2.85-.021-5.772-.021-8.675-.044zM1462.06 2352.647c-.697-3.71-1.314-7.397-1.96-11.099 3.458-.911 6.86-1.8 10.282-2.762.574 3.71 1.19 7.39 1.793 11.062-3.394.962-6.744 1.873-10.115 2.799zM1424.527 2339.044c.338-2.615.669-5.267 1.006-7.889 2.527.06 5.031.081 7.537.081a779.08 779.08 0 0 0-1.065 7.874c-2.49-.01-4.988-.029-7.478-.065zM1455.282 2312.99c.294-2.636.646-5.288.969-7.903 2.54.037 5.024.074 7.521.104-.367 2.6-.728 5.229-1.064 7.844a847.57 847.57 0 0 0-7.426-.044z" style="fill:#fff;fill-opacity:1;fill-rule:nonzero;stroke:none" transform="matrix(1.33333 0 0 -1.33333 -1564.33 3167.684)"/><path d="M1275.422 2271.285c.273-.3.574-.58.86-.83" style="fill:#b8a96d;fill-opacity:1;fill-rule:nonzero;stroke:none" transform="matrix(1.33333 0 0 -1.33333 -1564.33 3167.684)"/><path d="M1335.998 2303.318c-.559 2.24-5.641-.073-8.903-.61-1.998-.324-4.745-1.49-6.625-1.704-2.372-.243-6.148-1.351-7.36-3.724-.72-1.417 1.38-1.99 2.314-2.483 1.689-.888 3.46-1.873 4.158-3.797.66-1.8.705-3.966 1.043-5.862.433-2.24.72-4.517 1.197-6.749.419-2.086-.192-4.327.3-6.28.515-2.087 1.881-5.56 2.417-7.162.955-2.829.757-2.93 1.66-3.225 2.968-1.035 6.148-.227 9.945-.602 1.969-.176 3.871-1.278 6.464-1.535 2.144-.213 10.026-.536 12.317-.78 2.189-.212 4.458-.25 6.765-.498 2.212-.22 4.495.462 6.772.228 2.33-.228 4.702-.456 7.038-.698 2.29-.243 4.59-.286 6.83-.536 2.233-.22 4.303-1.47 6.434-1.667 2.278-.228 4.606.5 6.787.272 1.123-.119 2.226-.229 3.35-.346 2.651-.272 5.347-.697 8.006-.67 1.285.024 2.29-.6 3.48-1.042 1.47-.564 2.997-.903 4.526-1.139 1.38-.218 2.114-.946 3.239-1.607 1.183-.705 2.123-.382 3.04.61.456.522.661 1.115 1.058 1.666.382.551.912 1.058 1.212 1.668.31.61.265 1.344.368 1.998.316 2.108.587 4.171.697 6.294.08 1.153-.132 2.1.191 3.246.345 1.14.852 2.204.926 3.394.154 2.057.116 4.143.272 6.185.19 2.314-.015 4.429.117 6.324.258 3.467 1.894 7.242.146 7.396-.419.037-1.857.133-4.854 1.271-1.785.683-3.798.477-5.663.816-.963.168-1.69.69-2.578 1.006-1.043.346-2.256-.191-3.32-.243-1.057-.037-1.822-.75-2.827-1.123-.677-.265-1.595-.28-1.853-1.161-.271-.977.912-1.417 1.367-2.042.529-.727.58-1.99.793-2.865.44-2.034.926-4.12 1.33-6.17.133-.66.301-1.351.322-2.026.067-1.991-.095-2.946-.153-4.532-.118-2.564-2.938-1.014-3.32-1.881-.264-.705-.118-1.733-3.723-1.763-6.656-.08-12.98.53-15.551.845-3.136.36-6.919.198-6.501 1.579.464 1.477-5.552-.726-7.85-.536-2.293.17-4.379.037-6.568.227-2.438.214-3.57.25-5.713.595-2.594.434-7.742-.33-10.357.97-1.117.551-4.913.874-5.163.926-2.954.514-1.727 4.414-3.636 9.277-1.183 3.091.278 4.59-.948 7.653-1.22 3.159-1.138 2.997-2.24 6.2-.933 2.768-.574 4.134-1.175 6.412zM1333.088 2219.21c-.983 1.594-1.967 3.18-2.907 4.795-.853 1.426-1.323 3.283-2.94 3.776-1.557.456-3.091 1.102-4.288 2.217-.78.758-1.264 1.992-1.682 2.997-.493 1.11.587 2.256 1.102 3.248.433.836 1.101 1.483 1.917 1.96 1.116.654 2.71 1.037 3.958 1.234 2.3.39 4.65.133 6.927.625.97.199 2.35.807 3.327.315 0-.014.91-.352.91-.352 1.264-.69 1.227-2.145 1.536-3.438.338-1.505 1.66-3.32 1.85-4.861.141-.926.192-2.432 1.043-3.049.61-.455 1.639-.227 2.358-.227 2.902-.01 5.73.47 8.63.58 2.887.102 5.716.669 8.58.88.882.074 1.748-.249 2.55.2 1.137.609 2.063 1.755 3.032 2.622.683.61.999.61.874-.418-.153-1.154 3.607-1.25 4.151-1.161 2.189.271 4.385.674 6.58.999 1.823.264 3.761.278 5.532.786 1.064.307 2.107.969 2.563 2.02.676 1.512-.352 2.922-.463 4.42-.153 2.138 2.372 2.703 3.967 3.086.911.19 1.894.779 2.85.684 1.307-.09 2.71-.948 3.899-1.5 1.433-.623 2.865-1.27 4.275-1.946 1.865-.859 5.466-1.351 7-2.24 2.255-1.271 3.358-2.24 3.093-3.21-.338-1.249-.947-4.503-1.476-6.758-.42-1.785-.515-3.797-1.103-5.45-.874-2.592-.153-2.674-2.328-4.076-2.762-1.785-4.099-.874-8.256-1.226-1.924-.155-6.111-.573-8.652-.779-2.13-.192-4.128-.69-6.537-.86-2.233-.184-4.51 0-6.83-.184-2.256-.16-4.857.457-7.141.295-2.263-.17-4.502-.2-6.706-.33-2.182-.14-4.341-.236-6.411-.383-2.256-.133-4.466-.97-6.493-1.08-2.542-.138-4.76-.25-6.655-.286-3.13-.11-7.558.697-8.197.888-1.139.368-1.734 2.446-3.439 5.186z" style="fill:#fff;fill-opacity:1;fill-rule:nonzero;stroke:none" transform="matrix(1.33333 0 0 -1.33333 -1564.33 3167.684)"/><path d="M1384.204 2295.385c-.478.859-1.199 1.674-1.72 2.453-.764 1.19-1.726 2.086-3.04 2.578-1.154.42-2.432.073-3.607-.022-1.499-.132-3.68-.742-5.17-.375-.619 0-2.8.543-3.483.529-1.292-.397-.572-1.029-1.138-3.334-.742-3.152-.17-10.71-.91-13.839-.699-2.864-1.646-4.605-2.329-7.492-.706-2.887.455-7.095-.044-9.9-.588-3.115-.698-3.027-1.102-6.17-.426-3.093-2.468-2.806-2.88-5.92-.41-3.151.456-3.366.046-6.51-.406-3.127-.705-3.062-1.11-6.154-.397-3.07-1.058-9.29-1.477-12.442-.418-3.129-1.645-2.879-2.048-6.016-.419-3.114 1.593-3.378 1.196-6.493-.403-3.107-3.004-8.954-3.415-11.935-.419-3.416-.713-6.479-.382-9.842.55-5.9-2.717-8.955-3.357-13.912-.382-2.953 1.91-3.262 1.528-6.185-.375-2.901-3.261-3.343-.904-5.347 2.843-2.409 3.476-1.506 7.28-1.535 3.341-.045 8.408-1.088 10.877.852 2.52 1.975.492 4.223.97 7.213.47 3.122.243 2.901.697 5.985.486 3.056-.36 3.189.14 6.243.45 3.02 2.101 9.014 2.579 12.135.455 3.085 1.005 3.027 1.461 6.09.47 3.12-.153 3.619.323 6.749.479 3.1-2.094 1.667-1.63 4.782.456 2.996.433 2.996.904 5.993.455 3.063-.413 3.255.044 6.302.47 2.96 2.85 13.685 3.32 16.637.41 2.681.454 4.217.94 6.896.543 3.152.08 2.675.69 5.84.624 3.188.646 2.453 1.27 5.656.596 3.07 1.095 3.489 1.683 6.544.617 3.152.044 3.49.654 6.64.623 3.129 1.057 2.395 1.644 5.502.287 1.373.537 2.755.802 4.135.206 1.08.47 2.167.705 3.232.25 1.153.77 2.218.425 3.415-.103.36-.256.683-.432 1.022z" style="fill:#fff;fill-opacity:1;fill-rule:nonzero;stroke:none" transform="matrix(1.33333 0 0 -1.33333 -1564.33 3167.684)"/><path d="M1380.905 2297.889a.072.072 0 0 1 .023.059c0-.015 0-.037-.023-.059z" style="fill:#1959a6;fill-opacity:1;fill-rule:nonzero;stroke:none" transform="matrix(1.33333 0 0 -1.33333 -1564.33 3167.684)"/><path d="M1277.877 2189.792c.77.265 1.688.192 2.503.229 1.345.044 2.505-.229 3.82-.354 1.814-.198 3.658.147 5.422.295 7.249.557 14.556.682 21.82.646 4.225-.028 8.462-.133 12.687-.221 2.092-.044 7.616-.272 9.783-.322 2.056-.044 4.267.169 6.39.11 2.122-.06 4.385-.55 6.544-.625 2.064-.074 4.136-.61 6.243-.69 2.086-.074 3.849.557 5.972.484 2.152-.044 4.708-.874 6.89-.97 2.071-.08 4.142.793 6.191.699 2.139-.096 4.232-.574 6.34-.64 2.137-.103 4.892.941 7.02.852 2.058-.095 3.468-.286 5.436-.344 2.094-.096 4.129.36 6.142.271 2.077-.117 4.164.11 6.227.036 2.116-.117 7.94-1.277 9.976-1.372 2.188-.096.484-.376 2.54-.486 2.013-.117 3.968-1.027 5.862-1.13 2.042-.09 4.04 1.146 5.89 1.05 1.64-.081 3.21-.918 4.834-.86 1.226.03 2.387.463 3.657.478 2.901.036 5.898-.265 8.785-.081 2.028.139 3.563.58 5.465-.654 3.019-1.975 2.064-5.891 2.064-8.866 0-1.761-.456-3.715-.699-5.522-.36-2.784-.073-4.064-2.086-5.612-2.526-1.924-2.35-1.823-6.375-1.786-1.857.023-2.467 2.278-4.914 2.314-11.318.155-17.709 2.902-29.636 1.61-3.776-.397-12.017-1.72-15.492-1.654-2.196 0-4.34-.66-6.339-.675-2.27.037-4.45.647-6.39.638-2.32 0-4.377.42-6.11.39-3.203-.044-5.613 1.476-6.141 1.358-9.034-2.064-18.113.61-27.456.573-11.37-.036-19.53-1.784-30.967-1.857-2.188-.022-4.817-2.189-6.815-2.189-2.072-.03-6.567.977-8.352.977-2.167-.01-3.944.066-5.575.066-3.57 0-2.564-.978-4.627 1.027-2.585 2.49-1.426 2.145-2.585 5.862-.661 2.048-2.203 4.01-3.306 5.862-.735 1.233-1.491 2.473-2.181 3.737a11.03 11.03 0 0 0-.903 2.014c-.06.198-.897 1.828-.839 1.916.625 1.088 1.72 2.483 2.807 3.187.147.096.302.17.478.229z" style="fill:#fff;fill-opacity:1;fill-rule:nonzero;stroke:none" transform="matrix(1.33333 0 0 -1.33333 -1564.33 3167.684)"/><path d="M1447.37 2250.889c-1.102 1.175-2.108 2.49-3.775 2.87-.97.243-1.873-.042-2.814 0-2.938.223-2.907-.38-3.693-2.886-.478-1.475-1.065-2.864-1.381-4.37-.493-2.29-1.22-4.318-1.932-6.522-.86-2.557-.668-5.56-1.88-8.02-1.204-2.395-2.733-4.686-3.894-7.163-3.613-7.777-3.555-15.762-6.449-23.371-1.101-2.872-1.697-2.674-2.805-5.56-1.102-2.938-.5-3.152-1.617-6.096-1.351-3.643-9.724-12.884-3.892-13.787 2.05-.309 12.082.433 14.133.205 2.548-.242 5.068 3.174 6.602 5.031 1.345 1.588 1.77 3.945 2.453 5.803.683 1.822 1.645 3.62 2.335 5.546.699 1.82 1.756 3.6 2.425 5.465.742 1.946 1.763 3.775 2.475 5.729.69 1.895 1.249 3.834 1.924 5.655.72 1.983.368 4.26 1.051 6.148.683 1.874 2.653 3.26 3.261 5.002.683 1.94.228 4.098.8 5.788.734 2.124 2.94 5.596 3.483 7.191.675 2.203 2.108 4.179 3.29 6.17.301.478 1.234 1.571 1.131 2.13-.184 1.036-2.6 2.086-3.32 2.856-.735.743-1.139 1.558-2.041 2.226-1.837 1.382-4.29 2.277-5.87 3.96z" style="fill:#fff;fill-opacity:1;fill-rule:nonzero;stroke:none" transform="matrix(1.33333 0 0 -1.33333 -1564.33 3167.684)"/><path d="M1450.485 2244.667c-1.25 1.785-5.993 3.665-7.308 5.31-2.064 2.564-5.06 3.975-5.708 2.866-1.557-2.763-1.197-2.63-2.299-5.576a.112.112 0 0 1-.059-.095c-3.034-7.947-7.492-15.308-11.09-23.02-3.586-7.683-3.52-15.557-6.376-23.1-1.1-2.85-1.69-2.644-2.754-5.487-1.103-2.902-.515-3.115-1.609-6.023-1.338-3.606-9.623-12.728-3.857-13.625 2.013-.33 11.951.411 13.977.198 2.513-.241 4.996 3.13 6.516 4.973 1.322 1.55 1.756 3.886 2.432 5.708.675 1.806 1.623 3.621 2.312 5.516.684 1.792 1.713 3.533 2.388 5.391.734 1.902 1.764 3.737 2.453 5.655.697 1.866 1.228 3.797 1.896 5.597.735 1.961.382 4.216 1.057 6.075.683 1.858 2.622 3.225 3.233 4.935.66 1.91.22 4.063.778 5.73.734 2.108 2.916 5.523 3.422 7.11.919 2.836 4.481 7.749 4.481 8.262-.03 1.227-2.293 1.227-3.885 3.6z" style="fill:#cbbe53;fill-opacity:1;fill-rule:nonzero;stroke:none" transform="matrix(1.33333 0 0 -1.33333 -1564.33 3167.684)"/><path d="M1309.482 2190.285c-.514 1.866-1.103 3.783-1.645 5.795-.5 1.872-.397 3.9-.925 5.84-.522 1.82-1.396 3.599-1.926 5.442-.55 1.938-.44 4.01-1.027 5.942a2448.562 2448.562 0 0 1-10.563 35.8c-1.115 3.628-.624 5.582-3.547 6.992-2.028 1.022-4.025-.155-6.104.434-2.07.587-3.863.771-6.044.924-1.823.156-3.666-.109-5.466.2-1.719.3-3.18 1.175-4.965.843-1.242-.257-1.741-1.534-2.901-2.005-1.014-.396-2.66-.88-2.247-2.284.477-1.564 6.551-4.833 7.198-6.845.543-1.63 1.284-3.394 1.938-5.274.64-1.828 3.181-9.703 3.922-11.708.676-1.901 3.042-5.678 3.761-7.588.661-1.864 2.571-7.403 3.246-9.262.734-1.954 2.94-4.436 3.644-6.36.72-1.873 1.688-8.976 2.424-10.834 1.27-3.393 3.224-13.53 8.174-13.89 2.072-.168 9.528.477 11.657.118 2.248-.397 2.123 4.891 1.396 7.72z" style="fill:#fff;fill-opacity:1;fill-rule:nonzero;stroke:none" transform="matrix(1.33333 0 0 -1.33333 -1564.33 3167.684)"/><path d="M1304.664 2187.633c-.493 1.873-1.102 3.79-1.631 5.788-.507 1.858-.412 3.9-.94 5.824-.5 1.836-1.39 3.622-1.924 5.465-.543 1.933-.456 4.018-1.029 5.92a2242.24 2242.24 0 0 1-10.548 35.808c-1.138 3.642-.624 5.589-3.561 6.999-3.137 1.588-2.976-.36-6.436.41-3.87.897-3.62-.072-7.492.803-3.723.829-7.557.984-9.32.344.133-1.101-.603-2.696.102-5.104.456-1.564 1.97-3.174 2.616-5.187.551-1.623 1.307-3.377 1.954-5.273.617-1.844 3.174-9.71 3.908-11.723.682-1.895 3.04-5.663 3.753-7.573.653-1.865 2.562-7.418 3.267-9.262.721-1.931 2.94-4.435 3.644-6.353.72-1.865 1.704-8.997 2.41-10.842 1.284-3.408 3.26-13.544 8.182-13.896 2.078-.154 9.518.493 11.664.11 2.233-.382 2.108 4.914 1.38 7.742z" style="fill:#cbbe53;fill-opacity:1;fill-rule:nonzero;stroke:none" transform="matrix(1.33333 0 0 -1.33333 -1564.33 3167.684)"/><path d="M1274.38 2186.002c.404.602 1.976-.557 5.713-.198 14.742 1.389 25.82 1.293 40.51.955 2.085-.059 7.594-.28 9.769-.339 2.055-.044 4.252.17 6.382.111 2.137-.051 4.384-.551 6.559-.61 2.057-.073 4.128-.61 6.215-.697 2.1-.06 3.878.55 5.993.478 2.158-.06 4.715-.875 6.89-.97 2.063-.073 4.15.756 6.199.713 2.107-.09 4.23-.567 6.339-.661 2.123-.074 4.891.946 7.021.858 2.035-.096 3.452-.272 5.428-.322 2.086-.104 4.136.351 6.148.25 2.079-.09 4.15.125 6.2.029 2.13-.112 7.954-1.272 10.004-1.381 2.158-.074.477-.36 2.52-.455 2.032-.104 3.987-1.043 5.86-1.124 2.034-.09 4.062 1.137 5.92 1.027 2.035-.11 3.98-1.476 5.802-1.557 2.74-.154 5.546-.036 8.3-.073 1.741-.037 3.468-.037 5.201.095 1.263.096 2.711.434 3.79-.425 3.29-2.674 1.469-10.048 1.006-13.537-.374-2.777.669-2.38-1.36-3.937-2.54-1.91-1.541-1.36-5.551-1.285-1.852.02-4.032.11-6.479.146-11.347.132-17.702 2.894-29.623 1.594-3.76-.395-12.03-1.703-15.49-1.668-2.21.016-4.342-.638-6.368-.66-2.255.037-4.437.639-6.375.639-2.3 0-4.37.404-6.111.39-3.19-.045-5.597 1.467-6.127 1.358-9.05-2.064-18.134.61-27.456.588-6.772-.037-13.456-.793-20.155-1.345-3.091-.241-6.133-.278-9.107-.896-3.202-.66-6.581.081-9.842-.587-1.066-.22-1.991-.699-3.1-.699-1.308-.015-2.636.472-3.944.443-2.175-.01-3.945.072-5.561.072-3.577-.022-2.579-.955-4.634 1.036-2.571 2.468-1.433 2.144-2.593 5.846-.684 2.13-.669 4.694-1.286 6.838-.778 2.762-3.533 8.704-2.607 9.96z" style="fill:#cbbe53;fill-opacity:1;fill-rule:nonzero;stroke:none" transform="matrix(1.33333 0 0 -1.33333 -1564.33 3167.684)"/><path d="M1384.24 2349.863c.102-.11.213-.191.323-.308.992-1.059 1.69-2.424 2.696-3.512a115.854 115.854 0 0 0 3.577-4.054c1-1.16 2.578-2.13 3.826-3.07 1.667-1.263 2.578-3.086 3.894-4.62.719-.83 1.453-1.528 1.99-2.446.573-1.058 1.189-2.196 1.954-3.114.742-.94 1.41-1.778 1.476-2.998.065-1.395-.565-2.923-1.389-3.98-.94-1.19-1.439-2.615-2.291-3.849-.47-.669-.984-1.543-1.617-2.093-.425-.39-.983-.455-1.527-.647-2.276-.756-4.385-1.932-5.927-3.093-3.078-2.327-3.415-2.327-5.097-2.599-2.416-.375-6.81-.985-10.233-1.212-2.622-.183-4.039.022-6.874 1.101-2.88 1.08-5.531 2.05-7.683 2.997-1.043.463-2.042 1.844-2.917 3.974-.91 2.1-3.267 7.903-2.71 8.954.948 1.785 5.826 8.895 6.39 9.938 1.066 1.99 4.084 3.356 5.98 4.48.829.492 1.8.83 2.577 1.366.92.646 1.235 1.836 1.595 2.843.573 1.638.985 3.342 1.52 5.017.11.3.411.601.603.851.227.353.455.699.682 1.036.081.125.081.228.118.368.06.19.176.381.279.587.162.323.324.64.574.926.176.198.403.33.6.514.288.3.559.705 1.044.705.199.022.404 0 .595 0 .228 0 .478.022.72-.023.117-.02.308-.015.456-.095.073-.059.14-.147.227-.227.309-.192.587-.383.897-.515.483-.257.837-.617 1.174-.999.352-.404.705-.823 1.08-1.197.404-.397.962-.661 1.418-1.007z" style="fill:#fff;fill-opacity:1;fill-rule:nonzero;stroke:none" transform="matrix(1.33333 0 0 -1.33333 -1564.33 3167.684)"/><path d="M1379.517 2352.933v.01" style="fill:none;stroke:#ccbd53;stroke-width:.75;stroke-linecap:round;stroke-linejoin:round;stroke-miterlimit:4;stroke-dasharray:none;stroke-opacity:1" transform="matrix(1.33333 0 0 -1.33333 -1564.33 3167.684)"/><path d="M1388.558 2329.326c-.33 2.38-1.953 4.686-3.988 5.883-2.151 1.234-5.186.177-7.498.01-2.028-.132-4.32-.397-6.016-1.653-.67-.514-1.403-1.248-2.138-2.24-1.498-1.939-2.278-3.62-2.358-4.95-.08-1.903.816-3.225 1.785-4.73.793-1.265 1.19-2.58 2.644-3.203 2.006-.852 4.017-.308 6.053-.095 2.32.249 4.319.55 6.367 1.821 2.315 1.425 4.026 3.724 4.95 6.36.287.904.332 1.86.2 2.799z" style="fill:#1959a6;fill-opacity:1;fill-rule:nonzero;stroke:none" transform="matrix(1.33333 0 0 -1.33333 -1564.33 3167.684)"/><path d="m1397.226 2332.845-2.998 3.225-2.033 1.967c-.037.103-7.345 8.359-9.828 11.128l-2.85 3.768c-.55.955-1.13 1.829-2.027 1.902-.911.073-1.514-.624-2.49-1.784l-2.22-2.468c-1.08-1.088-8.974-6.522-11.677-8.182-3.085-1.888-4.789-3.07-5.362-4.261 0 .03-2.388-3.665-2.388-3.665l-4.018-6.258c-.263-.478-.785-1.498 2.66-9.754 1.043-2.431 2.144-3.893 3.43-4.459l6.588-2.6 1.11-.404c2.908-1.116 4.48-1.344 7.287-1.167l10.274 1.226c1.897.308 2.425.455 5.495 2.755a20.95 20.95 0 0 0 5.678 2.952c4.546 1.557 5.37 4.311 6.523 8.132l.211.674a7.75 7.75 0 0 1 .302 2.124c0 1.718-.573 3.54-1.667 5.149m-13.303-5.957c-.895-1.925-1.77-2.807-3.972-4.18-2.513-1.49-5.06-2.071-7.661-1.682-.984.03-2.182.28-3.608.756-1.704.478-2.701 1.036-3.07 1.587-1.821 1.939-2.658 3.798-2.49 5.56.067 1.33.845 3.005 2.322 4.951.741 1 1.46 1.719 2.138 2.226 1.865 1.343 4.84 1.858 7.654 1.498 4.127-.529 12.118-5.78 8.687-10.716zM1321.395 2234.443c.632 1.021 1.961 1.513 3.137 1.557.86.028 1.71-.169 2.607-.06.911.088 1.8.265 2.703.42 1.83.315 3.57 1.226 5.319.338.94-.493 1.35-1.476 1.593-2.469.345-1.498 1.653-3.311 1.843-4.869.243-1.528 1.205-4.025 2.689-4.048 3.489-.023 7.287.193 10.709.684 2.116.286 3.885 1.042 6.096 1.233 3.511.25 6.831.78 10.313.668 3.754-.116 7.646 1.192 11.436 1.368.742.029 4.876-.346 5.126.645.603 2.27 2.168 4.129 2.528 6.47.206 1.236-.065 2.969.845 3.969 1.484 1.66 3.304.279 4.95-.405 1.756-.742 3.767-1.668 5.721-2.578 1.896-.882 5.488-1.373 7.015-2.247 2.248-1.272 3.35-2.234 3.1-3.218-.33-1.256-.94-4.502-1.47-6.772-.433-1.77-.527-3.797-1.1-5.429-.89-2.622-.17-2.68-2.351-4.083-2.733-1.785-4.084-.874-8.25-1.227-1.916-.153-5.809-.955-8.335-1.16-2.138-.17-4.451-.31-6.86-.493-2.22-.168-4.496.016-6.83-.168-2.242-.16-4.85.455-7.141.28-2.242-.17-4.495-.17-6.684-.325-2.188-.153-4.363-.25-6.427-.38-2.27-.148-4.48-.962-6.493-1.096-2.52-.116-4.76-.227-6.655-.272-2.563-.073-6.184-1.46-8.402.442-1.674 1.44-2.131 3.847-3.232 5.633-1.822 2.997-3.694 5.957-5.296 9.093-.867 1.69-1.476 3.54-2.181 5.296-.456 1.19-.603 2.277-.022 3.202zM1331.95 2300.225c-.566 2.218-5.655-.074-8.916-.61-1.976-.337-4.738-1.513-6.626-1.704-4.281-.456-3.716-1.939-2.857-4.436.353-1.028 1.536-3.114 2.085-5.942.362-1.822 1.66-10.166 2.123-12.244.42-2.086-.19-4.356.302-6.28.528-2.079 1.866-5.575 2.425-7.169.953-2.843.748-2.901 1.644-3.231 2.967-1 6.155-.222 9.96-.588 1.968-.184 3.864-1.285 6.463-1.528 2.16-.213 10.034-.56 12.318-.787 2.181-.227 4.46-.263 6.764-.505 2.175-.213 4.526.476 6.78.242 2.329-.242 4.672-.471 7.022-.699 2.292-.264 4.592-.287 6.846-.536 2.21-.22 4.298-1.476 6.412-1.667 2.3-.25 4.62.493 6.795.265 2.32-.243 11.362-1.154 13.404-1.366 2.446-.243 4.554-.866 6.367-1.043 3.174-.302 5.21.102 5.766.096 3.894-.023 4.048.63 3.997 4.208-.022.91-1.087 3.1-.911 6.184.132 1.866 1.322 3.805 1.476 6.001.154 2.035.125 4.136.264 6.162.207 2.322 0 4.43.133 6.325.25 3.474 1.88 7.235.147 7.404-.419.029-1.851.146-4.87 1.27-1.579.64-4.459.808-6.185 1.293-1.917.543-3.643 1.851-5.082 1.873-1.47.016-1.131-3.004-1.322-5.906-.111-1.703.088-9.305.176-11.09.073-1.94-.118-2.924-.169-4.517-.11-2.55-1.021-2.167-1.991-2.454-.705-.205-3.4-.543-6.999-.397-2.013.081-11.51.397-13.97.574-2.242.16-4.533.837-6.868 1.006-2.292.198-4.805-.654-7.11-.493-2.3.2-4.363.067-6.566.243-2.418.205-4.746.668-6.89 1.02-2.6.42-6.581-.152-9.182 1.162-1.108.55-4.936.867-5.163.925-2.975.514-1.712 3.783-3.643 8.66-1.183 3.092.285 4.583-.919 7.675-1.249 3.151-1.168 2.983-2.248 6.185-.94 2.762-.593 4.127-1.181 6.42z" style="fill:#cbbe53;fill-opacity:1;fill-rule:nonzero;stroke:none" transform="matrix(1.33333 0 0 -1.33333 -1564.33 3167.684)"/><path d="M1380.963 2297.933c.06.206.11.396.17.602.537 2.057-2.006 1.77-3.452 1.998-1.367.206-2.615.486-4.017.493-1.506.022-2.631.756-4.099.867-1.748.154-3.556.02-5.318.037-.735 0-1.498.139-1.932-.507-.345-.566-.25-1.742-.382-2.373-.756-3.136-.176-10.709-.896-13.83-.699-2.873-1.654-4.613-2.35-7.485-.7-2.901.462-7.096-.053-9.901-.572-3.13-.705-3.048-1.087-6.185-.418-3.085-2.481-2.82-2.879-5.919-.396-3.144.456-3.343.036-6.508-.418-3.107-.69-3.07-1.123-6.148-.382-3.07-1.028-9.299-1.462-12.45-.419-3.115-1.63-2.88-2.035-6.03-.41-3.079 1.58-3.342 1.176-6.472-.39-3.107-2.99-8.953-3.386-11.935-.433-3.416-.727-6.47-.403-9.85.572-5.898-2.712-8.947-3.358-13.918-.404-2.91 1.916-3.247 1.52-6.171-.366-2.9-3.246-3.357-.88-5.34 2.849-2.402 3.458-1.513 7.272-1.534 3.34-.052 8.387-1.095 10.891.837 2.506 1.99.478 4.216.948 7.226.471 3.102.235 2.889.69 5.98.507 3.063-.352 3.172.147 6.23.434 3.017 2.086 9.026 2.564 12.154.477 3.064-.176 3.027.28 6.134.462 3.078.11 3.297.587 6.398.455 3.114-1.176 1.983-.677 5.068.456 3.01.412 3.01.867 5.993.457 3.056-.41 3.246.044 6.318.471 2.974 2.866 13.682 3.334 16.657.406 2.674.457 4.194.963 6.867.537 3.151.066 2.683.67 5.84.645 3.21.645 2.469 1.27 5.657.593 3.076 1.087 3.48 1.69 6.536.623 3.159.035 3.504.645 6.67.625 3.099 1.043 2.372 1.667 5.486.574 2.945 1.051 5.943 1.625 8.895.24 1.22.454 2.431.733 3.613z" style="fill:#cbbe53;fill-opacity:1;fill-rule:nonzero;stroke:none" transform="matrix(1.33333 0 0 -1.33333 -1564.33 3167.684)"/><path d="M1236.23 2179.363c-1.844 15.902-2.578 24.355-5.223 42.226-.286 1.83-1.329 25.377-1.968 30.438-1.162 9.049-3.724 18.943-4.922 26.648l.074.544c.896 4.267.742 29.828.742 29.828l-.052 6.375-2.012 16.189-.97 2.982-.022 2.975-1.654 25.56c-.037 2.96-1.21 4.458-2.666 5.178.015.133.015.28.015.404-.587.066-1.182.088-1.77.132-.426.067-.83.088-1.189.088-5.825.36-11.554 2.85-17.21 3.453-2.108.212-13.067-1.116-13.264-1.102-4.679 0-8.389-3.357-8.785-4.906-.478-1.954-2.315-9.373-2.086-11.29.286-2.718 6.162-22.454 6.294-26.075.353-9.24 1.044-12.545.992-20.456-.023-.624 2.717-20.015 2.755-20.646.322-12.803 5.17-34.36 9.092-61.759.64-4.516.868-14.006 2.344-28.124.212-2.144 1.505-23.908 1.77-25.912 1.174-8.448 2.35-11.598 3.379-22.778.998-2.651 8.446-3.848 12.588-3.335 3.518.442 10.74-1.556 14.537-1.402 2.659.11 4.2 4.891 7.066 4.737-.2 11.18 3.385 19.185 2.144 30.027zM1472.322 2121.256c.206 3.775.213 4.841.264 6.023.03 1.079 1.138 6.067-5.098 5.627-2.467-.163-26.661-1.873-29.77-1.8-2.812.08-31.01 1.872-34.249 1.931-3.055.065-14.52-1.513-17.65-1.44-2.982.06-27.991.984-31.18 1.028-3.122.053-6.287-1.196-9.372-1.145-3.298.066-6.522 1.52-9.828 1.557-3.188.028-14.793-1.82-17.988-1.792-3.13.037-16.328.977-19.538.977-3.195.044-24.304 1.219-31.143 1.293-6.015.072-12.611-.625-18.626-.772-1.771-.065-17.063 2.47-20.928 1.72-2.32-.456-4.648-.683-6.874-.808l-4.583.322-5.53.852s-.802-.587-1.778-1.388c-1.477-.095-2.49-.287-2.902-.741-.455-.508-.484-1.484-.33-2.785-.023-.059-.073-.125-.097-.197l1.28-16.166.16-.354c.457-3.812 1.66-10.158 3.137-10.158 1.101 0 2.144-.162 3.13-.375 1.989-1.476 4.956-3.136 8.902-4.004 1.159-.623 2.217-1.078 3.136-1.05 2.688.06 21.058-1.042 24.187-.983 2.99.095 16.151 2.608 19.45 2.732 17.076.477 24.554-1.292 28.006-.756 9.027 1.454 52.076-2.071 53.98-1.69 2.547.477 21.153 1.117 24.553 1.175 3.019.044 12.863 1.69 16.16 1.764 5.185.095 10.328-.948 17.613-1.72 13.17-1.431 20.405-.44 37.357-.323 3.716.052 14.977-.837 17.29.089 4.003 1.595 11.172 16.657 11.914 20.536.426 2.506-3.202.338-3.055 2.821z" style="fill:#c5b8a5;fill-opacity:1;fill-rule:nonzero;stroke:none" transform="matrix(1.33333 0 0 -1.33333 -1564.33 3167.684)"/></svg>