<svg xmlns="http://www.w3.org/2000/svg" xml:space="preserve" width="612.14532" height="480.70898" viewBox="0 0 612.14532 480.70899"><path d="M0 0c0 15.842-12.825 28.677-28.652 28.677-15.853 0-28.656-12.835-28.656-28.677 0-1.04.046-2.068.162-3.083A1016.384 1016.384 0 0 0-1.341-8.677 28.321 28.321 0 0 1 0 0" style="fill:#008c44;fill-opacity:1;fill-rule:nonzero;stroke:none" transform="matrix(1.33333 0 0 -1.33333 485.638 413.863)"/><path d="M0 0c-3.696-11.587-14.512-19.988-27.312-19.988-14.791 0-26.943 11.209-28.494 25.581-175.966 12.766-307.082-22.9-307.082-22.9 254.604-54.339 459.109 0 459.109 0C63.408-9.624 31.196-4.009 0 0" style="fill:#008c44;fill-opacity:1;fill-rule:nonzero;stroke:none" transform="matrix(1.33333 0 0 -1.33333 483.85 425.432)"/><path d="M0 0c-3.696-11.587-14.512-19.988-27.312-19.988-14.791 0-26.943 11.209-28.494 25.581A1015.42 1015.42 0 0 0 0 0" style="fill:#fff;fill-opacity:1;fill-rule:nonzero;stroke:none" transform="matrix(1.33333 0 0 -1.33333 483.85 425.432)"/><path d="m0 0-.046-.037-.115-.068-.208-.093c0-.012-.879-.681-1.433-1.12 5.13-2.784 8.504-7.417 9.058-12.605l1.133-10.769c0-.022.3-4.102.461-5.789 7.442 5.293 9.614 7.51 9.636 7.534l.232.23c2.774 2.38 4.297 5.661 4.297 9.255 0 3.535-1.433 7.117-4.089 10.376C10.305 7.393.417.3 0 0" style="fill:#005bab;fill-opacity:1;fill-rule:nonzero;stroke:none" transform="matrix(1.33333 0 0 -1.33333 244.453 258.713)"/><path d="M0 0c-.276-.312-23.315-28.469-23.94-67.627 0 0-.091-1.687-.091-3.882 0-8.572 3.374-30.605 36.233-51.045.139-.092 12.593-8.32 34.478 3.721 0 0 15.32 8.352 15.759 8.596-.046.576-1.665 13.933-1.665 13.933l-.276 2.405c0 .09.046.53.046.53S59.25-81.213 58.95-78.325C39.285-89.58 24.634-93.772 19.133-88.909c-.183.093-17.793 15.76-10.283 35.252.117.403 14.536 44.262 41.34 43.42 3.653-.22 7.996-1.225 10.123-.937 4.343.591 8.503 2.751 10.397 10.261.347 1.362.765 3.513.765 5.928 0 4.99-1.827 11.657-10.423 14.985.093.022-2.195.854-6.123 1.467C54.604 21.536 23.894 27.739 0 0" style="fill:#005bab;fill-opacity:1;fill-rule:nonzero;stroke:none" transform="matrix(1.33333 0 0 -1.33333 134.15 175.325)"/><path d="M0 0c-5.222-.486-9.983-2.888-13.032-6.621a14.449 14.449 0 0 1-3.374-8.445C-7.832-9.946.164-4.597 6.169-.415 4.529.208 2.08.186 0 0" style="fill:#ed1c24;fill-opacity:1;fill-rule:nonzero;stroke:none" transform="matrix(1.33333 0 0 -1.33333 234.53 259.732)"/><path d="M0 0c.046-.52 1.755-16.88 1.755-16.88v-.508l.21-1.894s1.177-10.064 1.502-12.676c11.184 6.331 21.12 12.19 29.438 17.378v.01c-.046.51-.783 7.859-.783 7.859l.044-.025c0 .093-.044.174-.069.266 0 .012-1.086 10.445-1.086 10.445-.508 4.633-4.761 9.763-8.55 10.722C17.031 10.837 8.804 5.234 0 0" style="fill:#542785;fill-opacity:1;fill-rule:nonzero;stroke:none" transform="matrix(1.33333 0 0 -1.33333 212.656 279.775)"/><path d="M0 0c-3.999-2.09-7.002-5.591-8.203-9.59-1.018-3.303-.74-6.702.83-9.577 0 0 4.738-7.615 6.887-11.717 2.449-4.597 8.318-15.574 8.642-24.284.323-7.383-3.327-11.902-5.314-13.255-1.988-1.35-8.296-5.359-16.292-7.751-28.122-8.401-44.897 7.221-45.129 7.429-6.423 5.303-9.89 21.501-11.463 31.89-8.457-5.247-18.393-11.036-29.438-17.273 2.634-18.453 10.813-27.649 10.884-27.72 17.4-21.155 39.975-26.377 40.322-26.448 12.664-1.282 18.95.046 18.997.059 10.351 1.247 31.886 10.19 39.096 14.824 10.747 5.984 28.863 15.527 30.157 28.342l.253 5.083c0 11.323-3.557 20.659-3.557 20.74l.14-.195-.511.947-2.748 6.216C29.556-23.108 20.682-5.405 20.312-4.656 16.753 1.907 7.648 3.999 0 0" style="fill:#ed1c24;fill-opacity:1;fill-rule:nonzero;stroke:none" transform="matrix(1.33333 0 0 -1.33333 350.042 249.72)"/><path d="M0 0s-1.455-2.786-1.826-3.479c7.119-1.907 13.31-5.847 18.579-11.497.093-.068 12.895-11.472 12.895-30.202 0-7.857-2.288-15.874-6.84-23.823-.508-1.053-13.079-26.495-32.86-31.81-.138-.034-13.125-3.176-17.285-3.337a6.56 6.56 0 0 1-2.219-.474c-3.742-1.457-6.377-6.667-6.377-12.641 0-2.09.323-4.124.926-6.055 1.801-5.649 6.145-9.831 11.32-10.918 2.173-.439 4.253-.334 6.288.335.021.012.322.083.322.083 5.5 1.35 23.801 5.903 27.592 7.81 1.963.808 19.226 8.144 29.671 23.777l6.469 9.88c8.872 13.147 16.338 36.728 16.338 55.515 0 2.993-.21 5.789-.669 8.308-.093.427-10.307 43.616-49.638 56.961C11.484 22.495 2.173 4.436 0 0" style="fill:#f5821f;fill-opacity:1;fill-rule:nonzero;stroke:none" transform="matrix(1.33333 0 0 -1.33333 427.314 157.808)"/><path d="M0 0c-4.207-2.38-6.562-6.909-6.562-12.5 0-2.82.275-4.392 1.154-7.556 2.219-8.042 12.524-11.416 15.666-8.794-1.615 2.913-2.217 5.095-2.217 8.157 0 2.634.602 5.141 1.756 7.419 0 .01 4.853 8.77 4.853 8.77 2.424 4.309 5.337 9.462 7.118 12.871C14.604 6.206 4.436 3.074 0 0" style="fill:#f5821f;fill-opacity:1;fill-rule:nonzero;stroke:none" transform="matrix(1.33333 0 0 -1.33333 372.565 128.479)"/><path d="m0 0-.094-.01c-.207-.012-24.933-3.882-50.722-21.885-4.529-3.164-14.744-11.586-11.97-21.396 1.34-4.692 3.328-7.603 6.147-8.897 3.189-1.491 7.671-.903 13.404 1.709 0 0 6.03 3.721 34.338 18.846.183.092 18.647 9.682 28.284-6.621 0 0 2.566-3.987 13.54-21.143.185-.325 6.702-10.701 3.606-21.077-.74-2.529-1.526-4.841-2.312-7.382 7.534 1.931 11.44 1.931 12.664 1.479 6.515.313 12.062-1.409 17.424-3.074l3.12-.866c1.501 5.327 2.356 12.468 2.356 17.319 0 6.807-1.617 13.149-3.997 17.31-.693 1.223-16.777 29.311-22.878 38.127C42.355-16.626 30.202 4.38 0 0" style="fill:#d8098c;fill-opacity:1;fill-rule:nonzero;stroke:none" transform="matrix(1.33333 0 0 -1.33333 354.48 .8)"/><path d="M0 0c-.021 0-3.882-.186-3.882-.186-8.733-.703-16.406-3.488-21.514-5.81 2.012-2.693 3.653-3.709 5.547-4.749 2.82-1.526 5.824-2.102 8.921-2.253l-.047-.012c.231.024.924.058 3.418.163l.326.022c4.944.762 9.936 3.675 12.571 9.095 0 0 .925 1.616 1.569 3.198C4.438-.173 2.15.012 0 0" style="fill:#d8098c;fill-opacity:1;fill-rule:nonzero;stroke:none" transform="matrix(1.33333 0 0 -1.33333 418.193 159.228)"/><path d="M0 0h-.183c-.046 0-6.656.195-13.681-2.207-1.295-3.04-5.846-11.497-10.028-19.238l-2.587-4.795c-.972-1.768-1.434-3.697-1.434-5.742 0-2.566.855-5.201 2.402-7.637 4.762 2.148 12.018 4.77 20.335 5.43.046 0 4.483.3 10.677-1.792.3.556 2.959 5.661 2.959 5.661.09.174 9.311 17.31 10.998 26.367C14.697-1.746 6.748.391 0 0" style="fill:#a62a57;fill-opacity:1;fill-rule:nonzero;stroke:none" transform="matrix(1.33333 0 0 -1.33333 418.655 114.781)"/><path d="M0 0c4.021 2.6 6.655 6.516 6.655 10.942 0 5.223-3.606 9.729-8.85 12.178 3.211 2.08 5.337 5.222 5.337 8.782 0 4.241-2.959 7.878-7.256 9.831 2.681 1.665 4.436 4.241 4.436 7.163 0 3.526-2.563 6.563-6.238 8.067 2.264 1.294 3.79 3.408 3.79 5.81 0 3.941-4.021 7.142-8.965 7.142-4.947 0-8.968-3.201-8.968-7.142 0-2.402 1.502-4.516 3.789-5.81-3.696-1.504-6.237-4.541-6.237-8.067 0-2.922 1.755-5.498 4.436-7.163-4.297-1.941-7.256-5.59-7.256-9.831 0-3.56 2.102-6.702 5.315-8.782-5.244-2.461-8.828-6.955-8.828-12.178 0-4.426 2.612-8.342 6.633-10.942-6.702-3.083-11.255-8.779-11.255-15.388 0-9.846 10.007-17.83 22.371-17.83 12.339 0 22.368 7.984 22.368 17.83C11.277-8.779 6.702-3.083 0 0" style="fill:#f5821f;fill-opacity:1;fill-rule:nonzero;stroke:none" transform="matrix(1.33333 0 0 -1.33333 328.444 196.956)"/><path d="M0 0c-20.381-9.624-28.77-36.465-28.838-36.741-3.999-10.803-4.807-24.587-4.807-34.27 0-6.469 3.235-19.316 3.789-22.507 2.891-16.892 16.545-14.766 16.545-14.766 2.867.139 4.947.764 7.674 2.381 5.544 3.305 8.918 7.995 8.435 14.765-.256 2.879-3.792 16.697-3.792 19.492 0 14.246 3.167 22.449 3.306 22.796 3.882 9.336 9.565 14.27 17.007 14.663 17.746.947 38.638-25.281 38.774-25.547 2.312-3.928 5.178-6.191 8.46-6.702 6.052-.935 11.924 4.219 11.992 4.266.115.102.185.149.185.149 3.743 2.519 6.331 6.32 7.117 10.422l.254 2.507c0 2.529-.74 4.922-2.126 6.931-.047.047-.462.579-3.235 4.207C54.443-5.396 33.97-.669 33.762-.623l-.185.035-.115.046C21.213 4.519 9.983 4.692 0 0" style="fill:#008c44;fill-opacity:1;fill-rule:nonzero;stroke:none" transform="matrix(1.33333 0 0 -1.33333 172.91 23.2)"/><path d="M0 0c-.83-2.83-3.883-2.449-7.903-1.248-4.068 1.189-7.578 2.727-6.748 5.569.833 2.842 5.686 5.904 9.753 4.715C-.855 7.847.832 2.842 0 0" style="fill:#fff;fill-opacity:1;fill-rule:nonzero;stroke:none" transform="matrix(1.33333 0 0 -1.33333 472.513 401.122)"/><path d="M0 0h-12.964v-25.974c0-3.04 1.226-5.327 3.652-6.807 1.988-1.211 4.458-1.823 7.371-1.823h64.655v11.413H.925V0Zm60.406 52.339H47.417V30.94H30.364V19.536h17.053v-34.465h13.889v67.268Zm-48.575.832H-1.108v-6.955h-26.343V34.8H5.776c-8.41-6.69-32.951-23.259-33.205-23.443l-.762-.578L-19.687.437S4.946 16.846 6.008 17.688C7.117 16.88 31.75 1.628 31.75 1.628l8.089 10.225-.764.554c-.254.174-24.424 15.889-32.881 22.393h32.881v11.416H12.756v6.955z" style="fill:#231f20;fill-opacity:1;fill-rule:nonzero;stroke:none" transform="matrix(1.33333 0 0 -1.33333 278.9 607.968)"/><path d="M0 0h-12.941v-25.859c0-3.072 1.339-5.396 3.974-6.944 2.172-1.247 4.436-1.882 6.794-1.882h63.272v11.414H.923V0Zm69.736 15.378h-93.123V4.055h40.069v-16.186h13.889V4.055h40.093v11.323ZM59.199 47.603h-72.14V36.187h59.525V19.226h13.543v28.377z" style="fill:#231f20;fill-opacity:1;fill-rule:nonzero;stroke:none" transform="matrix(1.33333 0 0 -1.33333 418.597 607.691)"/><path d="M0 0c0 3.572 1.755 6.726 5.222 9.336 3.511 2.624 7.625 3.965 12.271 3.965 4.411 0 8.432-1.341 11.945-3.965C32.905 6.667 34.661 3.525 34.661 0c0-3.464-1.756-6.55-5.223-9.16-3.513-2.625-7.534-3.953-11.945-3.953-4.646 0-8.76 1.328-12.271 3.953C1.755-6.55 0-3.464 0 0m9.89 40.164-.046.009c-2.127 1.377-3.098 2.935-3.098 4.912 0 2.09.971 3.709 3.098 5.071 2.077 1.341 4.529 2.012 7.37 2.012 2.749 0 5.201-.671 7.278-2.012 2.173-1.374 3.191-2.99 3.191-5.071 0-1.977-1.018-3.525-3.191-4.887-2.077-1.409-4.529-2.127-7.278-2.127-2.819 0-5.293.706-7.324 2.093m13.726 29.323H9.658s.161-5.083.208-6.423h-35.633V52.295h21.121c-.161-.266-.347-.52-.461-.762a13.06 13.06 0 0 1-1.548-6.172c0-4.575 2.031-8.515 6.006-11.726 2.912-2.275 6.611-3.906 10.886-4.887v-4.08h-39.263V13.311h21.121c-.923-.957-1.802-1.941-2.471-2.981-1.965-3.062-2.981-6.504-2.981-10.213 0-7.153 3.281-13.078 9.705-17.632C2.263-21.685 9.451-23.79 17.7-23.79c7.903 0 14.834 2.115 20.613 6.288 6.445 4.541 9.705 10.466 9.705 17.619 0 3.721-1.018 7.163-3.052 10.237-.691 1.016-1.548 2-2.495 2.957h21.306v11.357H24.771v4.08c4.135.959 7.717 2.622 10.583 5.002 3.928 3.188 5.962 7.107 5.962 11.611 0 2.198-.554 4.287-1.663 6.216-.139.232-.324.474-.464.718h21.446v10.769H24.724c-.046 1.34-.232 6.436-.232 6.436z" style="fill:#231f20;fill-opacity:1;fill-rule:nonzero;stroke:none" transform="matrix(1.33333 0 0 -1.33333 135.693 629.446)"/><path d="M0 0v22.832h4.368v-8.793h7.58v8.793h4.344V0h-4.344v9.764h-7.58V0Z" style="fill:#231f20;fill-opacity:1;fill-rule:nonzero;stroke:none" transform="matrix(1.33333 0 0 -1.33333 123.952 707.18)"/><path d="M0 0c.371-.914.857-1.709 1.526-2.402a7.103 7.103 0 0 1 2.38-1.641 6.49 6.49 0 0 1 2.727-.589c2.102 0 3.836.728 5.198 2.171 1.387 1.445 2.08 3.272 2.08 5.488 0 .948-.183 1.838-.508 2.647-.322.832-.808 1.594-1.479 2.308-.784.858-1.57 1.458-2.403 1.815-.832.371-1.801.566-2.888.566-.971 0-1.872-.174-2.658-.508a6.542 6.542 0 0 1-2.264-1.547A7.443 7.443 0 0 1 .093 5.822a7.103 7.103 0 0 1-.576-2.851C-.483 1.918-.322.937 0 0m-4.065 7.546c.623 1.442 1.523 2.725 2.656 3.857C-.3 12.49.925 13.311 2.266 13.864a11.64 11.64 0 0 0 4.389.866c1.573 0 3.052-.299 4.439-.866 1.386-.553 2.634-1.386 3.742-2.495 1.109-1.108 1.988-2.381 2.588-3.823.601-1.433.926-2.946.926-4.554a11.9 11.9 0 0 0-.833-4.447 10.315 10.315 0 0 0-2.173-3.688c-1.179-1.247-2.495-2.194-3.974-2.841a11.633 11.633 0 0 0-4.737-.981c-1.687 0-3.259.334-4.714 1.006-1.502.668-2.795 1.641-3.906 2.91a11.432 11.432 0 0 0-2.217 3.686 12.992 12.992 0 0 0-.74 4.355c0 1.595.3 3.109.879 4.554" style="fill:#231f20;fill-opacity:1;fill-rule:nonzero;stroke:none" transform="matrix(1.33333 0 0 -1.33333 154.3 695.78)"/><path d="M0 0v22.832h4.16L13.679 8.17v14.662h4.3V0H14.05L4.343 15.057V0Z" style="fill:#231f20;fill-opacity:1;fill-rule:nonzero;stroke:none" transform="matrix(1.33333 0 0 -1.33333 181.045 707.18)"/><path d="M0 0c-.164-3.802-1.365-6.863-3.56-9.176-2.148-2.25-4.875-3.383-8.11-3.383-1.665 0-3.235.334-4.714 1.006-1.48.668-2.796 1.641-3.928 2.91-.948 1.086-1.666 2.312-2.195 3.686a12.992 12.992 0 0 0-.74 4.355c0 1.595.3 3.109.901 4.554a11.095 11.095 0 0 0 2.68 3.858 10.451 10.451 0 0 0 3.697 2.495c1.386.556 2.912.832 4.575.832 2.312 0 4.346-.588 6.101-1.755 1.802-1.226 3.235-3.015 4.299-5.374h-5.085c-.762.972-1.594 1.676-2.495 2.105-.926.437-1.941.657-3.096.657a7.074 7.074 0 0 1-2.681-.508c-.832-.334-1.572-.855-2.241-1.548a7.45 7.45 0 0 1-1.64-2.485 7.468 7.468 0 0 1-.555-2.852c0-1.076.162-2.059.508-2.971a7.326 7.326 0 0 1 1.524-2.402 7.241 7.241 0 0 1 2.358-1.641 6.585 6.585 0 0 1 2.727-.589c1.433 0 2.681.323 3.696.982 1.087.669 1.941 1.675 2.542 2.993h-7.024V0Z" style="fill:#231f20;fill-opacity:1;fill-rule:nonzero;stroke:none" transform="matrix(1.33333 0 0 -1.33333 238.261 690.988)"/><path d="M0 0c-1.755-1.179-3.789-1.755-6.101-1.755-1.709 0-3.281.334-4.736 1.006-1.502.668-2.796 1.641-3.907 2.91a11.429 11.429 0 0 0-2.216 3.686c-.508 1.375-.74 2.83-.74 4.355 0 1.595.3 3.096.879 4.518a12.847 12.847 0 0 0 2.68 3.893c1.109 1.065 2.31 1.885 3.65 2.461a11.56 11.56 0 0 0 4.39.866c2.358 0 4.414-.599 6.216-1.789 1.872-1.248 3.327-3.061 4.392-5.454H-.415c-.74 1.006-1.572 1.745-2.542 2.22-.878.437-1.94.656-3.144.656-.969 0-1.895-.174-2.681-.508-.83-.334-1.57-.854-2.241-1.547a7.555 7.555 0 0 1-1.641-2.486 7.45 7.45 0 0 1-.554-2.851c0-1.077.186-2.059.508-2.971a6.37 6.37 0 0 1 1.526-2.402A7.408 7.408 0 0 1-8.85 3.167a6.513 6.513 0 0 1 2.749-.589c1.157 0 2.219.218 3.098.648.923.461 1.709 1.154 2.402 2.077h5.13C3.352 2.946 1.848 1.179 0 0" style="fill:#231f20;fill-opacity:1;fill-rule:nonzero;stroke:none" transform="matrix(1.33333 0 0 -1.33333 262.94 705.393)"/><path d="M0 0v22.832h4.368v-8.793h7.602v8.793h4.343V0H11.97v9.764H4.368V0Z" style="fill:#231f20;fill-opacity:1;fill-rule:nonzero;stroke:none" transform="matrix(1.33333 0 0 -1.33333 270.888 707.18)"/><path d="M0 0v22.832h12.432V18.73H4.343v-5.221h8.089V9.476H4.343V4.219h8.089V0Z" style="fill:#231f20;fill-opacity:1;fill-rule:nonzero;stroke:none" transform="matrix(1.33333 0 0 -1.33333 294.922 707.18)"/><path d="M0 0a6.945 6.945 0 0 1 1.526-2.402 7.103 7.103 0 0 1 2.38-1.641 6.49 6.49 0 0 1 2.727-.589c2.102 0 3.811.728 5.198 2.171 1.387 1.445 2.08 3.272 2.08 5.488 0 .948-.185 1.838-.508 2.647a7.102 7.102 0 0 1-1.479 2.308c-.786.858-1.572 1.458-2.403 1.815-.832.371-1.801.566-2.888.566-.971 0-1.872-.174-2.658-.508a6.515 6.515 0 0 1-2.264-1.547 7.862 7.862 0 0 1-1.64-2.486 7.501 7.501 0 0 1-.579-2.851C-.508 1.918-.322.937 0 0m-4.067 7.546a12.075 12.075 0 0 0 2.658 3.857C-.3 12.49.925 13.311 2.266 13.864c1.408.567 2.863.866 4.389.866 1.573 0 3.052-.299 4.436-.866 1.387-.553 2.635-1.386 3.745-2.495 1.109-1.108 1.988-2.381 2.588-3.823.601-1.433.924-2.946.924-4.554 0-1.572-.277-3.06-.83-4.447a10.757 10.757 0 0 0-2.174-3.688c-1.179-1.247-2.495-2.194-3.974-2.841a11.633 11.633 0 0 0-4.737-.981c-1.687 0-3.259.334-4.738 1.006-1.478.668-2.774 1.641-3.904 2.91a11.775 11.775 0 0 0-2.195 3.686c-.51 1.375-.74 2.83-.74 4.355 0 1.595.276 3.109.877 4.554" style="fill:#231f20;fill-opacity:1;fill-rule:nonzero;stroke:none" transform="matrix(1.33333 0 0 -1.33333 320.185 695.78)"/><path d="M0 0v22.832h4.136L13.68 8.17v14.662h4.299V0h-3.954L4.344 15.057V0Z" style="fill:#231f20;fill-opacity:1;fill-rule:nonzero;stroke:none" transform="matrix(1.33333 0 0 -1.33333 346.93 707.18)"/><path d="M301.121 9.484h-18.994v3.732h18.994z" style="fill:#231f20;fill-opacity:1;fill-rule:nonzero;stroke:none" transform="matrix(1.33333 0 0 -1.33333 0 707.733)"/><path d="M0 0c-.186-3.802-1.387-6.863-3.558-9.176-2.172-2.25-4.878-3.383-8.134-3.383-1.665 0-3.236.334-4.714 1.006-1.481.668-2.774 1.641-3.929 2.91a12.168 12.168 0 0 0-2.173 3.686c-.508 1.375-.74 2.83-.74 4.355 0 1.595.279 3.109.879 4.554.601 1.443 1.502 2.725 2.682 3.858a10.435 10.435 0 0 0 3.695 2.495c1.387.556 2.913.832 4.576.832 2.312 0 4.346-.588 6.101-1.755 1.801-1.226 3.235-3.015 4.299-5.374h-5.086c-.74.972-1.57 1.676-2.495 2.105-.923.437-1.94.657-3.095.657a6.886 6.886 0 0 1-2.66-.508 6.261 6.261 0 0 1-2.24-1.548c-.74-.728-1.269-1.56-1.663-2.485a7.486 7.486 0 0 1-.554-2.852c0-1.076.183-2.059.508-2.971a7.337 7.337 0 0 1 1.547-2.402 7.147 7.147 0 0 1 2.334-1.641 6.665 6.665 0 0 1 2.728-.589c1.432 0 2.68.323 3.743.982 1.061.669 1.894 1.675 2.494 2.993h-7.024V0Z" style="fill:#231f20;fill-opacity:1;fill-rule:nonzero;stroke:none" transform="matrix(1.33333 0 0 -1.33333 436.589 690.988)"/><path d="M0 0v-14.338c0-1.767.211-2.959.602-3.594.462-.693 1.339-1.04 2.633-1.04 1.204 0 2.035.347 2.474 1.04.393.635.578 1.827.578 3.594V0h4.39v-14.316c0-1.316-.093-2.368-.23-3.142-.164-1.028-.486-1.895-.926-2.612-.739-1.028-1.618-1.825-2.658-2.381-1.037-.529-2.195-.795-3.535-.795-1.431 0-2.681.254-3.765.773-1.086.508-2.011 1.307-2.751 2.369a7.02 7.02 0 0 0-1.015 2.795c-.094.637-.14 1.631-.14 2.993V0Z" style="fill:#231f20;fill-opacity:1;fill-rule:nonzero;stroke:none" transform="matrix(1.33333 0 0 -1.33333 444.29 676.738)"/><path d="M0 0v22.832h4.16L13.68 8.17v14.662H18V0h-3.949L4.367 15.057V0Z" style="fill:#231f20;fill-opacity:1;fill-rule:nonzero;stroke:none" transform="matrix(1.33333 0 0 -1.33333 461.422 707.18)"/></svg>