<svg xmlns="http://www.w3.org/2000/svg" width="527.15619mm" height="500mm" viewBox="0 0 527.15619 500"><defs><linearGradient id="b" x1="0" x2="1" y1="0" y2="0" gradientTransform="scale(-176.13852 176.13852) rotate(90 -1.719 .014)" gradientUnits="userSpaceOnUse" spreadMethod="pad"><stop offset="0" style="stop-opacity:1;stop-color:#009894"/><stop offset="1" style="stop-opacity:1;stop-color:#9fcf6e"/></linearGradient><linearGradient id="d" x1="0" x2="1" y1="0" y2="0" gradientTransform="matrix(0 14.85606 14.85606 0 446.643 90.832)" gradientUnits="userSpaceOnUse" spreadMethod="pad"><stop offset="0" style="stop-opacity:1;stop-color:#009894"/><stop offset="1" style="stop-opacity:1;stop-color:#9fcf6e"/></linearGradient><clipPath id="a" clipPathUnits="userSpaceOnUse"><path d="M235.623 489.588c-23.542 0-22.883 45.146-45.45 20.039-38.977-43.373-35.614-98.836-23.165-134.966 13.185-38.291 55.163-93.046 135.562-93.046 65.652 0 108.981 46.724 123.917 76.702.017.04-.034.073-.065.04-25.99-28.593-70.039-55.155-121.889-55.155-24.305 0-62.353 7.072-69.805 35.037 0 0-28.864 12.843-36.915 27.756 0 0-.211 5.9 3.569 9.761 1.214-2.133 15.153-24.589 55.104-38.275 51.256-17.543 102.813-5.726 116.66 3.034.028.017.008.046-.028.035-21.592-7.208-91.351-9.445-123.667 9.635-10.11 5.968-12.434 13.601 5.235 15.238 10.558.976 28.001-.275 54.71-5.754 114.534-23.517 130.65 31.51 129.229 35.497-1.457 4.056-18.304 17.785-47.064 13.325-52.616-9.349-97.571-46.32-146.011-15.912-29.38 18.441-29.428 60.536-41.904 64.131-.006.003-.008.014-.003.018 7.129 3.859 13.979 14.553 24.826 14.553 6.728 0 10.104-2.243 17.996-11.259 16.694-19.101 35.903-35.899 67.09-39.718 25.898-2.833 52.372 10.206 25.457 62.772-.022.045 0 .09.059.039 19.849-17.462 35.012-43.888 22.238-61.623 0-.003 4.395 1.635 11.354 3.273 16.658 3.921 48.006 7.842 68.918-10.755 4.9 53.786-31.977 113.694-56.434 113.694-15.38 0-26.41-34.215-50.358-34.215-11.504 27.444-25.783 56.989-40.365 56.989-21.221 0-36.933-60.89-58.801-60.89m175.653-110.659c-3.157.057-5.648 2.076-5.558 4.51.084 2.439 2.721 4.346 5.878 4.289 3.16-.073 5.659-2.091 5.572-4.531-.096-2.386-2.626-4.27-5.705-4.271a5.83 5.83 0 0 0-.187.003m-188.813 77.509a4.515 4.515 0 0 1 4.42-4.618 4.518 4.518 0 0 1 4.624 4.419c.061 2.493-1.918 4.563-4.418 4.629l-.1.001a4.528 4.528 0 0 1-4.526-4.431"/></clipPath><clipPath id="c" clipPathUnits="userSpaceOnUse"><path d="M441.187 106.39c-1.984 0-1.929 3.806-3.833 1.69-3.287-3.658-3.003-8.337-1.952-11.384 1.111-3.228 4.653-7.847 11.433-7.847 5.537 0 9.191 3.941 10.452 6.468.001.005-.004.007-.006.005-2.192-2.413-5.908-4.653-10.28-4.653-2.051 0-5.259.596-5.888 2.955 0 0-2.434 1.083-3.114 2.341 0 0-.018.498.302.823.103-.179 1.277-2.072 4.647-3.228 4.323-1.479 8.671-.483 9.84.256.002.002 0 .004-.003.004-1.821-.609-7.705-.798-10.431.811-.852.504-1.047 1.147.442 1.287.89.081 2.362-.025 4.615-.486 9.66-1.984 11.018 2.657 10.9 2.994-.124.342-1.545 1.499-3.97 1.124-4.439-.789-8.23-3.907-12.315-1.342-2.479 1.554-2.482 5.106-3.535 5.408v.002c.602.327 1.18 1.228 2.094 1.228.567 0 .852-.189 1.518-.951 1.408-1.611 3.028-3.027 5.659-3.349 2.183-.238 4.417.862 2.146 5.295-.001.003 0 .007.005.003 1.675-1.474 2.953-3.702 1.876-5.199 0 0 4.27 1.594 6.77-.63.414 4.537-2.696 9.59-4.759 9.59-1.298 0-2.228-2.887-4.247-2.887-.971 2.315-2.175 4.807-3.406 4.807-1.788 0-3.115-5.135-4.96-5.135m14.817-9.334c-.266.005-.478.176-.469.381.007.205.229.367.495.362.267-.007.478-.177.471-.382-.008-.202-.222-.361-.482-.361h-.015m-15.925 6.538a.38.38 0 1 1 .762-.017.382.382 0 0 1-.372.391h-.007a.38.38 0 0 1-.383-.374"/></clipPath></defs><g clip-path="url(#a)" transform="matrix(1.85968 0 0 -1.85968 -294.868 1023.715)"><path d="M235.623 489.588c-23.542 0-22.883 45.146-45.45 20.039-38.977-43.373-35.614-98.836-23.165-134.966 13.185-38.291 55.163-93.046 135.562-93.046 65.652 0 108.981 46.724 123.917 76.702.017.04-.034.073-.065.04-25.99-28.593-70.039-55.155-121.889-55.155-24.305 0-62.353 7.072-69.805 35.037 0 0-28.864 12.843-36.915 27.756 0 0-.211 5.9 3.569 9.761 1.214-2.133 15.153-24.589 55.104-38.275 51.256-17.543 102.813-5.726 116.66 3.034.028.017.008.046-.028.035-21.592-7.208-91.351-9.445-123.667 9.635-10.11 5.968-12.434 13.601 5.235 15.238 10.558.976 28.001-.275 54.71-5.754 114.534-23.517 130.65 31.51 129.229 35.497-1.457 4.056-18.304 17.785-47.064 13.325-52.616-9.349-97.571-46.32-146.011-15.912-29.38 18.441-29.428 60.536-41.904 64.131-.006.003-.008.014-.003.018 7.129 3.859 13.979 14.553 24.826 14.553 6.728 0 10.104-2.243 17.996-11.259 16.694-19.101 35.903-35.899 67.09-39.718 25.898-2.833 52.372 10.206 25.457 62.772-.022.045 0 .09.059.039 19.849-17.462 35.012-43.888 22.238-61.623 0-.003 4.395 1.635 11.354 3.273 16.658 3.921 48.006 7.842 68.918-10.755 4.9 53.786-31.977 113.694-56.434 113.694-15.38 0-26.41-34.215-50.358-34.215-11.504 27.444-25.783 56.989-40.365 56.989-21.221 0-36.933-60.89-58.801-60.89m175.653-110.659c-3.157.057-5.648 2.076-5.558 4.51.084 2.439 2.721 4.346 5.878 4.289 3.16-.073 5.659-2.091 5.572-4.531-.096-2.386-2.626-4.27-5.705-4.271a5.83 5.83 0 0 0-.187.003m-188.813 77.509a4.515 4.515 0 0 1 4.42-4.618 4.518 4.518 0 0 1 4.624 4.419c.061 2.493-1.918 4.563-4.418 4.629l-.1.001a4.528 4.528 0 0 1-4.526-4.431" style="fill:url(#b);stroke:none"/></g><g clip-path="url(#c)" transform="matrix(22.04974 0 0 -22.04974 -9558.414 1742.337)"><path d="M441.187 106.39c-1.984 0-1.929 3.806-3.833 1.69-3.287-3.658-3.003-8.337-1.952-11.384 1.111-3.228 4.653-7.847 11.433-7.847 5.537 0 9.191 3.941 10.452 6.468.001.005-.004.007-.006.005-2.192-2.413-5.908-4.653-10.28-4.653-2.051 0-5.259.596-5.888 2.955 0 0-2.434 1.083-3.114 2.341 0 0-.018.498.302.823.103-.179 1.277-2.072 4.647-3.228 4.323-1.479 8.671-.483 9.84.256.002.002 0 .004-.003.004-1.821-.609-7.705-.798-10.431.811-.852.504-1.047 1.147.442 1.287.89.081 2.362-.025 4.615-.486 9.66-1.984 11.018 2.657 10.9 2.994-.124.342-1.545 1.499-3.97 1.124-4.439-.789-8.23-3.907-12.315-1.342-2.479 1.554-2.482 5.106-3.535 5.408v.002c.602.327 1.18 1.228 2.094 1.228.567 0 .852-.189 1.518-.951 1.408-1.611 3.028-3.027 5.659-3.349 2.183-.238 4.417.862 2.146 5.295-.001.003 0 .007.005.003 1.675-1.474 2.953-3.702 1.876-5.199 0 0 4.27 1.594 6.77-.63.414 4.537-2.696 9.59-4.759 9.59-1.298 0-2.228-2.887-4.247-2.887-.971 2.315-2.175 4.807-3.406 4.807-1.788 0-3.115-5.135-4.96-5.135m14.817-9.334c-.266.005-.478.176-.469.381.007.205.229.367.495.362.267-.007.478-.177.471-.382-.008-.202-.222-.361-.482-.361h-.015m-15.925 6.538a.38.38 0 1 1 .762-.017.382.382 0 0 1-.372.391h-.007a.38.38 0 0 1-.383-.374" style="fill:url(#d);stroke:none"/></g></svg>