<svg xmlns="http://www.w3.org/2000/svg" xmlns:xlink="http://www.w3.org/1999/xlink" width="343.18567pt" height="225pt" viewBox="0 0 343.18566 225"><defs><clipPath id="a"><path d="M719.965 881.863h-.001v-2.167l.001.001v2.166"/></clipPath><clipPath id="d"><path d="m719.965 1067.349-.001-.367h.001v.367"/></clipPath></defs><g clip-path="url(#a)" transform="translate(-928.273 -772.253)"><clipPath id="b"><path d="M654.53 880h65.42v60.359h-65.42z"/></clipPath><g clip-path="url(#b)"><g transform="matrix(.48002 0 0 .464 719.688 879.358)"><symbol id="c" viewBox="0 0 2 6"><image width="2" height="6"/></symbol><use xlink:href="#c" width="2" height="6"/></g></g></g><g clip-path="url(#d)" transform="translate(-928.273 -772.253)"><clipPath id="e"><path d="M668.93 982.727h51.02v84.373h-51.02z"/></clipPath><g clip-path="url(#e)"><image width="2" height="3" transform="matrix(.48 0 0 .368 719.688 1066.678)"/></g></g><path fill="#ed1c24" d="M18.642 200.372s-42.715-36.839 1.172-93.174C63.702 50.876 224.024-28.842 310 13.79c0 0 89.793 48.769-26.027 146.102-115.453 97.006-246.42 63.03-265.331 40.48"/><path fill="#06569d" d="M94.829 222.023S.018 235.82 31.13 152.557c0 0 28.617-84.53 164.37-139.652 0 0 76.528-30.513 103.592 9.066 18.883 27.609 15.597 54.74-14.888 96.788-30.486 42.047-108.745 93.256-189.376 103.264"/><path fill="#33b5cf" d="M49.618 121.036c8.03-10.485 17.997-22.796 17.997-22.796s96.747-84.244 208.055-62.294c0 0 37.07 7.554 34.18 33.772 0 0-2.168 7.335-6.817 16.606-4.267 8.548-10.839 18.883-14.411 23.56-7.43 9.761-53.445 51.986-134.05 71.728C73.97 201.354 26.59 175.654 36.19 144.159c0 0 2.236-8.098 13.43-23.123"/><path fill="#fff" d="M251.878 3.306c-27.568 0-55.34 10.84-55.804 11.03C62.53 68.56 32.89 152.216 32.603 153.062c-8.576 22.932-8.235 40.384 1.023 51.918 17.356 21.57 60.562 15.57 60.984 15.502h.041c78.355-9.72 157.282-59.812 188.3-102.636 29.571-40.78 33.743-67.42 14.874-95.002C287.572 7.86 269.766 3.306 251.878 3.306M80.39 224.476c-14.875 0-37.262-2.74-49.178-17.56-9.98-12.434-10.498-30.908-1.527-54.89.273-.818 30.39-85.799 165.244-140.566 3.177-1.268 78-30.5 105.459 9.639 19.742 28.877 15.556 56.526-14.93 98.587-31.412 43.329-111.212 94.047-190.411 103.877-.737.11-6.586.914-14.657.914"/><path fill="#fff" fill-rule="evenodd" d="M192.72 82.097c-2.944 1.2-6.83-1.527-8.684-6.094-1.855-4.568-.982-9.244 1.95-10.458 2.944-1.2 6.816 1.527 8.698 6.108 1.84 4.568.981 9.244-1.963 10.444"/><path fill="#a6a8ab" d="m187.471 66.037-1.2.231c-2.494 1.01-3.19 5.345-1.513 9.435 1.064 2.645 2.89 4.717 4.84 5.535l2.823.137c2.495-1.023 3.204-5.345 1.54-9.435-1.459-3.545-4.158-5.903-6.49-5.903m3.763 17.124-2.236-.477c-2.331-.996-4.458-3.368-5.685-6.395-2.045-5.044-1.009-10.075 2.372-11.452 3.382-1.39 7.649 1.486 9.708 6.517 2.031 5.044.995 10.075-2.386 11.466l-1.773.34"/><path fill="#fff" fill-rule="evenodd" d="M191.003 77.884c-1.241.505-2.973-.9-3.872-3.149-.928-2.236-.668-4.472.572-4.976 1.227-.491 2.972.913 3.886 3.163.886 2.236.654 4.458-.586 4.962"/><path fill="#a6a8ab" d="m188.235 70.44-.26.041-.435.532c-.341.804-.205 2.168.313 3.422.518 1.282 1.364 2.331 2.168 2.686l.695.04c.696-.285.927-2.044.15-3.94-.695-1.717-1.881-2.78-2.631-2.78m2.236 8.33-1.05-.232c-1.2-.505-2.318-1.827-3.013-3.518-.695-1.663-.79-3.395-.286-4.608l1.281-1.363c1.677-.668 3.79.859 4.908 3.572 1.091 2.727.655 5.303-1.008 5.985l-.832.164"/><path fill="#fff" fill-rule="evenodd" d="M164.594 69.227s-3.695-.027-3.695 3.15c.013 3.176 3.708 3.176 3.708 3.176l9.558-.027-4.063 71.85s-7.69.492-16.538-12.624l3.258-.736-8.63-8.072-1.663 11.52 3.204-1.022s5.017 11.957 12.952 16.702c7.935 4.731 12.243 6.203 15.774 12.093 0 0 4.745-5.453 11.521-9.393 6.749-3.94 12.557-6.831 17.588-19.347l3.49 1.09-1.677-11.466-8.276 7.186 3.3 1.336s-3.995 10.13-17.247 12.38l-5.726-71.524 10.252-.041s3.586-.055 3.572-3.177c0-3.15-3.599-3.136-3.599-3.136"/><path fill="#a6a8ab" d="m150.182 135.474.287.655c.04.109 5.003 11.78 12.625 16.333 1.568.941 2.986 1.745 4.295 2.468 4.976 2.836 8.37 4.758 11.193 9.026 1.568-1.65 5.645-5.658 11.03-8.78l.913-.532c6.245-3.627 11.63-6.735 16.334-18.447l.273-.654 2.985.927-1.281-8.862-6.258 5.453 2.85 1.132-.3.709c-.164.436-4.295 10.58-17.834 12.884l-.831.15-5.85-73.201 11.085-.04c.273-.028 2.809-.15 2.795-2.428 0-2.318-2.686-2.345-2.822-2.345l-27.064.068-2.358.86-.56 1.526c.014 2.414 2.891 2.454 2.932 2.4l10.362-.027-4.131 73.364-.682.041c-.368.014-8.262.368-17.233-12.98l-.641-.94 2.931-.655-6.476-6.08-1.268 8.834zm28.155 31.086-.546-.914c-2.713-4.553-5.89-6.367-11.166-9.353a195.42 195.42 0 0 1-4.308-2.495c-7.09-4.24-11.807-13.81-12.993-16.428l-3.736 1.213 2.045-14.22 10.798 10.089-3.558.79c6.667 9.49 12.57 11.058 14.52 11.303l3.954-70.242-8.712.027c-1.555-.013-4.486-.818-4.5-3.954l1.023-2.645c1.268-1.254 3.272-1.281 3.45-1.281l27.063-.096c1.513 0 4.363.818 4.376 3.913.014 3.082-2.836 3.94-4.335 3.968l-9.435.027 5.59 69.833c10.075-2.031 14.343-8.848 15.488-11.057l-3.708-1.486 10.307-8.958 2.059 14.098-3.995-1.254c-4.827 11.657-10.362 14.86-16.715 18.556l-.928.531c-6.571 3.818-11.288 9.176-11.33 9.23"/><path fill="#fff" fill-rule="evenodd" d="M203.86 103.08c-2.945 1.186-6.818-1.527-8.685-6.108-1.855-4.568-.982-9.258 1.963-10.458 2.931-1.2 6.817 1.541 8.685 6.109 1.84 4.567.981 9.243-1.964 10.457"/><path fill="#a6a8ab" d="m198.61 87.005-1.186.232-1.936 2.072c-.818 1.964-.668 4.731.41 7.376 1.69 4.159 5.126 6.722 7.675 5.672 2.536-1.05 3.218-5.276 1.527-9.448-1.445-3.532-4.145-5.904-6.49-5.904m3.763 17.138c-2.972 0-6.217-2.686-7.921-6.885-1.227-3-1.363-6.204-.382-8.562.587-1.405 1.54-2.4 2.768-2.89 3.368-1.378 7.635 1.485 9.694 6.516 2.031 5.045.995 10.076-2.386 11.48l-1.773.341"/><path fill="#fff" fill-rule="evenodd" d="M202.155 98.853c-1.24.505-2.972-.9-3.872-3.15-.927-2.235-.668-4.471.56-4.975 1.253-.505 2.971.913 3.885 3.149.913 2.236.654 4.472-.573 4.976"/><path fill="#a6a8ab" d="m199.388 91.409-.26.04-.6 1.2.464 2.755c.832 2.072 2.25 3 2.877 2.727l.45-.519c.327-.818.204-2.167-.314-3.435-.681-1.705-1.854-2.768-2.617-2.768m2.25 8.317c-1.487 0-3.164-1.46-4.077-3.736l-.573-3.518c.136-1.227.695-2.1 1.554-2.454 1.69-.668 3.79.846 4.895 3.572.695 1.677.804 3.409.3 4.622l-1.282 1.364h-.013l-.805.15"/><path fill="#fff" fill-rule="evenodd" d="M178.241 65.246c-2.85.013-5.18-2.523-5.18-5.658-.014-3.123 2.29-5.645 5.14-5.672 2.862 0 5.18 2.509 5.194 5.644.013 3.123-2.29 5.686-5.154 5.686m-.04-15.134c-4.786.014-8.645 4.267-8.617 9.503.013 5.222 3.899 9.462 8.67 9.448 4.773-.013 8.631-4.28 8.618-9.516-.014-5.222-3.9-9.462-8.672-9.435"/><path fill="#a6a8ab" d="M178.228 54.693h-.014c-2.427.013-4.39 2.222-4.377 4.894 0 1.377.532 2.713 1.46 3.64l2.917 1.228h.027l3.081-1.405c.832-.927 1.296-2.168 1.296-3.49 0-1.309-.477-2.563-1.31-3.477l-3.08-1.39m-.014 11.33c-1.486 0-2.904-.614-4.008-1.705-1.214-1.213-1.923-2.931-1.923-4.73-.013-3.532 2.645-6.422 5.917-6.436h.014c1.595 0 3.108.668 4.226 1.881 1.118 1.2 1.732 2.823 1.732 4.527.014 1.718-.6 3.327-1.704 4.526-1.118 1.241-2.632 1.936-4.227 1.936zm-.014-15.148c-4.335.014-7.853 3.927-7.84 8.726 0 2.454.942 4.785 2.591 6.435 1.46 1.459 3.313 2.236 5.277 2.236h.027c1.963 0 3.831-.804 5.276-2.277 1.636-1.636 2.577-3.995 2.563-6.449-.013-2.44-.954-4.785-2.604-6.421-1.445-1.46-3.313-2.25-5.262-2.25zm.028 18.951c-2.373 0-4.622-.954-6.367-2.686-1.923-1.936-3.04-4.676-3.054-7.54-.014-5.644 4.199-10.252 9.38-10.28 2.29.028 4.649.955 6.394 2.687 1.936 1.936 3.04 4.69 3.054 7.54.014 2.849-1.077 5.603-3 7.553-1.745 1.758-3.994 2.713-6.367 2.726"/><path fill="#fff" fill-rule="evenodd" d="m182.631 61.441-2.222.082.164 2.114 5.48 5.153 2.086-.027-.068-2.154"/><path fill="#a6a8ab" d="m181.5 61.796-.518.245-.218.437.327.559 5.48 5.167.546.273.436-.246-.027-1.05-5.413-5.14-.613-.245m5.617 8.235-1.623-.695-5.44-5.14-.831-1.65.627-1.554 3.259-.137.04.027 5.454 5.181.082 3.232-1.527.736"/><path fill="#fff" fill-rule="evenodd" d="M193.47 78.266s-1.213-2.072-2.55-1.363c-1.349.722-.176 2.808-.176 2.808l5.399 10.226s1.022 2.045 2.386 1.336c1.363-.723.313-2.768.313-2.768"/><path fill="#a6a8ab" d="m191.493 77.53-.218.055-.19.231.34 1.527 5.413 10.226.995 1.063.341-.04-.027-1.746-5.331-10.198-1.323-1.118m6.463 14.67-.6-.109-1.895-1.813-5.4-10.185-.476-2.7.968-1.186c1.581-.845 3 .655 3.585 1.664l.028.027 5.371 10.24c.478.954.969 2.971-.64 3.817l-.941.245"/><path fill="#fff" d="m179.06 108.247-4.282.014-11.711-10.09s-2.782-1.785-5.945-1.785l-50.814.177s1.895 8.794 9.353 8.835l47.337-.15-47.337.15s-2.795 8.494 8.153 9.666l46.52-.15-46.52.15s.205 7.826 7.104 9.762l48.196-.15"/><path fill="#a6a8ab" d="m130.809 125.59-.096-.028c-6.135-1.704-7.376-7.785-7.608-9.802-3.572-.505-6.04-1.841-7.39-3.94-1.349-2.1-1.226-4.418-1.022-5.686-7.199-.777-9.135-9.312-9.148-9.408l-.191-.954 51.768-.164h.041c3.34 0 6.204 1.827 6.313 1.91l11.589 9.966 3.98-.014.014 1.554h-4.567l-11.93-10.266c-.013 0-2.563-1.582-5.399-1.582h-.027l-49.819.164c.696 2.14 2.918 7.24 8.344 7.28l47.337-.15.014 1.555-46.737.163c-.191.941-.41 3.014.736 4.813 1.186 1.8 3.477 2.918 6.844 3.286l46.479-.15v1.554l-45.674.15c.245 1.923 1.363 6.736 6.367 8.208l48.073-.164.014 1.555"/><path fill="#fff" d="m178.432 108.247 4.268-.013 11.657-10.171s2.754-1.8 5.93-1.814l50.814-.163s-1.84 8.807-9.312 8.903l-47.31.15 47.31-.15s2.877 8.467-8.085 9.72l-46.519.137 46.52-.136s-.137 7.812-7.022 9.803l-48.196.163"/><path fill="#a6a8ab" d="M178.487 125.44v-1.555l48.073-.15c5.004-1.5 6.08-6.326 6.313-8.262l-45.674.15-.014-1.54 46.52-.164c3.312-.382 5.616-1.513 6.789-3.34 1.145-1.814.9-3.872.709-4.813l-46.724.15-.013-1.554 47.337-.15c5.413-.069 7.608-5.195 8.29-7.349l-49.806.164c-2.89 0-5.48 1.663-5.508 1.677L183 108.997l-4.567.014-.014-1.54 3.995-.014 11.44-9.98c.217-.15 3.08-2.005 6.42-2.018l51.783-.164-.191.954c-.028.096-1.909 8.658-9.108 9.462.232 1.268.368 3.573-.954 5.7-1.35 2.113-3.831 3.476-7.363 3.98-.231 2.046-1.431 8.1-7.54 9.858l-.217.027"/><path fill="#eb2030" d="m178.337 110.333 27.568-10.212-14.275 14.602.013.041"/><path fill="#a6a8ab" d="m180.682 110.306 10.702 3.572 11.562-11.82zm12.516 5.767-1.8-.572-15.406-5.113 29.654-10.975.818 1.254-13.893 14.206"/><path fill="#f2ea14" d="m178.214 78.143-8.153 19.51-.177.028 8.425 12.652"/><path fill="#a6a8ab" d="m170.865 97.776 6.667 9.994-.095-25.795zm8.235 15.134-10.566-15.815.981-.137 7.976-19.1 1.5.3"/><path fill="#f2ea14" d="m178.31 110.333-16.839 25.469 16.907-10.444"/><path fill="#a6a8ab" d="m177.56 112.91-13.484 20.396 13.524-8.357zm-15.693 23.56-1.05-1.078 18.27-27.608.054 18.024"/><path fill="#eb2030" d="m178.31 110.333-13.266 4.513-3.723 21.051.15-.095"/><path fill="#a6a8ab" d="m165.725 115.446-3.027 17.097 13.716-20.737zm-5.317 21.896.15-1.568 3.79-21.5 15.857-5.4-18.338 27.61"/><path fill="#f2ea14" d="M178.31 110.333 150.686 100.3l14.357 14.506v.041"/><path fill="#a6a8ab" d="m153.673 102.207 11.616 11.74 10.689-3.627zm10.293 13.825.219-.981-14.057-14.207.818-1.268 29.695 10.785"/><path fill="#eb2030" d="m169.884 97.695-19.238 2.59.04.027 27.623 10.035"/><path fill="#a6a8ab" d="m153.85 100.626 22.51 8.18-6.872-10.293zm26.409 11.234-30.063-10.948-1.459-1.132 1.814-.272 19.7-2.659"/><path fill="#eb2030" d="M178.228 78.143 186.49 97.6l.204.014-8.357 12.72"/><path fill="#a6a8ab" d="m179.018 81.988.082 25.796 6.599-10.062zm-1.431 30.936-.123-34.767 1.486-.3 8.085 19.02.845.054-.545 1.118"/><path fill="#eb2030" d="m178.337 110.333 17.028 25.36-16.974-10.335"/><path fill="#a6a8ab" d="m179.168 124.935 13.593 8.276-13.634-20.314zm15.802 11.44-17.342-10.567-.068-18.01 18.446 27.472"/><path fill="#f2ea14" d="m178.337 110.333 13.306 4.431 3.859 21.01-.137-.081"/><path fill="#a6a8ab" d="m180.245 111.792 13.866 20.628-3.15-17.056zm16.348 25.605-1.868-1.282-18.283-27.227 15.883 5.276"/><path fill="#f2ea14" d="m186.694 97.64 19.238 2.468-.027.027-27.568 10.212"/><path fill="#a6a8ab" d="m187.076 98.472-6.79 10.32 22.442-8.316zm-10.675 13.416 9.912-15.08 21.282 2.727-1.418 1.31"/><g fill="#fff"><path d="M679.124 890.819c.079-.208.132-.44.152-.701a8.32 8.32 0 0 0 .033-.693l-3.841.015-.003-.796 4.813-.017c.001.445-.023.855-.078 1.234-.055.378-.111.697-.17.955l1.115-.005.004.795-2.776.01.003.961 1.841-.007.01 2.589-.875.003-.007-1.793-3.849.014-.003-.795 2.008-.008-.004-.961-2.777.01-.002-.794M688.013 894.987l-4.875.018-.009-2.384.876-.003.006 1.589 3.998-.014zm-1.342-3.953c.078-.213.129-.487.151-.826.021-.339.031-.608.031-.81l-3.841.013-.003-.794 4.815-.017c.002.443-.025.89-.079 1.34-.053.449-.112.812-.177 1.091l1.125-.005.002.794-2.777.011.007 1.778-.876.004-.006-1.78-2.777.012-.003-.796M694.385 889.697l-2.807.01.001.485 2.808-.012zm.933 5.4-.875.004-.008-1.734-3.848.014-.003-.794 4.724-.017zm-1.856-4.155.001.408 2.77-.01.002.794-6.421.023-.003-.794 2.777-.01-.002-.408-1.871.006-.01-2.573.876-.003.002.651 2.815-.01-.003-.652.876-.003.01 2.574M703.135 895.076l-.876.003-.023-6.743.875-.003zm-2.327-2.648c.127.177.315.369.564.577.251.208.492.378.723.507l-.646.7a4.796 4.796 0 0 1-.605-.455 4.564 4.564 0 0 1-.522-.517 4.85 4.85 0 0 1-.361-.491 3.53 3.53 0 0 1-.293-.529 4.501 4.501 0 0 1-.614.994 8.62 8.62 0 0 1-.538.588 3.287 3.287 0 0 1-.591.491l-.741-.617c.23-.134.489-.332.774-.598.287-.266.52-.521.698-.763.162-.207.3-.486.417-.834.117-.349.175-.73.174-1.143l-.001-.356-1.471.005-.003-.803 3.855-.014.002.796-1.486.012.002.342c.002.595.076 1.039.219 1.334.144.295.292.553.444.774M711.256 891.324l-.86.003.006 1.945-.882.004-.018-4.965.882-.004.009 2.226.86-.003zm-.561 3.59-4.86.018-.008-2.37.891-.003.005 1.574 3.97-.014zm-1.256-3.175c-.387.057-.958.121-1.712.192-.755.07-1.579.107-2.476.111l-.01-3.05 3.327-.012.003.794-2.452.008.005 1.462c.447-.002.978-.022 1.588-.062a9.158 9.158 0 0 0 1.589-.229M674.61 899.487l-.01-2.701.366-.002.911 2.366.893-2.373.365-.001.012 2.702h-.25l-.009-2.334-.007.001-.882 2.337-.238.001-.903-2.332h-.008l.009 2.335M677.851 899.475l-.01-2.702.28-.001 1.528 2.281h.008l-.009-2.286.25-.001.01 2.702-.28.001-1.528-2.28-.009-.001.009 2.286M680.86 896.981l.01 2.263.527-.001c.374.001.649-.087.819-.264.172-.178.257-.468.255-.872-.001-.403-.088-.693-.26-.869-.173-.176-.448-.263-.822-.258zm-.239 2.484-.01-2.703.901-.003c.395.009.695.125.9.347.205.223.307.556.309 1 .001.442-.099.776-.302 1-.203.225-.502.344-.896.355M685.019 899.449l-.734-2.698.268-.002.601 2.363h.008l.629-2.367.309-.001.649 2.362h.008l.588-2.367.249-.001-.711 2.705h-.264l-.672-2.415h-.008l-.648 2.421M688.774 897.627a.51.51 0 0 0-.437.215 1.005 1.005 0 0 0-.183.483l1.224-.005a.85.85 0 0 0-.167-.481.509.509 0 0 0-.437-.212m0-.202c.305 0 .521.114.652.341.13.228.191.48.182.756l-1.452.004c.003.174.053.346.148.514.096.169.255.252.477.252a.546.546 0 0 0 .395-.141.747.747 0 0 0 .196-.361h.229a.962.962 0 0 1-.266.516c-.13.123-.315.185-.554.186-.299.002-.517-.101-.652-.305a1.293 1.293 0 0 1-.204-.724 1.305 1.305 0 0 1 .2-.711c.133-.216.348-.325.649-.327M690.103 896.729l.23-.001.01 2.701-.23.001M691.694 897.472l.001.202-.373.001.006 1.752h-.23l-.007-1.751-.32.002-.001-.202.32-.002v-.177a.806.806 0 0 1 .087-.413c.062-.105.183-.159.368-.16l.095.004.1.011.001.203-.088-.013-.081-.005c-.129 0-.202.038-.221.111a1.25 1.25 0 0 0-.03.269v.17M692.659 899.278a.703.703 0 0 0 .462-.165.536.536 0 0 0 .192-.451l-.001-.31h-.007l-.084.061-.109.026c-.194.038-.391.074-.586.111-.194.038-.291.152-.291.344 0 .118.044.211.131.281a.464.464 0 0 0 .293.103m.156-1.666a.567.567 0 0 0-.353.109c-.096.072-.146.188-.15.347l-.23.001c.012-.23.088-.397.23-.5a.874.874 0 0 1 .534-.158c.166 0 .323.038.471.117.149.077.224.247.224.509l.005 1.036.033.107.102.037.04-.005.036-.01.001.2-.073.012-.078.004c-.116 0-.19-.031-.222-.094a.512.512 0 0 1-.051-.245h-.007a.981.981 0 0 1-.266.294c-.098.069-.239.105-.42.106a.744.744 0 0 1-.448-.137c-.125-.091-.186-.236-.188-.433 0-.274.105-.441.32-.499a5.28 5.28 0 0 1 .692-.133.65.65 0 0 0 .22-.061c.05-.027.074-.097.074-.205-.001-.16-.049-.268-.146-.321a.724.724 0 0 0-.35-.078M694.195 899.415l-.007-1.952.212-.001.001.457h.008a.7.7 0 0 1 .715-.486l.001.238a.622.622 0 0 0-.509.19.727.727 0 0 0-.194.513l.003 1.041M696.291 897.599a.506.506 0 0 0-.437.216.978.978 0 0 0-.183.482l1.222-.004a.838.838 0 0 0-.165-.481.51.51 0 0 0-.437-.213m-.001-.201c.304-.001.522.113.652.342.13.226.191.478.182.754l-1.452.004c.003.174.052.346.148.514.097.17.255.253.476.252a.552.552 0 0 0 .397-.14.747.747 0 0 0 .195-.36l.229-.001a.974.974 0 0 1-.265.517c-.131.123-.316.185-.554.185-.301.001-.518-.102-.653-.306a1.3 1.3 0 0 1-.205-.724 1.31 1.31 0 0 1 .201-.711c.133-.215.35-.324.649-.326M699.8 896.951l-.52 1.387 1.026-.004zm-1.177 2.448 1.048-2.705.275-.001 1.036 2.698-.268.001-.319-.839-1.193.005-.31.84M701.496 898.39a1 1 0 0 0 .153.535c.101.16.258.239.473.238.201 0 .352-.08.453-.239a.975.975 0 0 0 .151-.538 1.137 1.137 0 0 0-.143-.548c-.096-.174-.251-.26-.468-.26-.219.001-.377.086-.474.255-.098.17-.145.355-.145.557m1.457-.959.007 1.794c-.002.29-.064.52-.187.688-.123.168-.34.253-.648.253-.189 0-.361-.045-.521-.137-.159-.093-.248-.243-.266-.45h.234c.027.143.093.243.199.301a.733.733 0 0 0 .354.086c.214 0 .368-.064.463-.193.095-.128.142-.31.141-.547l-.001-.264h-.007a.699.699 0 0 1-.238.29.601.601 0 0 1-.36.112c-.303.001-.521-.095-.654-.291a1.22 1.22 0 0 1-.202-.708c-.001-.27.071-.501.217-.695.147-.194.356-.291.631-.292a.658.658 0 0 1 .602.391h.007l-.001-.337M704.338 897.571a.507.507 0 0 0-.438.215 1.005 1.005 0 0 0-.183.483l1.223-.005a.842.842 0 0 0-.166-.481.51.51 0 0 0-.436-.212m0-.201c.302-.002.52.113.65.34.131.228.192.48.183.754l-1.453.006c.003.174.053.346.149.514.096.169.254.253.476.252a.548.548 0 0 0 .396-.141.733.733 0 0 0 .195-.361h.23a.965.965 0 0 1-.266.517c-.13.122-.315.184-.554.185-.299.002-.517-.102-.652-.306a1.296 1.296 0 0 1-.204-.723 1.318 1.318 0 0 1 .199-.712c.133-.215.349-.325.651-.325M705.669 899.374l-.007-1.953.23-.001.002.338h.006a.567.567 0 0 1 .236-.287.685.685 0 0 1 .368-.109c.266-.002.448.066.547.201.098.134.148.318.149.549l.004 1.257-.229.001-.005-1.22a.782.782 0 0 0-.104-.421c-.067-.111-.195-.167-.381-.166a.524.524 0 0 0-.429.192.762.762 0 0 0-.16.48l.003 1.139M708.62 897.354a.805.805 0 0 1 .514.164c.14.112.223.278.251.504h-.231a.646.646 0 0 0-.179-.344.492.492 0 0 0-.355-.123.553.553 0 0 0-.497.26c-.11.174-.164.365-.163.575 0 .207.056.396.167.571.111.173.277.26.5.259a.51.51 0 0 0 .367-.158.639.639 0 0 0 .178-.401h.229a.896.896 0 0 1-.252.555.721.721 0 0 1-.522.205c-.289 0-.511-.101-.665-.306a1.168 1.168 0 0 1-.233-.724 1.176 1.176 0 0 1 .228-.728c.152-.205.373-.308.663-.309M710.456 899.35l-.762-1.943h.246l.63 1.663.574-1.667.229-.001-.81 2.254a.994.994 0 0 1-.187.336c-.061.059-.164.089-.309.089l-.107-.004-.07-.014-.001-.199.082.012.076.006c.103-.001.175-.029.214-.086.039-.058.076-.132.114-.222" style="fill:#000" transform="translate(-8813.573 -12077.803) scale(13.63398)"/></g></svg>