<svg xmlns="http://www.w3.org/2000/svg" xml:space="preserve" width="1795.3196" height="600" viewBox="0 0 1795.3196 600"><path d="M1278.938 1410.715c-2.84-9.449-6.878-17.695-12.112-24.796-4.93-6.586-10.772-11.396-17.535-14.489-6.751-3.15-13.744-4.695-20.96-4.695-7.094 0-13.99 1.431-20.632 4.352-6.666 2.863-12.628 7.73-17.856 14.488-5.148 6.643-9.174 14.947-12.135 24.854-2.938 9.85-4.42 22.277-4.42 37.28 0 14.546 1.568 27.03 4.678 37.51 3.104 10.48 7.164 18.898 12.21 25.254 5.68 6.872 11.567 11.626 17.671 14.317 6.122 2.692 12.954 4.009 20.485 4.009 7.1 0 13.944-1.432 20.547-4.353 6.609-2.863 12.547-7.673 17.781-14.316 5.022-6.529 9.025-14.947 12.038-25.14 3.006-10.25 4.506-22.62 4.506-37.109 0-15.347-1.414-27.717-4.266-37.166zm35.918 130.281c-21.086 22.735-49.988 34.074-86.702 34.074-36.81 0-65.707-11.396-86.684-34.245-20.971-22.792-31.45-53.83-31.45-93.116 0-38.998 10.479-69.922 31.45-92.829 20.977-22.964 49.873-34.417 86.684-34.417 36.714 0 65.616 11.339 86.702 33.96 21.08 22.677 31.634 53.773 31.634 93.286 0 39.514-10.554 70.61-31.634 93.287M222.921 1325.674h-74.31l-66.581 99.072-11.948-16.55v-82.522H8.664v244.242h61.418v-108.749l78.184 108.749h70.96l-87.124-113.388 90.82-130.854" style="fill:#4081cb;fill-opacity:1;fill-rule:nonzero;stroke:none;stroke-width:.572665" transform="matrix(1.33333 0 0 -1.33333 0 2100.093)"/><path d="M381.283 1410.715c-2.85-9.449-6.886-17.695-12.116-24.796-4.918-6.586-10.76-11.396-17.53-14.489-6.761-3.15-13.758-4.695-20.959-4.695-7.11 0-13.981 1.431-20.647 4.352-6.669 2.863-12.616 7.73-17.863 14.488-5.122 6.643-9.158 14.947-12.103 24.854-2.954 9.85-4.425 22.277-4.425 37.28 0 14.546 1.552 27.03 4.664 37.51 3.096 10.48 7.178 18.898 12.202 25.254 5.691 6.872 11.574 11.626 17.681 14.317 6.121 2.692 12.955 4.009 20.491 4.009 7.091 0 13.935-1.432 20.553-4.353 6.595-2.863 12.52-7.673 17.768-14.316 5.025-6.529 9.034-14.947 12.05-25.14 2.992-10.25 4.495-22.62 4.495-37.109 0-15.347-1.424-27.717-4.26-37.166zm35.91 130.281c-21.09 22.735-49.985 34.074-86.685 34.074-36.825 0-65.72-11.396-86.687-34.245-20.978-22.792-31.476-53.83-31.476-93.116 0-38.998 10.498-69.922 31.476-92.829 20.967-22.964 49.862-34.417 86.687-34.417 36.7 0 65.595 11.339 86.685 33.96 21.088 22.677 31.635 53.773 31.635 93.286 0 39.514-10.547 70.61-31.635 93.287M831.338 1417.358l-29.567 6.872c-10.25 2.119-19.969 5.326-28.885 8.418-19.866 6.93-34.286 16.379-43.013 27.946-.138.172-.32.401-.447.573-8.63 11.797-13.017 23.537-13.017 41.46 0 16.15 4.45 30.009 13.464 41.977v25.197h-71.097l-53.91-120.488-54.11 120.603h-70.66v-244.242h57.726v161.836l44.406-104.512h41.81l44.417 104.512v-161.836h61.418v55.09c10.05-6.757 20.679-12.311 31.771-16.435 16.545-6.242 32.871-9.391 48.488-9.391 4.02 0 9.311.458 15.68 1.317 6.677.859 11.968 2.233 16.2 4.18 5.01 2.176 9.352 5.269 12.868 9.22 3.734 4.18 5.291 9.735 5.635 16.436.515 9.735-3.093 23.937-29.177 31.267" style="fill:#4081cb;fill-opacity:1;fill-rule:nonzero;stroke:none;stroke-width:.572665" transform="matrix(1.33333 0 0 -1.33333 0 2100.093)"/><path d="M969.848 1510.187c6.677 6.872 13.704 11.682 21.086 14.431 7.387 2.806 15.507 4.18 24.378 4.18 7.41 0 14.557-1.202 21.406-3.607 6.826-2.405 13.097-5.326 18.795-8.762 5.687-3.436 10.766-6.93 15.25-10.537 4.484-3.608 8.206-6.7 11.15-9.277h6.242v58.125c-4.037 2.12-9.369 4.582-15.915 7.388-6.568 2.863-12.615 5.097-18.199 6.7-7.107 2.004-14.563 3.493-22.317 4.639-7.765 1.03-16.527 1.603-26.256 1.603-36.622 0-65.748-11.51-87.337-34.589a121.288 121.288 0 0 1-5.326-6.185 107.883 107.883 0 0 1-11.242-16.836c-8.131 5.497-17.277 10.308-27.35 14.374-14.723 5.956-30.065 8.99-45.578 8.99-6.013 0-11.551-.457-16.453-1.316-4.925-.86-10.17-2.577-15.6-5.04-4.598-2.061-8.63-5.211-12.008-9.277-3.51-4.238-5.292-9.105-5.292-14.431 0-7.731 2.824-14.03 8.413-18.612 5.291-4.352 14.952-8.132 29.538-11.51l26.188-5.956c8.212-1.89 17.151-4.524 26.56-7.846a129.301 129.301 0 0 0 16.143-7.1c10.222-5.384 18.366-11.798 24.247-19.128 8.653-10.766 13.022-25.311 13.022-43.179 0-14.602-3.15-27.43-9.546-38.712a104.578 104.578 0 0 1 4.198-4.581c21.55-22.22 50.64-33.272 87.274-33.272 11.688 0 20.885.573 27.545 1.775 6.666 1.203 13.847 2.978 21.492 5.269a137.014 137.014 0 0 1 18.21 6.815c5.9 2.691 11.11 5.039 15.589 7.158v57.438h-5.584a470.431 470.431 0 0 0-10.823-9.22c-4.163-3.493-8.962-6.872-14.437-10.193-5.034-3.264-11.218-6.185-18.543-8.82-7.336-2.69-15.05-4.008-23.141-4.008-7.765 0-15.57 1.375-23.382 4.123-7.817 2.692-14.912 7.101-21.24 13.229-6.563 6.356-11.883 14.66-15.92 24.91-4.055 10.309-6.065 23.08-6.065 38.198 0 14.43 1.93 26.915 5.818 37.452 3.883 10.594 8.883 18.955 15.01 25.197M250.413 1213.089c3.139 5.84 6.346 13.514 9.624 23.02 3.286 9.45 5.736 18.498 7.288 27.088 0 0-21.334-1.432-29.513-1.775-8.189-.287-21.454-.459-39.833-.459-3.233 0-7.04.23-11.424.687-4.387.459-7.467.802-9.23 1.031l-2.65-4.066 20.81-7.33c2.091 1.432 3.93 2.348 5.543 2.692 1.64.4 3.159.63 4.623.744 2.195.23 8.776.458 19.726.802 10.964.286 19.931.573 26.911.744-.62-6.757-1.662-14.316-3.116-22.677-1.472-8.361-3.074-15.29-4.861-20.845-3.237-.058-7.454-.172-10.648-.23-3.192-.057-6.264-.057-9.176-.057-9.604 0-18.392-.115-26.372-.23a960.735 960.735 0 0 0-20.737-.228c-3.442 0-8.16.343-14.173.973-5.98.687-9.993 1.146-11.965 1.375l-3.275-4.696 25.671-8.132c1.866 1.203 3.78 2.119 5.783 2.634 1.968.516 3.733.802 5.317.974 1.682.172 4.915.458 9.7.859 4.802.458 11.025.744 18.631.801v-30.523h-17.81c-3.233 0-7.11.287-11.606.802-4.48.516-7.608.802-9.38.916l-2.516-3.378 20.991-8.018c1.87 1.375 3.663 2.234 5.412 2.692 1.704.4 3.306.63 4.776.745 2.176.286 10.464.515 20.325.63 9.876.114 21.143.171 28.255.171l.35-31.668.704-14.03h6.73c.517 1.775 2.155 4.409 2.933 7.96.79 3.55 1.19 6.757 1.19 9.563l.137 29.721-.034 6.586s-31.682-2.29-38.243-2.52v30.523c10.55 0 21.582-.058 33.107-.229 11.516-.172 22.777-.515 30.922-1.03v10.193a440.537 440.537 0 0 0-19.032-1.66c-6.935-.459-12.867-.86-19.865-1.146M783.25 1211.943c3.643 6.185 6.701 12.312 9.14 18.555 2.457 6.184 4.107 12.025 4.96 17.409l-23.829 6.929-3.275-3.15c5.429-2.634 8.584-5.04 9.489-7.273.859-2.233.996-4.753.39-7.444-2.624-10.766-7.445-22.22-14.5-34.417-7.033-12.198-16.081-22.048-27.14-29.607l3.895-2.348c7.313 3.837 14.213 9.048 20.684 15.462a138.947 138.947 0 0 1 17.22 21.188c3.654-3.55 8.694-8.876 15.09-15.977 6.414-7.101 11.872-13.458 16.356-19.07l9.237 9.22c-5.733 3.952-12.547 9.22-20.416 15.806-7.891 6.585-13.658 11.453-17.3 14.717M882.018 1215.38a231.43 231.43 0 0 0-15.341-1.375c-5.108-.344-9.661-.573-13.618-.63l.154 45.069c0 1.947.132 4.18.396 6.643.274 2.462.44 4.41.55 5.84l-22.392 5.04-3.442-3.894c4.484-1.603 7.777-3.379 9.856-5.44 2.102-2.062 3.127-4.81 3.127-8.19l.48-117.567 1.238-15.52h6.585c.51 1.89 1.203 4.983 2.033 9.163.848 4.238 1.254 7.845 1.254 10.88l.16 60.302c3.958-.114 8.402-.229 13.298-.343 4.92-.115 11.219-.401 15.691-.745l-.029 10.766M115.056 1220.877l.15 37.567c0 1.947.168 4.18.477 6.643.3 2.462.512 4.41.624 5.84l-22.545 5.04-3.444-3.894c4.599-1.718 7.899-3.55 9.871-5.498 1.982-2.004 2.955-4.753 2.955-8.131l.638-82.063 1.407-14.546h6.577c.514 1.775 1.152 4.639 1.861 8.647.745 3.952 1.114 7.445 1.114 10.48l.148 32.413c3.986-.115 8.469-.172 13.464-.344 5-.058 11.174-.458 15.67-.744v10.594c-5.123-.63-10.254-1.088-15.435-1.432-5.163-.286-9.66-.515-13.532-.572M22.775 1232.273c1.516.4 2.805.687 3.845.802 1.763.171 4.082.515 6.957.916 2.872.458 7.078.63 12.603.63 7.62 0 14.254 0 19.958-.058 5.682-.058 12.66-.344 19.03-.916v8.933c-6.688-.687-13.158-1.26-19.432-1.603-6.246-.401-12.655-.63-19.252-.745-4.993-.114-9.314-.172-12.994-.343-3.635-.172-7.865-.23-12.657-.23-3.139 0-6.606.23-10.411.688-3.814.458-6.52.801-8.064 1.03L0 1237.943l18.003-7.674c1.651.917 3.262 1.604 4.772 2.005M67.93 1137.554c-2.82-.115-4.94.458-6.4 1.66-1.487 1.203-2.22 2.921-2.22 5.098v10.48c0 1.89.11 3.95.319 6.184.212 2.233.391 4.009.49 5.269l-23.017 2.634-2.205-3.722c5.845-1.661 9.382-3.265 10.592-4.696 1.192-1.49 1.79-4.582 1.79-9.22v-13.343c0-2.062.702-3.78 2.111-5.097 1.41-1.317 3.635-1.947 6.669-1.947.825.114 7.762.4 20.81.744 13.035.458 28.246.23 45.46-.572v8.933c-10.648-1.202-21.444-1.89-34.119-2.061-12.688-.172-19.432-.344-20.28-.344M41.961 1251.858c1.347.229 2.702.344 4.078.458 4.57.23 8.038.286 10.389.286 2.355 0 6.427-.114 9.643-.343v8.189c-3.874-.172-8.104-.63-12.706-.515-4.577.114-8.585.343-12.028.801-3.859.516-7.261 1.031-10.19 1.604-2.928.572-4.94 1.03-6.104 1.317l-3.434-3.322 15.813-9.563a33.93 33.93 0 0 0 4.54 1.088M68.25 1185.658c3.442 2.577 5.915 5.44 7.411 8.647.07.115.136.23.197.401 1.082 2.348 1.637 4.982 1.637 7.731 0 .172-.044.344-.044.515 0 .23.044.401.044.573 0 6.643-3.08 12.198-9.245 16.78-6.15 4.523-13.55 6.814-22.21 6.814-8.649 0-16.09-2.29-22.239-6.815-3.453-2.52-5.894-5.44-7.41-8.647-.083-.115-.126-.286-.193-.401-1.067-2.348-1.638-4.982-1.638-7.73 0-.173.038-.345.038-.574 0-.171-.038-.343-.038-.515 0-6.643 3.092-12.255 9.241-16.78 6.15-4.523 13.568-6.814 22.238-6.814 8.662 0 16.05 2.29 22.211 6.815zm-42.098 17.409c0 4.696 1.857 8.762 5.629 12.37 3.764 3.493 8.514 5.325 14.258 5.325 5.928 0 10.73-1.832 14.384-5.326 3.662-3.607 5.48-7.673 5.48-12.37 0-4.81-1.818-8.99-5.48-12.54-3.653-3.551-8.456-5.326-14.384-5.326-5.744 0-10.494 1.775-14.258 5.325-3.772 3.551-5.629 7.731-5.629 12.542M642.215 1254.721c1.666.344 3.224.573 4.69.687 2.085.172 9.031.459 20.89.802 11.844.286 21.258.573 28.25.745-.418-7.388-1.248-14.317-2.496-20.73-1.26-6.415-2.76-12.542-4.553-18.383l5.956-1.26c3.23 6.127 6.253 13.171 9.076 21.017 2.818 7.902 5.063 16.664 6.735 26.285 0 0-49.719-2.233-71.852-2.233-3.242 0-6.987.229-11.259.687-4.283.458-7.313.859-9.088 1.03l-2.823-3.894 20.822-7.501c2.09 1.431 3.957 2.347 5.652 2.748" style="fill:#4081cb;fill-opacity:1;fill-rule:nonzero;stroke:none;stroke-width:.572665" transform="matrix(1.33333 0 0 -1.33333 0 2100.093)"/><path d="M666.674 1203.468h-4.593v19.528c0 1.89.154 4.008.47 6.528.303 2.405.566 4.352.778 5.67l-20.639 2.52-2.37-3.265c4.701-1.718 7.559-3.322 8.612-4.868 1.043-1.546 1.57-4.467 1.57-8.647v-17.638c-5.853-.115-12.353-.23-17.392-.23-5.068-.114-9.575-.114-13.544-.114-3.442 0-8.166.287-14.162.86-6.013.572-9.987.973-11.98 1.202l-3.287-4.41 25.684-8.303c1.855 1.145 3.814 2.004 5.767 2.52 1.987.515 3.762.859 5.32.916 2.09.229 6.454.63 13.068 1.145 6.637.515 15.279.802 25.919.802 10.646 0 21.921-.115 33.816-.286 11.882-.172 23.427-.401 31.771-.917v10.08c-9.289-1.032-19.986-1.833-32.086-2.349-12.118-.515-23.01-.744-32.722-.744M690.748 1178.557c-7.14 5.44-15.742 8.189-25.792 8.189s-18.664-2.749-25.805-8.19c-3.985-3.091-6.832-6.527-8.584-10.364-.074-.172-.149-.287-.218-.458-1.248-2.864-1.907-5.956-1.907-9.278 0-.229.046-.458.046-.63 0-.286-.046-.458-.046-.687 0-8.017 3.574-14.717 10.71-20.158 7.14-5.44 15.753-8.189 25.804-8.189 10.033 0 18.64 2.75 25.792 8.19 3.998 3.092 6.827 6.528 8.585 10.365.103.171.154.286.24.458 1.237 2.863 1.896 5.956 1.896 9.334 0 .23-.035.401-.035.63 0 .23.035.458.035.687 0 7.96-3.58 14.66-10.72 20.1zm-8.194-36.822c-4.456-4.524-10.326-6.872-17.598-6.872-7.05 0-12.828 2.347-17.42 6.871-4.6 4.582-6.896 9.965-6.896 16.15 0 6.013 2.297 11.338 6.895 15.92 4.593 4.581 10.371 6.872 17.42 6.872 7.273 0 13.143-2.291 17.599-6.872 4.46-4.582 6.694-9.907 6.694-15.92 0-6.185-2.233-11.568-6.694-16.15M372.21 1163.152v16.78c0 1.946.152 4.18.454 6.585.318 2.462.568 4.41.765 5.727l-20.477 2.634-2.513-3.55c4.58-1.604 7.318-3.208 8.21-4.926.895-1.718 1.34-4.581 1.34-8.532v-14.718c-7.301-.114-15.113-.229-21.392-.343-6.272-.058-11.733-.115-16.417-.115-3.47 0-8.179.23-14.187.859-5.98.573-9.981.916-11.943 1.145l-3.309-4.524 25.665-8.303a21.439 21.439 0 0 0 5.787 2.462c1.984.458 3.76.802 5.331.974 2.08.229 6.445.63 13.06 1.202 6.636.573 15.271.86 25.919.86 10.63 0 21.894-.115 33.812-.23 11.88-.172 23.414-.572 31.77-1.088v10.194c-8.984-1.031-19.292-1.776-30.987-2.291-11.695-.573-21.285-.802-30.888-.802" style="fill:#4081cb;fill-opacity:1;fill-rule:nonzero;stroke:none;stroke-width:.572665" transform="matrix(1.33333 0 0 -1.33333 0 2100.093)"/><path d="m308.649 1194.133 3.912-2.806c17.068 3.15 37.27 13.057 54.658 25.427 8.096-3.665 18.198-8.304 26.016-12.026 8.827-4.238 16.312-8.247 22.468-11.969l6.581 10.136a747.077 747.077 0 0 0-25.054 8.304c-7.782 2.691-17.497 6.414-24.966 9.277 15.02 11.51 27.34 24.624 32.646 36.421 0 0-22.766-.859-29.499-1.374-6.727-.573-17.623-.802-32.644-.802-3.233 0-7.065.23-11.505.687-4.443.459-7.527.802-9.317.86l-2.8-3.723 20.823-7.559c1.853 1.145 3.615 1.947 5.226 2.29 1.606.344 3.112.63 4.474.86 2.51.343 7.073.572 13.764.801 6.682.172 15.104.401 21.49.573-12.744-20.96-40.336-43.866-76.273-55.377M472.936 1235.079c1.336.515 2.385.916 3.222 1.145 1.456.287 3.247.63 5.317 1.031 2.111.344 4.453.573 7.055.573 5.004 0 9.197-.058 12.514-.115 3.357-.058 8.447-.344 13.871-.744v8.189c-7.791-.974-38.539-2.062-43.126-2.062-2.808 0-6.277.286-10.344.86-4.054.63-6.998.973-8.747 1.202l-2.512-4.066 19.095-8.018c1.132.745 2.362 1.375 3.655 2.005M460.984 1224.943c5.08-10.595 5.539-20.73 5.539-34.246 0-6.757 11.117-4.524 11.117 3.723 0 13.17-5.798 24.91-12.59 31.954l-4.066-1.431M551.13 1272.245c4.301-1.66 7.216-3.493 8.805-5.498 1.551-1.947 2.33-4.753 2.33-8.303l.302-117.855 1.56-15.519h6.122c.51 1.775 1.181 4.81 1.944 9.048.793 4.18 1.165 7.846 1.165 10.88l.326 113.16c0 1.946.132 4.237.39 6.814.252 2.52.452 4.524.544 5.841l-20.648 4.868-2.84-3.436M524.872 1265.201c4.261-1.66 7.205-3.493 8.758-5.498 1.565-2.004 2.36-4.753 2.36-8.303l.064-25.713c-5.863-.515-13.517-.229-22.033 1.49l-2.081-3.494 12.124-6.357c1.25.917 8.568 1.604 12.01 1.89l.052-19.929c-6.017-.687-14.865-.343-24.04 1.547l-1.97-3.322 12.63-6.7c1.473 1.088 11.315 1.89 13.4 2.004l.132-45.927 1.568-15.52h6.107c.528 1.776 1.195 4.753 1.976 8.991.783 4.238 1.178 7.846 1.178 10.88l.309 99.874c0 2.004.13 4.237.372 6.814.265 2.52.465 4.467.559 5.841l-20.643 4.868-2.832-3.436" style="fill:#4081cb;fill-opacity:1;fill-rule:nonzero;stroke:none;stroke-width:.572665" transform="matrix(1.33333 0 0 -1.33333 0 2100.093)"/><path d="m498.006 1182.05 8.042 32.127a702.853 702.853 0 0 1 1.586 5.612c.508 1.89.964 3.321 1.4 4.352l-18.332 5.841-2.79-3.264c4.086-2.004 6.4-3.894 7.038-5.67.64-1.775.64-4.58 0-8.475l-5.218-31.44c-12.013-1.03-23.854-.858-39.546 1.26l-2.165-4.523 19.043-8.247c2.875 1.317 10.923 2.978 12.4 3.035 7.4.974 14.25 1.947 20.557 2.978 6.336 1.088 12.353 2.406 18.086 4.066l-1.237 5.154c-6.838-1.088-12.972-2.061-18.864-2.806" style="fill:#4081cb;fill-opacity:1;fill-rule:nonzero;stroke:none;stroke-width:.572665" transform="matrix(1.33333 0 0 -1.33333 0 2100.093)"/></svg>