<svg xmlns="http://www.w3.org/2000/svg" width="99.964661mm" height="24.135462mm" viewBox="0 0 99.964661 24.135462"><defs><radialGradient id="b" cx="0" cy="0" r="1" fx="0" fy="0" gradientTransform="matrix(41.64476 0 0 -41.64476 195.214 668.53)" gradientUnits="userSpaceOnUse" spreadMethod="pad"><stop offset="0" style="stop-opacity:1;stop-color:#00afdc"/><stop offset="0.199997" style="stop-opacity:1;stop-color:#00afdc"/><stop offset="0.97721205" style="stop-opacity:1;stop-color:#0066b3"/><stop offset="1" style="stop-opacity:1;stop-color:#0066b3"/></radialGradient><radialGradient id="d" cx="0" cy="0" r="1" fx="0" fy="0" gradientTransform="matrix(41.44662 0 0 -41.44662 194.95 668.69)" gradientUnits="userSpaceOnUse" spreadMethod="pad"><stop offset="0" style="stop-opacity:1;stop-color:#00afdc"/><stop offset="0.199997" style="stop-opacity:1;stop-color:#00afdc"/><stop offset="0.97721205" style="stop-opacity:1;stop-color:#0066b3"/><stop offset="1" style="stop-opacity:1;stop-color:#0066b3"/></radialGradient><clipPath id="a" clipPathUnits="userSpaceOnUse"><path d="M196.076 694.817c-15.587-1.319-27.853-12.848-30.757-27.411 8.313 7.448 24.256 10.087 48.65 1.752a174.326 174.326 0 0 0 15.154-5.985c4.216-1.881 8.487-4.118 12.946-6.689 9.201-5.295 19.472-12.667 27.792-21.548h22.82l15.986 32.559 6.08-32.559h16.197l-9.956 47.363h-14.952c-2.354 0-3.335-.671-4.371-2.345l-19.559-38.727-13.519 12.208c6.128 1.722 12.939 6.417 14.851 14.312 3.398 14.024-8.434 14.585-12.372 14.585h-21.723c-2.814 0-3.314-.605-3.906-3.162l-4.179-19.653c-10.656 6.948-34.837 21.025-51.858 21.238-4.284.061-7.409-.592-10.436-2.45-.455-.288-.576-.242-.637-.228l.236.493c1.842 2.23 5.573 5.841 11.87 7.784 0 0 10.042 3.502 23.528-4.673 7.843-4.764 13.114-8.753 18.241-12.993-3.665 15.17-17.223 26.257-33.143 26.258-.987 0-1.98-.042-2.983-.129m64.107-19.804h5.628s5.642.342 3.626-7.266c0 0-2.239-9.003-12.622-9.003.47 2.291 3.027 14.639 3.368 16.269"/></clipPath><clipPath id="c" clipPathUnits="userSpaceOnUse"><path d="M177.803 663.022s-7.865-3.625-8.373-12.561c-.516-8.693 6.098-14.715 6.098-14.715l.038-.03c6.864-6.402 16.307-9.921 26.41-9.056 15.557 1.319 27.587 12.939 30.492 27.457 1.138-.288 3.625-.986 7.175-2.147l-3.618-17.034h15.913s1.289 6.697 2.511 12.006c-9.034 5.475-18.644 9.253-18.644 9.253-17.065 7.309-31.151 10.071-41.682 10.071-7.129 0-12.63-1.266-16.32-3.244"/></clipPath></defs><path d="M98.698 42.287c-1.034 0-1.465.368-1.677 1.33l-2.49 15.379h5.39l2.905-16.71zM35.724 42.275H31.02c-.725 0-1.134.23-1.616.68l-5.379 5.233 1.3-5.913h-4.262c-1.016 0-1.434.364-1.64 1.303l-2.882 15.417h5.346l1.472-7.261 4.98 7.261h6.66l-6.63-9.447zM108.92 55.079l2.199-12.792h-4.126c-1.017 0-1.451.352-1.668 1.275l-2.499 15.434h13.177l.503-3.917z" style="fill:#0066b3;fill-opacity:1;fill-rule:nonzero;stroke:none;stroke-width:.352777" transform="translate(-16.541 -37.825)"/><g clip-path="url(#a)" transform="matrix(.35278 0 0 -.35278 -40 245.161)"><path d="M196.076 694.817c-15.587-1.319-27.853-12.848-30.757-27.411 8.313 7.448 24.256 10.087 48.65 1.752a174.326 174.326 0 0 0 15.154-5.985c4.216-1.881 8.487-4.118 12.946-6.689 9.201-5.295 19.472-12.667 27.792-21.548h22.82l15.986 32.559 6.08-32.559h16.197l-9.956 47.363h-14.952c-2.354 0-3.335-.671-4.371-2.345l-19.559-38.727-13.519 12.208c6.128 1.722 12.939 6.417 14.851 14.312 3.398 14.024-8.434 14.585-12.372 14.585h-21.723c-2.814 0-3.314-.605-3.906-3.162l-4.179-19.653c-10.656 6.948-34.837 21.025-51.858 21.238-4.284.061-7.409-.592-10.436-2.45-.455-.288-.576-.242-.637-.228l.236.493c1.842 2.23 5.573 5.841 11.87 7.784 0 0 10.042 3.502 23.528-4.673 7.843-4.764 13.114-8.753 18.241-12.993-3.665 15.17-17.223 26.257-33.143 26.258-.987 0-1.98-.042-2.983-.129m64.107-19.804h5.628s5.642.342 3.626-7.266c0 0-2.239-9.003-12.622-9.003.47 2.291 3.027 14.639 3.368 16.269" style="fill:url(#b);stroke:none"/></g><g clip-path="url(#c)" transform="matrix(.35278 0 0 -.35278 -40 245.161)"><path d="M177.803 663.022s-7.865-3.625-8.373-12.561c-.516-8.693 6.098-14.715 6.098-14.715l.038-.03c6.864-6.402 16.307-9.921 26.41-9.056 15.557 1.319 27.587 12.939 30.492 27.457 1.138-.288 3.625-.986 7.175-2.147l-3.618-17.034h15.913s1.289 6.697 2.511 12.006c-9.034 5.475-18.644 9.253-18.644 9.253-17.065 7.309-31.151 10.071-41.682 10.071-7.129 0-12.63-1.266-16.32-3.244" style="fill:url(#d);stroke:none"/></g></svg>