<svg xmlns="http://www.w3.org/2000/svg" xml:space="preserve" width="364.23904" height="400" viewBox="0 0 364.23905 400.00001"><defs><clipPath id="a" clipPathUnits="userSpaceOnUse"><path d="M0 226.77h340.16V0H0Z"/></clipPath></defs><g clip-path="url(#a)" transform="matrix(4.58939 0 0 -4.58939 -598.45 720.538)"><path d="M0 0c0-16.611-13.468-30.078-30.078-30.078-16.613 0-30.079 13.467-30.079 30.078 0 16.611 13.466 30.078 30.079 30.078C-13.468 30.078 0 16.611 0 0" style="fill:#fff;fill-opacity:1;fill-rule:nonzero;stroke:none" transform="translate(200.16 126.923)"/><path d="M0 0c-4.785 3.251-10.91 1.927-14.131-2.962a9.977 9.977 0 0 0-8.295-4.596c-5.123 0-8.618 3.603-9.656 7.326h-.003c-.014.04-.02.073-.03.106-.01.042-.018.082-.031.126-.41 1.556-.513 2.294-.513 3.946 0 8.902 9.14 18.816 22.292 18.816 13.474 0 21.184-10.257 23.177-15.958a6.844 6.844 0 0 0-.104.303C8.884 18.257-1.69 26.272-14.144 26.272c-15.659 0-28.363-12.697-28.363-28.369 0-14.005 10.101-25.99 24.117-25.99 11.172 0 18.684 6.261 22.124 14.899C5.625-8.463 4.289-2.914 0 0" style="fill:#003863;fill-opacity:1;fill-rule:nonzero;stroke:none" transform="translate(184.2 129.02)"/><path d="M0 0c-1.663 5.562-9.423 16.51-23.352 16.51-13.151 0-22.292-9.915-22.292-18.816 0-1.652.104-2.39.513-3.946a8.255 8.255 0 0 0-.259 2.023c0 9.272 9.282 15.694 18.825 15.694 12.921 0 23.393-10.471 23.393-23.387 0-10.124-5.828-18.892-14.291-23.103v-.007C-6.548-31.08 1.244-20.625 1.244-8.349 1.244-5.443.855-2.882 0 0" style="fill:#e4032e;fill-opacity:1;fill-rule:nonzero;stroke:none" transform="translate(197.184 135.273)"/><path d="M0 0h-1.778v8.461H0V5.103h1.583v3.376h1.848V-.213H1.583V3.36H0Zm.036-3.981c0 .498-.184.929-.552 1.297a1.796 1.796 0 0 1-1.315.552c-.509 0-.945-.185-1.307-.552a1.79 1.79 0 0 1-.541-1.297c0-.498.18-.928.541-1.289a1.785 1.785 0 0 1 1.307-.542c.51 0 .948.181 1.315.542.368.361.552.791.552 1.289m1.884-.018c0-.474-.101-.922-.302-1.341a3.834 3.834 0 0 0-.8-1.111 4.082 4.082 0 0 0-1.191-.766 3.702 3.702 0 0 0-1.44-.283c-.51 0-.993.095-1.449.283a4.03 4.03 0 0 0-1.199.766c-.332.319-.599.69-.8 1.111a3.051 3.051 0 0 0-.303 1.341c0 .474.101.924.303 1.351.201.426.468.799.8 1.12.343.32.743.575 1.199.764.456.19.939.285 1.449.285.509 0 .99-.095 1.44-.285.45-.189.847-.444 1.191-.764.331-.321.598-.694.8-1.12.201-.427.302-.877.302-1.351m-6.79 6.275c0 .462-.169.863-.506 1.201a1.669 1.669 0 0 1-1.219.505c-.473 0-.877-.169-1.208-.505a1.657 1.657 0 0 1-.498-1.201c0-.463.166-.859.498-1.191A1.643 1.643 0 0 1-6.595.588c.474 0 .881.165 1.219.497.337.332.506.728.506 1.191m1.795-.017c0-.451-.095-.872-.284-1.263a3.455 3.455 0 0 0-.765-1.031 3.624 3.624 0 0 0-2.471-.96 3.56 3.56 0 0 0-1.36.258c-.42.172-.791.405-1.11.702-.32.297-.575.64-.765 1.031a2.864 2.864 0 0 0-.284 1.263c0 .449.095.874.284 1.27.19.397.445.743.765 1.04.319.296.69.531 1.11.702.421.171.874.258 1.36.258a3.624 3.624 0 0 0 2.471-.96 3.42 3.42 0 0 0 .765-1.04c.189-.396.284-.821.284-1.27m-4.55 5.243v1.297h2.043V7.502h2.845v-1.6h-8.052v1.6z" style="fill:#575756;fill-opacity:1;fill-rule:nonzero;stroke:none" transform="translate(141.188 77.344)"/><path d="M0 0v3.359h-2.88v1.654H0v3.198h1.919V0Zm-1.28-3.965c0 .581-.214 1.082-.64 1.502a2.082 2.082 0 0 1-1.511.632 2.05 2.05 0 0 1-1.502-.632 2.048 2.048 0 0 1-.631-1.502c0-.58.21-1.078.631-1.493a2.068 2.068 0 0 1 1.502-.621 2.1 2.1 0 0 1 1.511.621c.426.415.64.913.64 1.493m1.884-.017c0-.522-.106-1.011-.32-1.466a4.021 4.021 0 0 0-.853-1.2 4.194 4.194 0 0 0-1.289-.817 4.053 4.053 0 0 0-1.555-.303 4.12 4.12 0 0 0-1.564.303 4.144 4.144 0 0 0-1.298.817c-.356.343-.64.744-.853 1.2-.213.455-.32.944-.32 1.466 0 .521.107 1.012.32 1.475.213.463.497.865.853 1.209.367.344.8.616 1.298.818a4.139 4.139 0 0 0 1.564.302c.545 0 1.063-.101 1.555-.302a4.215 4.215 0 0 0 1.289-.818c.355-.344.64-.746.853-1.209a3.47 3.47 0 0 0 .32-1.475M-11.697 6.115v1.653h8.888V6.115h-3.786l3.946-4.818L-4 .195l-3.164 3.947-3.146-4.214-1.404 1.138 3.928 5.049z" style="fill:#575756;fill-opacity:1;fill-rule:nonzero;stroke:none" transform="translate(158.554 77.611)"/><path d="M0 0h-1.92v9.918H0V6.542h2.222V4.64H0Zm-5.99 5.564c0 .344-.069.67-.205.978a2.833 2.833 0 0 1-.542.817 2.87 2.87 0 0 1-.809.542 2.332 2.332 0 0 1-.969.204c-.343 0-.669-.068-.977-.204a2.83 2.83 0 0 1-.818-.542 2.833 2.833 0 0 1-.542-.817 2.394 2.394 0 0 1-.204-.978c0-.343.068-.666.204-.968.136-.303.317-.573.542-.81.237-.224.51-.405.818-.542.308-.136.634-.204.977-.204.344 0 .667.068.969.204.302.137.572.318.809.542.225.237.406.507.542.81.136.302.205.625.205.968m-4.035-5.653v-3.466H.391v-1.706h-12.336v5.172zm5.883 5.671c0-.581-.115-1.126-.346-1.636a4.385 4.385 0 0 0-.951-1.35 4.72 4.72 0 0 0-1.396-.907 4.26 4.26 0 0 0-1.697-.337c-.604 0-1.171.111-1.697.337a4.707 4.707 0 0 0-1.396.907c-.403.39-.72.841-.951 1.35a3.918 3.918 0 0 0-.347 1.636c0 .58.116 1.125.347 1.635.231.51.548.96.951 1.35.402.38.868.682 1.396.908a4.292 4.292 0 0 0 1.697.338c.604 0 1.17-.114 1.697-.338a4.723 4.723 0 0 0 1.396-.908c.403-.39.72-.84.951-1.35.231-.51.346-1.055.346-1.635" style="fill:#575756;fill-opacity:1;fill-rule:nonzero;stroke:none" transform="translate(175.671 75.904)"/><path d="M0 0v4.569h-2.879v1.706H0v3.643h1.92V0Zm-10.63-5.261v5.172h1.92v-3.466H2.063v-1.706zm-1.066 13.083v1.653h8.888V7.822h-3.769l3.929-5.795-1.458-.978-3.057 4.657-3.058-4.781-1.493.995 3.911 5.902z" style="fill:#575756;fill-opacity:1;fill-rule:nonzero;stroke:none" transform="translate(190.976 75.904)"/><path d="M206.725 81.931h-8.141v-2.133h8.141zm-8.142 1.671h8.142v1.955h1.901v-7.448h-11.944v7.448h1.901zm-3.039-7.574h14.22v-1.706h-6.15v-3.98h-1.937v3.98h-6.133z" style="fill:#575756;fill-opacity:1;fill-rule:nonzero;stroke:none"/></g></svg>