<svg xmlns="http://www.w3.org/2000/svg" width="759" height="427" overflow="hidden"><defs><clipPath id="a"><path d="M-1 164h759v427H-1z"/></clipPath></defs><g fill-rule="evenodd" clip-path="url(#a)" transform="translate(1 -164)"><path fill="#004989" d="M480.727 378v121.238c0 18.515-8.424 29.494-25.639 29.494-16.391 0-24.723-11.209-24.723-29.494V378H386v123.489C386 535.394 410.723 554 455.637 554 519.964 554 525 513.802 525 501.489V378h-44.273ZM77.15 378H0v170h44.506v-63.963h30.16c49.84 0 57.334-33.843 57.334-53.202C132 396.255 113.012 378 77.15 378Zm-9.334 78.034H44.46v-50.03h21.103c15.035 0 22.253 8.415 22.253 25.75.046 10.806-8.552 24.28-20 24.28ZM231.084 378h-57.113L123 548h45.975s31.535-135.329 33.048-140.755c1.604 5.38 35.89 140.755 35.89 140.755H281l-49.916-170ZM306.383 378l.046 149.928c0 15.598-2.37 30.004-24.429 42.712l5.697 19.36c38.649-6.79 59.477-24.407 62.303-65.834V378h-43.617Z"/><path fill="#F39800" d="M608.899 221.205c-2.974-1.184-49.772-23.315-83.899 33.697V334s46.982-22.313 106.818-21.585c0 0 .869-40.573 7.182-79.371-9.424-3.734-27.86-10.929-30.101-11.839Z"/><path fill="#F39800" d="M554.306 206.686c25.316-10.784 43.569 6.279 56.731 13.651 8.072 4.505 21.922 5.006 29.581 4.459 3.853-20.704 9.356-40.134 17.382-51.555 0 0-9.356-7.053-18.712-8.191-9.356-1.138-71.866 17.474-114.288 18.975V245c2.981-10.693 10.869-30.442 29.306-38.314Z"/><path fill="#004989" d="M525 255c-4.259 8.239-38.563 68.669-139 54.862v27.983S501.047 355.242 525 255Z"/><path fill="#E94820" d="M735.319 168c-7.775 12.105-43.521 61.3-92.241 60.569-15.78-.228-33.078-7.674-33.078-7.674 24.199 16.627 38.921 20.281 55.713 20.099 52.768-.503 89.941-52.576 92.287-56.824L735.319 168Z"/></g></svg>