<svg xmlns="http://www.w3.org/2000/svg" width="904.12695" height="903.2804" viewBox="0 0 904.12695 903.2804"><path d="M746.243 682.306c-31.433-3.555-61.516-17.775-83.061-39.263-7.867-7.845-11.618-14.38-13.595-23.685-6.244-29.396 21.08-56.555 50.689-50.38 7.203 1.502 14.127 5.292 21.92 11.999 8.497 7.312 14.158 10.719 22.354 13.45 4.992 1.664 7.66 1.975 16.931 1.975 9.239 0 11.957-.315 16.932-1.962 17.015-5.632 30.5-19.118 36.133-36.133 1.669-5.04 1.959-7.634 1.94-17.355-.04-19.834-3.665-26.79-25.766-49.444-12.338-12.646-15.478-16.369-17.595-20.858-4.561-9.674-5.6-19.378-3.107-29.046 2.552-9.895 5.668-14.29 21.994-31.019 13.49-13.823 15.702-16.488 18.771-22.62 8.715-17.411 8.106-37.772-1.623-54.244-3.62-6.13-12.554-15.049-18.727-18.696-9.051-5.348-15.156-7.085-26.44-7.521-12.16-.471-17.658.66-28.332 5.832l-7.195 3.487-85.926 85.668c-83.295 83.045-86.108 85.75-91.852 88.325-12.221 5.479-24.725 5.393-36.684-.25-17.235-8.134-27.552-28.39-23.64-46.417 3.023-13.93-2.638-7.622 91.542-101.997 47.084-47.182 88.655-88.18 92.38-91.108 29.59-23.26 68.2-33.827 105.461-28.867 47.283 6.296 88.717 36.204 109.132 78.775 19.437 40.531 18.786 86.688-1.786 126.561-2.763 5.355-7.345 12.968-10.183 16.92-4.754 6.617-5.069 7.328-3.998 9.02.639 1.011 3.574 5.398 6.523 9.748 22.8 33.64 29.593 77.236 18.25 117.116-6.537 22.98-18.762 43.582-36.22 61.041-21.586 21.585-48.114 35.155-78.396 40.101-7.783 1.271-28.802 1.755-36.826.847zm-619.259-.477c-1.164-.206-5.735-.98-10.159-1.721-47.17-7.904-89.145-42.78-106.667-88.625-17.009-44.5-9.767-97.652 18.338-134.608 2.567-3.376 3.64-5.466 3.148-6.138-19.786-27.034-29.358-53.008-30.556-82.923-2.242-55.955 28.121-107.242 78.405-132.435 19.492-9.766 39.6-14.516 61.883-14.618 20.57-.095 37.996 3.265 55.702 10.739 23.858 10.07 46.487 27.958 53.576 42.352 8.365 16.983 4.767 36.566-9.101 49.54-8.723 8.16-17.92 11.855-29.456 11.836-11.708-.02-20.365-3.705-31.056-13.221-18.065-16.08-41.075-19.91-61.91-10.306-15.077 6.95-25.88 19.715-30.291 35.796-1.558 5.678-1.779 8.247-1.45 16.901.711 18.764 4.147 25.113 25.243 46.645 13.044 13.314 15.355 16.088 17.985 21.588 6.614 13.833 6.049 27.974-1.647 41.19-1.301 2.235-9.246 11.11-17.656 19.724-13.23 13.553-15.705 16.516-18.378 22.01-4.273 8.783-5.744 15.228-5.729 25.096.025 16.64 4.603 27.842 16.042 39.258 7.768 7.752 13.586 11.356 22.961 14.224 13.773 4.213 27.804 2.952 41.408-3.72l8.042-3.944 85.08-84.876c55.677-55.544 86.48-85.678 89.13-87.195 9.2-5.266 22.36-7.022 32.463-4.332 11.091 2.953 21.445 11.243 26.78 21.441 3.948 7.546 4.941 11.57 4.927 19.958-.014 7.804-1.56 13.966-5.26 20.956-3.665 6.926-173.823 176.717-184.703 184.305-15.126 10.549-35.053 19.15-53.496 23.09-6.57 1.404-12.162 1.874-24.974 2.097-9.079.159-17.46.12-18.624-.084z" style="display:inline;fill:#0080c8;fill-opacity:1;stroke-width:.846561"/><path d="M221.1 745.338c3.556-31.433 17.776-61.516 39.263-83.062 7.846-7.866 14.381-11.617 23.685-13.594 29.397-6.244 56.555 21.08 50.38 50.689-1.501 7.203-5.292 14.127-11.998 21.92-7.312 8.496-10.719 14.158-13.45 22.354-1.664 4.992-1.975 7.66-1.975 16.931 0 9.239.314 11.957 1.961 16.931 5.633 17.016 19.119 30.501 36.134 36.134 5.04 1.668 7.634 1.958 17.354 1.94 19.835-.04 26.79-3.665 49.444-25.766 12.647-12.338 16.37-15.478 20.859-17.595 9.673-4.562 19.378-5.6 29.046-3.107 9.895 2.551 14.29 5.668 31.019 21.994 13.823 13.49 16.488 15.702 22.62 18.771 17.411 8.715 37.771 8.106 54.244-1.623 6.13-3.62 15.049-12.554 18.696-18.727 5.348-9.051 7.084-15.156 7.521-26.44.47-12.16-.661-17.658-5.833-28.332l-3.486-7.196-85.668-85.926c-83.046-83.295-85.75-86.107-88.325-91.851-5.479-12.222-5.394-24.725.25-36.684 8.134-17.235 28.39-27.552 46.417-23.64 13.93 3.023 7.622-2.638 101.997 91.542 47.181 47.084 88.18 88.655 91.108 92.38 23.259 29.589 33.827 68.2 28.866 105.461-6.295 47.282-36.204 88.717-78.775 109.132-40.53 19.437-86.688 18.786-126.56-1.786-5.355-2.763-12.969-7.345-16.92-10.183-6.618-4.754-7.328-5.069-9.021-3.998-1.01.639-5.397 3.574-9.748 6.523-33.64 22.8-77.235 29.592-117.116 18.25-22.98-6.537-43.582-18.762-61.04-36.22-21.586-21.586-35.155-48.114-40.102-78.396-1.27-7.783-1.754-28.802-.847-36.826zm.478-619.26c.205-1.163.98-5.735 1.72-10.158 7.905-47.17 42.78-89.145 88.626-106.668 44.5-17.008 97.652-9.767 134.607 18.338 3.377 2.568 5.467 3.64 6.138 3.15C479.704 10.951 505.678 1.38 535.592.182c55.955-2.242 107.243 28.121 132.436 78.404 9.766 19.493 14.516 39.6 14.618 61.883.094 20.57-3.265 37.996-10.74 55.703-10.07 23.858-27.958 46.486-42.351 53.576-16.984 8.364-36.567 4.767-49.54-9.101-8.16-8.724-11.856-17.92-11.836-29.456.02-11.709 3.704-20.365 13.22-31.056 16.08-18.065 19.91-41.075 10.306-61.91-6.95-15.078-19.715-25.88-35.795-30.292-5.678-1.558-8.248-1.778-16.901-1.45-18.764.712-25.114 4.148-46.646 25.244-13.313 13.044-16.087 15.355-21.587 17.985-13.834 6.614-27.974 6.049-41.19-1.647-2.235-1.301-11.11-9.246-19.724-17.656-13.553-13.231-16.517-15.706-22.01-18.378-8.784-4.273-15.228-5.744-25.097-5.729-16.64.025-27.842 4.602-39.258 16.042-7.752 7.768-11.356 13.586-14.223 22.96-4.213 13.774-2.953 27.805 3.72 41.409l3.944 8.042 84.876 85.08c55.544 55.676 85.677 86.479 87.195 89.13 5.266 9.2 7.022 22.36 4.332 32.462-2.953 11.092-11.243 21.446-21.442 26.781-7.545 3.948-11.569 4.941-19.957 4.927-7.805-.014-13.967-1.56-20.956-5.26-6.927-3.665-176.717-173.823-184.305-184.703-10.55-15.126-19.15-35.053-23.091-53.496-1.404-6.57-1.873-12.162-2.097-24.974-.158-9.08-.12-17.46.085-18.624z" style="display:inline;fill:#35b497;fill-opacity:1;stroke-width:.846561"/></svg>