<svg xmlns="http://www.w3.org/2000/svg" xml:space="preserve" width="806.604" height="384.47198" viewBox="0 0 806.604 384.47198"><path d="M401.285 36.406c0-17.076 13.843-30.919 30.919-30.919h154.595v30.92zM406.87 77.09h-34.012v-2.5c0-21.088-15.712-38.183-35.092-38.183H271.33V5.486H337.77c38.163 0 69.101 30.937 69.101 69.101z" style="fill:#213a8f;fill-opacity:1;fill-rule:nonzero;stroke:none" transform="matrix(1.33333 0 0 -1.33333 0 384.472)"/><path d="m342.71 58.218 47.154 55.152 47.153-55.152h42.27l-57.561 67.326h40.723v30.92h-68.006c7.587 6.237 12.427 15.693 12.427 26.28v28.008h-34.012v-54.288h-55.58v-30.92h40.724L300.44 58.218z" style="fill:#213a8f;fill-opacity:1;fill-rule:nonzero;stroke:none" transform="matrix(1.33333 0 0 -1.33333 0 384.472)"/><path d="m200.605 233.426 47.153-55.15h42.271l-89.424 104.591-89.424-104.592h42.271zM220.96 106.228h-77.814v-30.92h77.814c9.034 0 16.36-8.708 16.36-19.45V36.406h34.01V55.858c0 27.818-22.55 50.37-50.37 50.37M189.185 156.463H3.67v-30.919h154.595c17.076 0 30.919 13.843 30.919 30.92" style="fill:#00a13a;fill-opacity:1;fill-rule:nonzero;stroke:none" transform="matrix(1.33333 0 0 -1.33333 0 384.472)"/><path d="M252.703 156.463v.001c-19.38 0-35.09 17.096-35.09 38.184h-.002v2.498H183.6v-2.5c0-38.165 30.938-69.102 69.102-69.102h39.273v30.92z" style="fill:#00a13a;fill-opacity:1;fill-rule:nonzero;stroke:none" transform="matrix(1.33333 0 0 -1.33333 0 384.472)"/><path d="M497.17 281.873h-9.532l-13.703-15.647v15.647h-7.714v-34.688h7.714v17.069l14.145-17.07h9.581l-15.198 18.18zM552.105 268.361h-13.757v13.511h-7.714v-34.688h7.714v14.495h13.757v-14.495h7.763v34.688h-7.763zM443.035 253.621c-5.698 0-10.318 4.883-10.318 10.907s4.62 10.908 10.318 10.908c5.698 0 10.318-4.884 10.318-10.908 0-6.024-4.62-10.907-10.318-10.907m0 28.816c-10.067 0-18.228-8.018-18.228-17.909 0-9.89 8.16-17.909 18.228-17.909 10.067 0 18.228 8.018 18.228 17.91 0 9.89-8.161 17.908-18.228 17.908M583.054 253.621c-5.698 0-10.318 4.883-10.318 10.907s4.62 10.908 10.318 10.908c5.698 0 10.318-4.884 10.318-10.908 0-6.024-4.62-10.907-10.318-10.907m0 28.816c-10.067 0-18.228-8.018-18.228-17.909 0-9.89 8.161-17.909 18.228-17.909 10.067 0 18.228 8.018 18.228 17.91 0 9.89-8.16 17.908-18.228 17.908M524.603 193.596h7.714v34.688h-7.714zM536.708 221.553h10.858v-27.957h7.715v27.957h10.858v6.73h-29.43zM599.131 228.284h-8.746l-7.394-12.666-7.395 12.666h-8.942l12.431-20.245v-14.443h7.714v14.749zM507.421 200.032c-5.698 0-10.318 4.883-10.318 10.907s4.62 10.908 10.318 10.908c2.96 0 5.62-1.324 7.5-3.433l5.286 5.286a18.333 18.333 0 0 1-12.786 5.15c-10.067 0-18.228-8.02-18.228-17.91 0-9.892 8.161-17.91 18.228-17.91 4.982 0 9.496 1.966 12.786 5.15l-5.286 5.285c-1.88-2.109-4.54-3.433-7.5-3.433" style="fill:#213a8f;fill-opacity:1;fill-rule:nonzero;stroke:none" transform="matrix(1.33333 0 0 -1.33333 0 384.472)"/><path d="M513.457 253.621c-5.698 0-10.318 4.883-10.318 10.907s4.62 10.908 10.318 10.908c2.959 0 5.619-1.324 7.5-3.433l5.286 5.286a18.333 18.333 0 0 1-12.786 5.15c-10.067 0-18.228-8.02-18.228-17.91 0-9.892 8.161-17.91 18.228-17.91 4.982 0 9.496 1.966 12.786 5.15l-5.286 5.285c-1.881-2.109-4.541-3.433-7.5-3.433M422.077 277.98s-4.82 6.074-14.87 4.679c0 0-8.468-.915-9.47-8.81 0 0-.784-5.046 2.225-8.01 0 0 1.8-2.076 5.543-3.443 0 0 4.742-1.71 5.518-2.091 0 0 4.248-1.617 3.11-5.02 0 0-.85-2.812-5.927-2.307 0 0-4.355.048-7.834 4.104l-5.137-5.087s4.792-5.791 12.945-5.791c0 0 8.609-.53 12.342 5.005 0 0 2.218 2.913 1.479 8.146 0 0-.745 4.704-5.402 7.07 0 0-3.128 1.587-7.234 2.873 0 0-4.717 1.393-3.74 4.68 0 0 .842 2.987 6.054 2.05 0 0 2.455-.264 5.364-3.031z" style="fill:#213a8f;fill-opacity:1;fill-rule:nonzero;stroke:none" transform="matrix(1.33333 0 0 -1.33333 0 384.472)"/></svg>