<svg xmlns="http://www.w3.org/2000/svg" viewBox="0 0 395.514 217.985"><defs><clipPath id="a" transform="translate(5.486 27.286)"><path d="M.935 72.833c4.286 17.694 21.959 29.916 45.245 33.91l-39.9 19.25v37.92s73.22-40.864 76.469-42.966c7.751-5.047 13.074-11.574 12.507-21.154-.5-8.164-6.092-14.525-14.018-16.665-9.275-2.5-19.3-.416-28.747-2.272C44.176 79.227 32.384 75 30.138 65.622c-2.582-10.822 11.221-24.67 37.24-34.563V1.7C21.654 15.794-5.487 46.305.935 72.833" style="fill:none"/></clipPath><clipPath id="c" transform="translate(5.486 27.286)"><path d="M94.666 27.689c17.446-.115 30.828 5.355 33.105 14.866C130.506 54 116.225 67.52 94.688 75.108V52.934c0-.141-.022-.272-.022-.4V41.045L66.211 56.074v55.786l93.941 51.553V126.1l-51.635-26.61c33.369-13.606 54.293-40.052 48.458-64.152C151.69 13.52 126.064.041 94.666 0Z" style="fill:none"/></clipPath><radialGradient id="d" cx="-101.467" cy="480.431" r="1" gradientTransform="translate(7843.016 -36741.768) scale(76.68)" gradientUnits="userSpaceOnUse"><stop offset="0" stop-color="#38a1db"/><stop offset="1" stop-color="#003b90"/></radialGradient><linearGradient id="b" x1="-101.467" x2="-100.467" y1="480.44" y2="480.44" gradientTransform="translate(6365.581 -29977.646) scale(62.625)" gradientUnits="userSpaceOnUse"><stop offset="0" stop-color="#c70075"/><stop offset="0.373" stop-color="#c50074"/><stop offset="0.553" stop-color="#bd0272"/><stop offset="0.692" stop-color="#b0056f"/><stop offset="0.809" stop-color="#9e096a"/><stop offset="0.912" stop-color="#860f63"/><stop offset="0.988" stop-color="#6f145d"/><stop offset="1" stop-color="#6f145d"/></linearGradient></defs><g style="clip-path:url(#a)"><path d="M0 28.99h101.309v162.209H0z" style="fill:url(#b)"/></g><g style="clip-path:url(#c)"><path d="M44.211-10.628h140.6v184.669h-140.6z" style="fill:url(#d)" transform="rotate(-17.199 207.468 77.21)"/></g><path d="m196.192 132.9 54.978.008c16.525 0 29.476-14.263 29.476-32.46 0-18.378-12.524-31.715-29.776-31.715l-24.023.007c-4.8 0-8.412-3.277-8.412-7.64 0-4.564 2.687-7.641 6.689-7.641l44.853.018V30.4h-49.646c-17.259 0-29.773 12.874-29.773 30.6 0 17.039 14.157 30.914 31.55 30.914l21.648.015c4.486 0 9.019 2.793 9.019 9.049 0 5.177-4.533 9.051-8.573 9.051h-48.01ZM317.779 53.467h29.39c12.931.784 12.631 12.782 12.631 12.782A12.652 12.652 0 0 1 347.17 78.9h-23.713l37.657 54.074h28.914L365.452 95.7l1.424-.666a33.877 33.877 0 0 0-14.315-64.564l-1.5-.043h-60.138v102.481h26.856V53.467" style="fill:#615f5f" transform="translate(5.486 27.286)"/></svg>