<svg xmlns="http://www.w3.org/2000/svg" width="759" height="666" overflow="hidden"><defs><clipPath id="a"><path d="M-1 45h759v666H-1z"/></clipPath></defs><g fill-rule="evenodd" clip-path="url(#a)" transform="translate(1 -45)"><path fill="#0068B7" d="M673.281 450.458c-20.797-25.153-55.19-37.099-85.65-31.756-.535.096-4.449.783-4.449.783-6.379 1.087-13.082 2.061-20.11 2.939-3.838.629-6.015.706-6.015.706-48.468 5.382-110.781 5.553-178.25-.783-115.211-10.801-212.052-37.366-249.481-65.591-8.499-4.924-13.215-10.019-14.151-15.248-1.853-3.569-2.674-7.119-2.349-10.63.191-2.004.764-3.97 1.68-5.878-25.207 11.183-47.188 23.569-64.68 37.214-108.643 84.809-16.443 234.58 471.52 346.526 1.298.306 2.654.611 3.953.916a27.97 27.97 0 0 0 4.22.344c14.59 0 26.507-11.317 27.538-25.649V467.424c0-.229.019-.439.019-.687 0-21.966 11.076-24.504 17.187-25.306.191-.019.516-.038.707-.057 11.515.267 21.102 1.374 33.935 5.687 68.539 25.668 68.959 80.286 68.959 80.286-16.691-71.126-83.282-74.79-83.282-74.79-5.213 66.298 30.154 54.332 58.207 75.935 13.216 10.191 17.073 28.435 19.766 38.435 27.824-33.053 29.103-82.118.726-116.469Z"/><path fill="#00AA7B" d="M213.019 290.385c48.457-5.404 110.719-5.537 178.155.783 150.298 14.112 269.342 55.072 265.905 91.525-.267 2.884-1.298 5.653-3.054 8.307 24.534-10.999 45.918-23.163 63.044-36.53 108.848-85.033 9.298-218.759-474.705-307.554a191.37 191.37 0 0 1-4.353-.801c-.764-.058-1.566-.115-2.348-.115-13.48 0-24.535 10.35-25.68 23.545v4.525l-.019 175.852c-3.933 30.61-27.971 28.28-27.971 28.28-37.136 0-61.976-17.109-76.792-32.481-4.945-7.333-7.045-12.527-7.045-12.527 27.723-9.28 55.007-57.573 55.007-57.573 22.987-38.249 36.295-34.792 36.295-34.792-40.496-13.482-72.018 3.494-72.018 3.494-5.289 2.101-11.895 6.645-18.711 12.145-18.062 14.455-37.575 35.499-37.575 35.499-9.718 8.975-15.312 10.197-22.128 9.853-6.72-.363-11.704-2.75-11.704-2.75a47.93 47.93 0 0 0-4.353-2.043C2.387 188.549 0 206.097 0 206.097s5.785-4.85 11.895 8.956c6.472 13.444 12.086 22.552 16.553 28.625 7.026 9.643 11.189 11.801 11.189 11.801 8.152 7.982 17.26 14.264 26.882 18.465.02-.019 54.51 25.264 146.5 16.441Z"/><path fill="#FFF" d="M127.909 465.053c-4.225 3.984-6.366 8.887-6.366 14.557s2.141 10.611 6.366 14.672c4.206 4.042 9.407 6.11 15.448 6.11 5.851 0 10.917-2.049 15.085-6.11 4.282-4.118 6.462-9.06 6.462-14.672 0-5.67-2.18-10.554-6.443-14.557-4.187-4.023-9.253-6.053-15.104-6.053-6.041 0-11.242 2.03-15.448 6.053Zm5.009 14.557c0-2.854 1.014-5.21 2.983-7.068 1.988-1.839 4.474-2.758 7.437-2.758 2.83 0 5.258.938 7.246 2.758 2.065 1.839 3.097 4.214 3.097 7.068 0 2.739-1.032 5.076-3.097 6.991-1.969 1.877-4.397 2.854-7.246 2.854-2.963 0-5.468-.977-7.437-2.873-1.969-1.915-2.983-4.252-2.983-6.972Zm56.152-18.886v53.804H119v10.573h70.07V536H201v-75.276h-11.93ZM299.994 461v10.476h-12.218v10.553h12.218v15.131H312V461h-12.006Zm-70.666 0v10.572h13.643S230.33 488.158 229 489.92c1.734.824 9.096 4.099 10.426 4.731a35359.98 35359.98 0 0 0 14.414-20.532s13.297 19.191 14.261 20.551c1.31-.555 9.038-3.658 10.83-4.405-1.33-1.839-13.721-18.674-13.721-18.674h13.22v-10.572c-2.062-.019-47.06-.019-49.102-.019Zm40.546 45.832c-3.989 3.926-6.032 8.695-6.032 14.211 0 5.478 2.043 10.247 6.032 14.116 4.066 3.868 9.096 5.841 14.915 5.841 5.762 0 10.754-1.973 14.82-5.841 4.124-3.888 6.205-8.638 6.205-14.116 0-5.497-2.1-10.285-6.225-14.211-4.066-3.869-9.057-5.842-14.819-5.842-5.743.02-10.753 1.992-14.896 5.842Zm8.286 20.551-.019-.019c-1.812-1.782-2.717-3.908-2.717-6.302 0-2.49.925-4.615 2.736-6.339 1.812-1.724 4.028-2.586 6.629-2.586 2.544 0 4.741.862 6.553 2.586 1.811 1.724 2.717 3.869 2.717 6.339 0 2.394-.925 4.52-2.717 6.302-1.812 1.723-4.009 2.623-6.553 2.623-2.601-.019-4.817-.919-6.629-2.604ZM408.701 461v8.255H353.9V461h-11.849v38.202h78.499V461h-11.849ZM353.9 487.396v-8.082h54.801v9.138H353.9v-1.056ZM340 510.51v10.577h35.167V538h12.742v-16.913H423V510.51h-83ZM520.155 461v75H532v-75h-11.845Zm-49.925 0c-.551 1.127-18.414 37.185-19.23 38.904 1.481.706 9.454 4.583 11.029 5.366.835-1.871 14.446-31.398 14.446-31.398s13.725 29.622 14.579 31.418c1.576-.707 10.516-4.699 12.111-5.405-.949-1.796-19.78-37.796-20.331-38.885H470.23Z"/></g></svg>