<svg xmlns="http://www.w3.org/2000/svg" xml:space="preserve" width="866.45013" height="700" viewBox="0 0 866.45012 700"><path d="M462.266 10.058C347.733-25.605 262.69 45.031 262.69 45.031c-72.011 63.782-32.926 122.075-33.6 121.389 39.772 78.19 139.22 41.15 138.535 40.467 87.103-27.436 87.103-109.049 87.103-109.049s20.565 28.808 3.422 106.992c0 1.372-16.461 69.27-79.556 124.821.686 1.373-72.011 63.095-152.246 89.16 0 .688-84.366 33.601-138.541 40.464 0 0 130.304-39.776 204.372-91.217.684.682 105.62-63.1 104.929-134.426 0 0-59.664 58.987-163.228 55.558 0 1.369-120.021-1.373-119.333-122.77 0 0-57.607 72.699-85.04 141.28 0 .692-29.488 70.646-29.488 126.884 0 .68-2.75 89.848 59.664 129.62 0 0 85.729 65.161 242.098-23.313.688.68 112.476-64.475 182.43-175.58 0 .688 85.729-115.216 68.585-242.092.68.686-5.492-80.929-90.529-113.161z" style="fill:#2f4498;fill-opacity:1;fill-rule:nonzero;stroke:none;stroke-width:3.7781"/><path d="m457.693 499.286 408.757-313.66s-267.017 48.464-408.757 313.66zM139.924 700 842.22 521.684S469.125 416.07 139.924 700z" style="fill:#16a152;fill-opacity:1;fill-rule:nonzero;stroke:none;stroke-width:3.7781"/><path d="M1137.402 230.356c16.786 11.635 25.18 26.533 25.18 44.705 0 17.995-8.394 32.894-25.18 44.702-15.69 10.908-34.24 16.358-55.668 16.358-21.875 0-40.537-5.45-56.004-16.358-16.785-11.808-25.18-26.707-25.18-44.702 0-18.172 8.395-33.07 25.18-44.705 15.685-10.9 34.354-16.356 56.004-16.356 21.427 0 39.978 5.455 55.668 16.356m-85.775 20.846c-9.041 6.547-13.56 14.454-13.56 23.722 0 9.272 4.519 17.179 13.56 23.72 8.6 6.36 18.634 9.541 30.107 9.541 11.026 0 20.835-3.182 29.44-9.54 9.26-6.723 13.894-14.63 13.894-23.721 0-9.268-4.634-17.175-13.895-23.722-8.604-6.174-18.413-9.266-29.439-9.266-11.473 0-21.506 3.092-30.107 9.266m191.579 97.452c19.416 13.434 29.127 30.406 29.127 50.924 0 20.333-9.71 37.214-29.127 50.652-18.097 12.522-39.4 18.787-63.892 18.787-24.278 0-45.354-6.265-63.226-18.787-18.758-13.438-28.137-30.32-28.137-50.652 0-20.518 9.379-37.49 28.137-50.924 17.872-12.345 38.948-18.52 63.226-18.52 24.493 0 45.795 6.175 63.892 18.52m-99.563 22.051c-10.788 7.993-16.182 17.616-16.182 28.873 0 11.074 5.394 20.608 16.182 28.596 10.57 7.807 22.682 11.71 36.337 11.71 13.867 0 25.978-3.903 36.33-11.71 11.007-7.808 16.512-17.336 16.512-28.596 0-11.438-5.505-21.066-16.511-28.873-10.353-7.62-22.464-11.436-36.331-11.436-13.655 0-25.766 3.815-36.337 11.436m128.29-133.959h39.085v27.938h-39.085v15.166h39.085v27.935h-39.085v17.966h-38.713v-105.06h38.713zM1625.354 326.943v28.334h-127.585v96.624h-38.313v-96.624H1340.89v-28.334h231.508v-78.222h-221.563v-27.938h260.274v106.16zM1964.527 306.19v27.937h-122.393v58.79h-37.914v-58.79h-124.198v-27.938h231.553v-57.468H1690.01v-27.938h260.28v85.406h14.237m-235.733 115.338h221.562v27.935h-237.117c-7.944 0-13.674-1.54-17.204-4.608-3.97-3.254-5.955-8.593-5.955-16.007v-69.104h38.714zM1056.573 588.51h-9.777v-30.243l-25.224-52.115h11.032l19.355 42.519 18.806-42.519h10.801l-24.993 53.008zM1093.046 588.313h-10.262l31.988-82.36h10.16l31.552 82.36h-10.701l-9.174-24.33h-34.171l-9.392 24.33m26.753-71.136-13.539 36.829h26.744zM1166.011 588.51v-82.358h10.382l42.297 65.953v-65.953h9.38v82.359h-9.61l-42.67-67.626v67.626zM1325.024 547.658c-.511 12.653-4.627 22.88-12.34 30.695-7.645 7.74-17.286 11.608-28.935 11.608-5.967 0-11.497-1.19-16.593-3.57-5.169-2.378-9.79-5.874-13.863-10.49a44.121 44.121 0 0 1-7.813-13.39c-1.732-4.981-2.599-10.261-2.599-15.842 0-5.873 1.046-11.38 3.142-16.514 2.171-5.208 5.318-9.857 9.452-13.947 4.005-4.091 8.37-7.14 13.104-9.152 4.8-1.933 10.189-2.9 16.156-2.9 8.149 0 15.284 1.862 21.402 5.579 6.034 3.723 10.513 8.967 13.426 15.736h-12.554c-2.625-3.57-5.973-6.287-10.046-8.148-4.003-1.858-8.405-2.79-13.214-2.79-4.077 0-7.97.782-11.678 2.341-3.787 1.567-7.023 3.834-9.716 6.804-3.131 3.125-5.5 6.731-7.097 10.821a32.306 32.306 0 0 0-2.4 12.27c0 4.387.723 8.624 2.182 12.716 1.528 4.014 3.673 7.51 6.44 10.484a32.499 32.499 0 0 0 10.371 7.137c3.928 1.788 7.896 2.679 11.897 2.679 6.555 0 12.45-1.753 17.692-5.258 5.968-3.953 9.897-9.583 11.792-16.892h-28.934v-9.977zM1418.698 547.658c-.51 12.653-4.62 22.88-12.334 30.695-7.645 7.74-17.293 11.608-28.934 11.608-5.97 0-11.5-1.19-16.596-3.57-5.167-2.378-9.788-5.874-13.865-10.49a44.031 44.031 0 0 1-7.807-13.39c-1.742-4.981-2.609-10.261-2.609-15.842 0-5.873 1.048-11.38 3.151-16.514 2.162-5.208 5.313-9.857 9.446-13.947 4.005-4.091 8.37-7.14 13.101-9.152 4.804-1.933 10.19-2.9 16.164-2.9 8.15 0 15.279 1.862 21.396 5.579 6.04 3.723 10.519 8.967 13.43 15.736h-12.56c-2.615-3.57-5.965-6.287-10.042-8.148-4.003-1.858-8.409-2.79-13.209-2.79-4.077 0-7.97.782-11.681 2.341-3.782 1.567-7.029 3.834-9.72 6.804a31.241 31.241 0 0 0-7.097 10.821 32.272 32.272 0 0 0-2.402 12.27c0 4.387.73 8.624 2.184 12.716 1.528 4.014 3.673 7.51 6.442 10.484a32.515 32.515 0 0 0 10.375 7.137c3.93 1.788 7.896 2.679 11.9 2.679 6.548 0 12.448-1.753 17.683-5.258 5.97-3.953 9.903-9.583 11.792-16.892h-28.934v-9.977zM1442.407 506.152v52.674c0 7.293 1.092 12.574 3.273 15.849 2.401 3.719 6.66 5.577 12.773 5.577 5.674 0 9.678-1.858 12.01-5.577 2.18-3.275 3.272-8.556 3.272-15.849v-52.674h9.777v52.45c0 4.763-.254 8.633-.767 11.607-.66 3.575-1.753 6.624-3.284 9.152-2.483 3.66-5.394 6.384-8.748 8.178-3.361 1.793-7.372 2.69-12.043 2.69-5.106 0-9.412-.86-12.91-2.578-3.5-1.793-6.57-4.555-9.197-8.29-1.82-2.825-2.985-6.024-3.498-9.597-.291-2.308-.435-6.027-.435-11.163v-52.449zM1597.649 584.371c-6.195 3.728-13.29 5.59-21.3 5.59-6.04 0-11.604-1.19-16.695-3.57-5.03-2.306-9.612-5.802-13.759-10.49-3.549-4.014-6.183-8.48-7.917-13.39-1.742-4.908-2.609-10.186-2.609-15.842 0-5.802 1.048-11.308 3.15-16.514 2.097-5.134 5.207-9.783 9.343-13.947 4.07-4.016 8.442-7.032 13.098-9.04 4.804-2.006 9.936-3.012 15.389-3.012 8.228 0 15.474 1.9 21.735 5.692 6.184 3.868 10.807 9.225 13.862 16.068h-11.681c-2.767-3.72-6.22-6.548-10.368-8.48-4.154-1.932-8.67-2.903-13.548-2.903-4.077 0-7.966.782-11.677 2.341-3.86 1.567-7.173 3.87-9.933 6.916-3.062 3.05-5.386 6.62-6.991 10.71a32.306 32.306 0 0 0-2.402 12.269c0 4.462.73 8.698 2.184 12.716 1.527 4.09 3.708 7.586 6.553 10.484 2.914 3.05 6.368 5.43 10.37 7.137 3.93 1.788 7.897 2.679 11.896 2.679 4.811 0 9.25-.967 13.33-2.904 3.996-1.857 7.24-4.425 9.711-7.702h12.231c-3.28 6.475-7.936 11.538-13.972 15.192zM1627.424 530.155c2.106-5.208 5.268-9.857 9.482-13.947 4-4.016 8.32-7.032 12.972-9.04 4.727-2.006 9.848-3.012 15.37-3.012 5.672 0 10.904 1.006 15.704 3.013 4.719 2.007 9.113 5.06 13.186 9.15 4.066 4.016 7.162 8.593 9.268 13.727 2.107 5.13 3.162 10.674 3.162 16.623 0 5.953-.911 11.383-2.726 16.292-1.745 4.91-4.398 9.334-7.955 13.276-4.217 4.539-8.87 7.959-13.958 10.267-5.161 2.304-10.758 3.457-16.783 3.457-6.04 0-11.597-1.19-16.685-3.57-5.01-2.306-9.596-5.802-13.736-10.49-3.486-4.09-6.106-8.552-7.844-13.39-1.822-4.981-2.726-10.261-2.726-15.842 0-5.802 1.088-11.308 3.269-16.514m9.083 29.33c1.531 4.09 3.675 7.586 6.439 10.484a32.387 32.387 0 0 0 10.349 7.137c3.922 1.788 7.888 2.679 11.884 2.679 8.862 0 16.345-3.234 22.45-9.704 6.107-6.394 9.158-14.24 9.158-23.537 0-3.94-.727-7.732-2.18-11.377a33.227 33.227 0 0 0-6.427-10.037c-3.125-3.568-6.616-6.249-10.464-8.03-3.782-1.709-7.958-2.567-12.537-2.567-4.07 0-7.962.782-11.663 2.341a28.745 28.745 0 0 0-9.917 6.804c-2.982 3.125-5.31 6.731-6.977 10.821a33.593 33.593 0 0 0-2.292 12.27c0 4.462.727 8.698 2.177 12.716zM1731.074 506.152v52.674c0 7.293 1.089 12.574 3.273 15.849 2.402 3.719 6.663 5.577 12.777 5.577 5.678 0 9.674-1.858 12.006-5.577 2.18-3.275 3.272-8.556 3.272-15.849v-52.674h9.778v52.45c0 4.763-.255 8.633-.768 11.607-.653 3.575-1.749 6.624-3.28 9.152-2.48 3.66-5.397 6.384-8.755 8.178-3.354 1.793-7.372 2.69-12.035 2.69-5.103 0-9.412-.86-12.914-2.578-3.505-1.793-6.567-4.555-9.19-8.29-1.827-2.825-2.996-6.024-3.506-9.597-.29-2.308-.435-6.027-.435-11.163v-52.449zM1789.21 588.51v-82.358h10.383l42.297 65.953v-65.953h9.38v82.359h-9.609l-42.673-67.626v67.626zM1880.203 588.514v-72.983h-16.917v-9.379h43.308v9.38h-16.813v72.982zM1945.844 588.51h-9.781v-30.243l-25.222-52.115h11.032l19.355 42.519 18.806-42.519h10.806l-24.996 53.008z" style="fill:#231f20;fill-opacity:1;fill-rule:nonzero;stroke:none;stroke-width:3.7781"/><g style="fill:#fff"><path d="M189.925 486.736c-14.268-4.442-24.864 4.36-24.864 4.36-8.968 7.944-4.1 15.206-4.185 15.12 4.957 9.74 17.344 5.128 17.259 5.04 10.85-3.416 10.85-13.583 10.85-13.583s2.563 3.589.426 13.327c0 .172-2.048 8.63-9.91 15.55.086.171-8.971 7.86-18.966 11.106 0 .085-10.509 4.188-17.259 5.04 0 0 16.234-4.955 25.461-11.363.085.086 13.156-7.858 13.07-16.743 0 0-7.431 7.345-20.332 6.92 0 .171-14.95-.17-14.866-15.294 0 0-7.176 9.057-10.593 17.6 0 .085-3.675 8.8-3.675 15.805 0 .086-.342 11.194 7.434 16.149 0 0 10.679 8.115 30.157-2.904.084.083 14.013-8.031 22.726-21.874 0 .085 10.68-14.353 8.544-30.159.085.086-.682-10.08-11.277-14.097zM189.355 547.681l50.92-39.072s-33.264 6.038-50.92 39.072zM149.77 572.686l87.487-22.213s-46.478-13.158-87.487 22.213z" style="fill:#fff;fill-opacity:1;fill-rule:nonzero;stroke:none;stroke-width:1.33333" transform="matrix(8.02727 0 0 8.02727 -2394.432 -3113.305)"/></g><path d="M505.092 521.52c-14.267-4.44-24.864 4.36-24.864 4.36-8.969 7.943-4.101 15.206-4.184 15.12 4.954 9.74 17.345 5.125 17.257 5.04 10.85-3.416 10.85-13.582 10.85-13.582s2.563 3.588.426 13.326c0 .17-2.048 8.631-9.91 15.55.086.17-8.972 7.859-18.965 11.106 0 .085-10.509 4.189-17.258 5.04 0 0 16.233-4.955 25.458-11.363.086.087 13.156-7.858 13.072-16.745 0 0-7.43 7.348-20.333 6.922 0 .17-14.95-.172-14.865-15.294 0 0-7.177 9.057-10.593 17.599 0 .087-3.676 8.8-3.676 15.807 0 .085-.342 11.192 7.434 16.149 0 0 10.678 8.113 30.157-2.907.084.086 14.013-8.03 22.726-21.873 0 .087 10.68-14.352 8.544-30.158.086.085-.68-10.08-11.276-14.096z" style="fill:#2f4498;fill-opacity:1;fill-rule:nonzero;stroke:none;stroke-width:1.33333" transform="translate(-944.902 -19.534)"/><path d="m504.52 582.466 50.92-39.074s-33.26 6.038-50.92 39.074zM464.936 607.469l87.487-22.212s-46.478-13.158-87.487 22.212z" style="fill:#16a152;fill-opacity:1;fill-rule:nonzero;stroke:none;stroke-width:1.33333" transform="translate(-944.902 -19.534)"/><path d="M465.65 623.193c1.517 1.06 2.274 2.414 2.274 4.066 0 1.64-.757 2.998-2.274 4.076-1.412.992-3.09 1.485-5.024 1.485-1.974 0-3.661-.493-5.054-1.485-1.52-1.078-2.276-2.437-2.276-4.076 0-1.652.757-3.006 2.276-4.066 1.412-.991 3.099-1.49 5.054-1.49 1.935 0 3.612.499 5.024 1.49m-7.761 1.937c-.823.595-1.23 1.308-1.23 2.149 0 .838.407 1.553 1.23 2.143.782.582 1.692.868 2.737.868 1 0 1.893-.286 2.674-.868.841-.607 1.262-1.322 1.262-2.143 0-.842-.42-1.554-1.262-2.149-.781-.56-1.673-.838-2.674-.838-1.045 0-1.955.278-2.737.838m17.31 8.882c1.755 1.224 2.635 2.77 2.635 4.636 0 1.857-.88 3.395-2.635 4.62-1.64 1.142-3.566 1.71-5.786 1.71-2.198 0-4.108-.568-5.726-1.71-1.696-1.225-2.546-2.763-2.546-4.62 0-1.865.85-3.412 2.546-4.636 1.618-1.125 3.528-1.685 5.726-1.685 2.22 0 4.146.56 5.786 1.685m-9.041 2.001c-.985.73-1.475 1.61-1.475 2.635 0 1.016.49 1.886 1.475 2.618.961.714 2.07 1.074 3.315 1.074 1.267 0 2.373-.36 3.317-1.074 1.004-.713 1.504-1.588 1.504-2.618 0-1.043-.5-1.923-1.504-2.635-.944-.7-2.05-1.046-3.317-1.046-1.246 0-2.354.345-3.315 1.046m11.619-12.217h3.534v2.53h-3.534v1.378h3.534v2.53h-3.534v1.641h-3.483v-9.55h3.483zM509.727 632.05v2.583h-11.494v8.828h-3.48v-8.828H484.03v-2.584h20.93v-7.21h-20.043v-2.53h23.524v9.74zM540.44 630.121v2.585h-11.024v5.373h-3.421v-5.373H514.76v-2.585h20.91v-5.226h-20.04v-2.586h23.52v7.812h1.29m-21.347 10.514h20.042v2.586h-21.439c-.714 0-1.23-.147-1.548-.43-.355-.298-.536-.794-.536-1.477v-6.32h3.481zM456.968 654.098h-.885v-2.68l-2.314-4.625h1.009l1.774 3.772 1.718-3.772h.99l-2.292 4.704zM460.32 654.087h-.94l2.932-7.306h.933l2.894 7.306h-.983l-.84-2.157h-3.135l-.861 2.157m2.453-6.308-1.242 3.265h2.453zM467.027 654.098v-7.305h.952l3.871 5.85v-5.85h.864v7.305h-.882l-3.918-5.998v5.998zM481.598 650.484c-.045 1.121-.424 2.028-1.13 2.72-.7.684-1.585 1.025-2.653 1.025a3.635 3.635 0 0 1-1.523-.315 3.802 3.802 0 0 1-1.99-2.115 4.102 4.102 0 0 1-.24-1.406c0-.52.097-1.009.29-1.462.2-.464.488-.876.87-1.236a3.686 3.686 0 0 1 1.2-.812c.44-.172.936-.258 1.484-.258.745 0 1.401.165 1.962.496.551.328.965.793 1.23 1.393h-1.15a2.304 2.304 0 0 0-.921-.722 2.96 2.96 0 0 0-1.212-.248c-.374 0-.732.07-1.07.207-.349.14-.647.34-.893.606a2.72 2.72 0 0 0-.65.96c-.15.347-.222.713-.222 1.088 0 .39.069.766.202 1.126.14.358.337.67.59.933.274.27.59.479.953.632.358.158.722.236 1.09.236.6 0 1.142-.154 1.622-.464.547-.35.908-.852 1.083-1.5h-2.653v-.884zM490.19 650.484c-.047 1.121-.422 2.028-1.133 2.72-.7.684-1.584 1.025-2.652 1.025a3.633 3.633 0 0 1-1.52-.315c-.474-.21-.9-.52-1.274-.928a3.929 3.929 0 0 1-.72-1.187 4.1 4.1 0 0 1-.239-1.406c0-.52.096-1.009.29-1.462.2-.464.49-.876.869-1.236a3.674 3.674 0 0 1 1.204-.812c.44-.172.933-.258 1.48-.258.748 0 1.401.165 1.962.496.556.328.966.793 1.232 1.393h-1.15a2.32 2.32 0 0 0-.922-.722 2.965 2.965 0 0 0-1.212-.248c-.374 0-.729.07-1.072.207-.348.14-.644.34-.89.606a2.778 2.778 0 0 0-.651.96 2.786 2.786 0 0 0-.22 1.088c0 .39.068.766.2 1.126.14.358.337.67.592.933.273.27.592.479.95.632.362.158.724.236 1.09.236.602 0 1.143-.154 1.624-.464.549-.35.906-.852 1.08-1.5h-2.654v-.884zM492.363 646.793v4.672c0 .647.103 1.117.3 1.407.222.33.613.494 1.174.494.52 0 .885-.164 1.1-.494.202-.29.3-.76.3-1.407v-4.672h.885v4.654c0 .423-.022.764-.07 1.028a2.365 2.365 0 0 1-.297.814 2.278 2.278 0 0 1-.8.725c-.309.16-.673.239-1.098.239-.467 0-.86-.076-1.18-.232a2.26 2.26 0 0 1-.837-.732 2.016 2.016 0 0 1-.32-.854 8.382 8.382 0 0 1-.04-.988v-4.654h.883zM506.613 653.736c-.566.332-1.217.493-1.952.493a3.645 3.645 0 0 1-1.531-.315 3.795 3.795 0 0 1-1.262-.928 3.558 3.558 0 0 1-.733-1.187 4.043 4.043 0 0 1-.238-1.406c0-.513.096-1 .29-1.462.194-.456.48-.869.861-1.236a3.946 3.946 0 0 1 1.2-.804c.439-.176.91-.266 1.413-.266.754 0 1.42.168 1.992.504.568.342.992.819 1.272 1.426h-1.071a2.503 2.503 0 0 0-.952-.753 3.009 3.009 0 0 0-1.241-.258c-.373 0-.732.07-1.072.207-.352.14-.66.345-.911.615-.28.27-.493.587-.642.95a2.797 2.797 0 0 0-.218 1.089c0 .394.067.77.198 1.126.14.364.342.673.6.933.269.27.586.479.954.632.359.158.723.236 1.09.236.44 0 .846-.085 1.22-.256.369-.163.666-.394.892-.683h1.123c-.3.576-.727 1.021-1.282 1.343zM509.336 648.931c.194-.464.484-.876.871-1.236a3.81 3.81 0 0 1 1.192-.804 3.716 3.716 0 0 1 1.412-.266c.52 0 1 .09 1.444.266.431.18.835.449 1.21.812.374.358.657.762.85 1.215.193.457.292.948.292 1.475 0 .528-.084 1.01-.25 1.446a3.52 3.52 0 0 1-.73 1.174 4.021 4.021 0 0 1-1.283.911c-.474.206-.99.305-1.541.305a3.667 3.667 0 0 1-1.535-.315 3.85 3.85 0 0 1-1.262-.928 3.796 3.796 0 0 1-.722-1.187 3.987 3.987 0 0 1-.249-1.406c0-.513.102-1 .3-1.462m.83 2.6c.141.364.339.673.592.933.276.27.59.479.955.632.357.158.723.236 1.09.236.815 0 1.503-.286 2.065-.86.562-.567.843-1.262.843-2.088 0-.349-.068-.685-.203-1.009a2.973 2.973 0 0 0-.59-.892 2.928 2.928 0 0 0-.963-.71 2.863 2.863 0 0 0-1.151-.229c-.374 0-.734.07-1.073.207-.349.14-.65.34-.912.606a3.061 3.061 0 0 0-.642.96 2.9 2.9 0 0 0-.21 1.088c0 .394.067.77.2 1.126zM518.839 646.793v4.672c0 .647.1 1.117.3 1.407.22.33.612.494 1.169.494.521 0 .89-.164 1.102-.494.2-.29.3-.76.3-1.407v-4.672h.887v4.654c0 .423-.022.764-.07 1.028-.06.317-.16.589-.3.814a2.261 2.261 0 0 1-.8.725c-.306.16-.673.239-1.095.239-.47 0-.861-.076-1.182-.232-.319-.155-.597-.403-.838-.732a2.144 2.144 0 0 1-.321-.854 9.463 9.463 0 0 1-.039-.988v-4.654h.887zM524.181 654.098v-7.305h.951l3.873 5.85v-5.85h.863v7.305h-.884l-3.918-5.998v5.998zM532.533 654.098v-6.473h-1.554v-.832h3.968v.832h-1.54v6.473zM538.521 654.098h-.884v-2.68l-2.314-4.625h1.012l1.77 3.772 1.718-3.772h.993l-2.295 4.704z" style="fill:#231f20;fill-opacity:1;fill-rule:nonzero;stroke:none;stroke-width:1.33333" transform="translate(-944.902 -19.534)"/></svg>