<svg xmlns="http://www.w3.org/2000/svg" width="758" height="328" overflow="hidden"><defs><clipPath id="a"><path d="M-1 214h758v328H-1z"/></clipPath></defs><g fill-rule="evenodd" clip-path="url(#a)" transform="translate(1 -214)"><path fill="#51A121" d="M75.19 433.841 63.374 505H47.026c-19.465 0-17.736-8.499-16.295-16.737 2.882-16.502 9.065-54.422 9.065-54.422L0 337h17.396c17.527 0 20.225 9.912 20.225 9.912l25.124 62.895h.577l48.336-65.563S117.291 337 126.565 337H147l-71.81 96.841Z"/><path fill="#51A121" d="M149.717 507c-41.021 0-59.121-13.611-55.192-37.247 5.396-32.221 45.159-41.591 91.549-45.204l1.1-6.596c2.672-15.914-8.906-20.233-26.482-20.233-11.421 0-19.122 2.408-28.264 5.209-4.453 1.387-7.596-.157-9.325-5.366-1.781-5.339-2.672-8.245-2.672-8.245 10.399-3.874 25.592-9.318 49.324-9.318 30.988 0 53.751 10.679 48.486 42.298l-12.652 75.881c-12.861 5.183-32.455 8.821-55.872 8.821Zm34.131-69.258c-32.612 3.167-53.358 8.821-57.078 31.121-2.672 15.915 7.911 22.72 27.74 22.72 7.806 0 15.586-1.335 20.929-3.376l8.409-50.465ZM302.3 380c-25.251 0-44.976 3.41-60.064 8.865 0 0-15.244 91.848-16.443 99.454-1.172 7.606-3.7 16.681 15.739 16.681h15.349l17.224-104.044c6.749-2.046 12.768-3.41 23.895-3.41 21.368 0 25.172 10.465 23.531 20.484l-11.622 70.289c-1.225 7.606-3.701 16.681 15.765 16.681h15.348l14.462-87.442C358.768 397.756 346.99 380 302.3 380ZM648.681 508c25.253 0 44.981-3.41 60.07-8.891 0 0 15.246-91.849 16.445-99.428 1.199-7.606 3.701-16.681-15.767-16.681h-15.35l-17.226 104.071c-6.724 2.045-12.77 3.435-23.898 3.435-21.344 0-25.175-10.517-23.507-20.483l11.623-70.316c1.225-7.606 3.701-16.681-15.767-16.681h-15.35l-14.438 87.443c-3.283 19.749 8.47 37.531 53.165 37.531ZM495 390.655S476.304 380 448.154 380c-48.659 0-77.439 26.388-84.056 66.153-6.171 37.016 14.101 57.619 50.05 60.42 38.102 2.958 63.784-10.419 63.784-10.419l8.928-55.237h-14.285c-19.616 0-20.141 9.032-21.428 16.65l-4.727 28.377c-5.12 2.278-12.079 3.875-19.957 3.875-25.156 0-33.244-15.236-28.281-45.001 5.147-30.681 18.986-48.43 45.586-48.43 14.128 0 27.783 4.45 34.846 7.173 3.598.89 7.143-.76 10.74-5.576l5.646-7.33Z"/><path fill="#F60" d="M583.967 279c-26.295 15.527-31.09 46.581-17.813 71 24.876-19.514 31.579-48.811 17.813-71Z"/><path fill="#FE9E32" d="M542 351c-14.018-5.568-26.56-10.378-45.605-23.657-32.52-22.715-69.004-66.631-57.085-113.343 6.919 21.173 23.27 38.713 32.054 44.673 18.76 12.757 27.207 22.272 33.945 36.387 5.856 12.208 6.581 15.632 14.562 28.075C527.023 334.323 531.869 341.302 542 351Z"/><path fill="#51A121" d="M698.12 264.499c-17.563 10.209-33.325 26.061-43.528 39.499C642.118 320.453 629.748 337.119 603 352c14.614-1.286 42.04-5.958 67.849-17.453C706.053 318.826 746.292 293.316 756 215c-20.068 24.487-30.689 33.673-57.88 49.499ZM546.429 403.308l-13.544 77.742c-5.124 26.107-10.719 38.688-32.995 45.687-6.615 2.097-11.792 2.595-14.04 6.474-2.144 3.67-2.85 8.388-2.85 8.388 20.864 1.861 44.708-2.857 57.781-11.9 16.472-11.428 22.302-29.986 26.145-46.552l13.387-80.259C584.914 379.01 586.405 363.781 596 355c-28.158 10.065-42.669 13.211-49.571 48.308Z"/></g></svg>