<svg xmlns="http://www.w3.org/2000/svg" width="531.76477mm" height="500mm" viewBox="0 0 531.76477 500"><path d="M103.2-65.204c14.696-9.434 24.696-20.084 22.337-23.786-2.36-3.703-16.187.944-30.89 10.378-14.697 9.435-24.699 20.085-22.338 23.787 2.36 3.702 16.186-.945 30.89-10.379z" style="fill:#a7a5a6;fill-opacity:1;fill-rule:nonzero;stroke:none;stroke-width:.352778" transform="matrix(5.3896 0 0 5.3896 -964.23 884.71)"/><path d="M147.97-66.617c-5.322 8.097-15.584 17.7-28.416 25.792C96.65-26.386 74.026-20.73 68.327-29.042L57.564-45.458c5.698 8.312 28.523 2.906 51.428-11.534 12.915-8.144 23.252-17.658 28.546-25.806zM49.304-75.821c5.241-8.151 15.407-17.856 28.156-26.077 22.762-14.67 45.327-20.55 51.107-12.296l10.929 16.305c-5.781-8.253-28.552-2.618-51.313 12.051C75.35-77.565 65.11-67.946 59.897-59.746z" style="fill:#a7a5a6;fill-opacity:1;fill-rule:nonzero;stroke:none;stroke-width:.352778" transform="matrix(5.3896 0 0 5.3896 -964.23 884.71)"/><path d="M103.2-211.375c14.696-9.434 24.696-20.084 22.337-23.787-2.36-3.702-16.187.945-30.89 10.379-14.697 9.435-24.699 20.084-22.338 23.787 2.36 3.702 16.186-.945 30.89-10.379z" style="fill:#ed153e;fill-opacity:1;fill-rule:nonzero;stroke:none;stroke-width:.352778" transform="matrix(5.3896 0 0 5.3896 -265.73 1423.534)"/><path d="M147.97-212.788c-5.322 8.097-15.584 17.7-28.416 25.792-22.905 14.438-45.528 20.094-51.227 11.783L57.564-191.63c5.698 8.312 28.523 2.906 51.428-11.534 12.915-8.145 23.252-17.659 28.546-25.807z" style="fill:#254aa5;fill-opacity:1;fill-rule:nonzero;stroke:none;stroke-width:.352778" transform="matrix(5.3896 0 0 5.3896 -265.73 1423.534)"/><path d="M49.304-221.993c5.241-8.15 15.407-17.856 28.156-26.076 22.762-14.67 45.327-20.55 51.107-12.296l10.929 16.305c-5.781-8.254-28.552-2.618-51.313 12.05-12.833 8.274-23.074 17.892-28.286 26.093z" style="fill:#26b144;fill-opacity:1;fill-rule:nonzero;stroke:none;stroke-width:.352778" transform="matrix(5.3896 0 0 5.3896 -265.73 1423.534)"/></svg>